<svg width="110" height="110" viewBox="0 0 110 110" fill="none" xmlns="http://www.w3.org/2000/svg">
<g clip-path="url(#clip0)">
<path d="M106.207 41.5914C106.365 53.0152 97.2426 62.4094 85.819 62.5862H20.9C11.3187 62.4437 3.66336 54.5677 3.79313 44.9862C3.79197 44.0333 3.86808 43.0819 4.02072 42.1414C5.26687 33.7518 12.419 27.5077 20.9 27.4052H21.2414C22.5229 17.8585 30.6132 10.6967 40.2449 10.5828C41.9761 10.5764 43.6998 10.8126 45.3655 11.2845C49.6665 4.30183 57.2681 0.0349042 65.469 0C77.4385 0.153118 87.4949 9.04016 89.119 20.9C98.0397 22.5161 104.881 29.7332 106.017 38.7276C106.148 39.6765 106.211 40.6335 106.207 41.5914Z" fill="#D1D4D1"/>
<path d="M106.017 38.7276C104.795 48.9928 96.1558 56.7636 85.8189 56.8966H20.8999C12.4128 56.7925 5.25836 50.5385 4.02063 42.1414C5.26679 33.7518 12.4189 27.5077 20.8999 27.4052H21.2413C22.5228 17.8585 30.6131 10.6967 40.2448 10.5828C41.9761 10.5764 43.6997 10.8126 45.3655 11.2845C49.6664 4.30183 57.268 0.0349042 65.4689 0C77.4385 0.153118 87.4949 9.04016 89.1189 20.9C98.0397 22.5161 104.881 29.7332 106.017 38.7276Z" fill="#ECF0F1"/>
<path d="M83.448 70.1723H56.8963V54.9999H70.1722C73.3145 54.9999 75.8618 52.4525 75.8618 49.3102V45.5171C75.8618 44.4697 75.0127 43.6206 73.9653 43.6206C72.9178 43.6206 72.0687 44.4697 72.0687 45.5171V49.3102C72.0687 50.3577 71.2196 51.2068 70.1722 51.2068H56.8963V32.2413C56.8963 31.1938 56.0472 30.3447 54.9997 30.3447C53.9523 30.3447 53.1032 31.1938 53.1032 32.2413V51.2068H39.8273C38.7799 51.2068 37.9308 50.3577 37.9308 49.3102V45.5171C37.9308 44.4697 37.0817 43.6206 36.0342 43.6206C34.9868 43.6206 34.1377 44.4697 34.1377 45.5171V49.3102C34.1377 52.4525 36.685 54.9999 39.8273 54.9999H53.1032V70.1723H26.5515C23.4092 70.1723 20.8618 72.7196 20.8618 75.8619V79.6551C20.8618 80.7025 21.7109 81.5516 22.7584 81.5516C23.8058 81.5516 24.6549 80.7025 24.6549 79.6551V75.8619C24.6549 74.8145 25.504 73.9654 26.5515 73.9654H83.448C84.4955 73.9654 85.3446 74.8145 85.3446 75.8619V79.6551C85.3446 80.7025 86.1937 81.5516 87.2411 81.5516C88.2886 81.5516 89.1377 80.7025 89.1377 79.6551V75.8619C89.1377 72.7196 86.5903 70.1723 83.448 70.1723Z" fill="#FF5364"/>
<path d="M36.0343 45.517C39.1766 45.517 41.7239 42.9697 41.7239 39.8274C41.7239 36.685 39.1766 34.1377 36.0343 34.1377C32.8919 34.1377 30.3446 36.685 30.3446 39.8274C30.3446 42.9697 32.8919 45.517 36.0343 45.517Z" fill="#F0C419"/>
<path d="M73.9653 45.517C77.1076 45.517 79.6549 42.9697 79.6549 39.8274C79.6549 36.685 77.1076 34.1377 73.9653 34.1377C70.823 34.1377 68.2756 36.685 68.2756 39.8274C68.2756 42.9697 70.823 45.517 73.9653 45.517Z" fill="#F0C419"/>
<path d="M54.9996 32.2411C58.1419 32.2411 60.6892 29.6938 60.6892 26.5515C60.6892 23.4092 58.1419 20.8618 54.9996 20.8618C51.8573 20.8618 49.3099 23.4092 49.3099 26.5515C49.3099 29.6938 51.8573 32.2411 54.9996 32.2411Z" fill="#F0C419"/>
<path d="M41.7241 98.6206H3.7931C1.69823 98.6206 0 100.319 0 102.414V106.207C0 108.302 1.69823 110 3.7931 110H41.7241C43.819 110 45.5172 108.302 45.5172 106.207V102.414C45.5172 100.319 43.819 98.6206 41.7241 98.6206Z" fill="#547580"/>
<path d="M41.7241 79.6553H3.7931C1.69823 79.6553 0 81.3535 0 83.4484V87.2415C0 89.3363 1.69823 91.0346 3.7931 91.0346H41.7241C43.819 91.0346 45.5172 89.3363 45.5172 87.2415V83.4484C45.5172 81.3535 43.819 79.6553 41.7241 79.6553Z" fill="#547580"/>
<path d="M3.79297 91.0347H41.724V98.6209H3.79297V91.0347Z" fill="#35495E"/>
<path d="M9.4828 106.207V110H5.6897V106.207C5.6897 105.16 6.53881 104.311 7.58625 104.311C8.63368 104.311 9.4828 105.16 9.4828 106.207Z" fill="#F0C419"/>
<path d="M17.0689 106.207V110H13.2758V106.207C13.2758 105.16 14.1249 104.311 15.1723 104.311C16.2197 104.311 17.0689 105.16 17.0689 106.207Z" fill="#67B9CC"/>
<path d="M9.4828 87.2413V91.0344H5.6897V87.2413C5.6897 86.1938 6.53881 85.3447 7.58625 85.3447C8.63368 85.3447 9.4828 86.1938 9.4828 87.2413Z" fill="#F0C419"/>
<path d="M17.0689 87.2413V91.0344H13.2758V87.2413C13.2758 86.1938 14.1249 85.3447 15.1723 85.3447C16.2197 85.3447 17.0689 86.1938 17.0689 87.2413Z" fill="#67B9CC"/>
<path d="M106.207 98.6206H68.276C66.1811 98.6206 64.4829 100.319 64.4829 102.414V106.207C64.4829 108.302 66.1811 110 68.276 110H106.207C108.302 110 110 108.302 110 106.207V102.414C110 100.319 108.302 98.6206 106.207 98.6206Z" fill="#547580"/>
<path d="M106.207 79.6553H68.276C66.1811 79.6553 64.4829 81.3535 64.4829 83.4484V87.2415C64.4829 89.3363 66.1811 91.0346 68.276 91.0346H106.207C108.302 91.0346 110 89.3363 110 87.2415V83.4484C110 81.3535 108.302 79.6553 106.207 79.6553Z" fill="#547580"/>
<path d="M68.276 91.0347H106.207V98.6209H68.276V91.0347Z" fill="#35495E"/>
<path d="M73.9656 106.207V110H70.1725V106.207C70.1725 105.16 71.0216 104.311 72.069 104.311C73.1165 104.311 73.9656 105.16 73.9656 106.207Z" fill="#F0C419"/>
<path d="M81.5518 106.207V110H77.7587V106.207C77.7587 105.16 78.6078 104.311 79.6552 104.311C80.7027 104.311 81.5518 105.16 81.5518 106.207Z" fill="#67B9CC"/>
<path d="M73.9656 87.2413V91.0344H70.1725V87.2413C70.1725 86.1938 71.0216 85.3447 72.069 85.3447C73.1165 85.3447 73.9656 86.1938 73.9656 87.2413Z" fill="#F0C419"/>
<path d="M81.5518 87.2413V91.0344H77.7587V87.2413C77.7587 86.1938 78.6078 85.3447 79.6552 85.3447C80.7027 85.3447 81.5518 86.1938 81.5518 87.2413Z" fill="#67B9CC"/>
</g>
<defs>
<clipPath id="clip0">
<rect width="110" height="110" fill="white"/>
</clipPath>
</defs>
</svg>
