<svg width="30" height="30" viewBox="0 0 30 30" fill="none" xmlns="http://www.w3.org/2000/svg">
<path d="M0.626181 5.57555C4.74356 9.06252 11.9683 15.1972 14.0917 17.11C14.3768 17.3681 14.6825 17.4994 14.9999 17.4994C15.3167 17.4994 15.6219 17.3694 15.9063 17.1124C18.0316 15.1978 25.2563 9.06252 29.3737 5.57555C29.6301 5.35887 29.6692 4.97801 29.4616 4.71311C28.9819 4.10098 28.2666 3.75 27.4999 3.75H2.49995C1.73337 3.75 1.018 4.10098 0.53829 4.71316C0.330751 4.97801 0.369833 5.35887 0.626181 5.57555Z" fill="white"/>
<path d="M29.6375 7.46501C29.4159 7.36188 29.1553 7.39786 28.971 7.55536C24.4049 11.4262 18.5773 16.3878 16.7438 18.04C15.7147 18.9689 14.2864 18.9689 13.255 18.0387C11.3006 16.2779 4.75641 10.7145 1.02902 7.5553C0.843457 7.3978 0.582246 7.36305 0.36252 7.46495C0.141621 7.56755 0 7.7885 0 8.03202V23.7498C0 25.1286 1.12119 26.2498 2.50002 26.2498H27.5C28.8788 26.2498 30 25.1286 30 23.7498V8.03202C30 7.7885 29.8584 7.56696 29.6375 7.46501Z" fill="white"/>
</svg>
