<svg width="65" height="110" viewBox="0 0 65 110" fill="none" xmlns="http://www.w3.org/2000/svg">
<path d="M7.58613 0H56.8964C61.0861 0 64.4825 3.39647 64.4825 7.58613V102.414C64.4825 106.604 61.0861 110 56.8964 110H7.58613C3.39646 110 0 106.604 0 102.414V7.58613C0 3.39647 3.39646 0 7.58613 0Z" fill="#35495E"/>
<path d="M58.7939 7.58622V20.8621H5.69055V7.58622C5.69377 6.54014 6.5409 5.6928 7.58719 5.68958H13.8078C14.6263 5.69559 15.3506 6.22153 15.6095 6.99819L16.1975 8.78096C16.7174 10.33 18.167 11.3752 19.8008 11.3793H44.6836C46.3175 11.3752 47.7671 10.33 48.287 8.78096L48.875 6.99819C49.1339 6.22153 49.8581 5.69559 50.6767 5.68958H56.8973C57.9436 5.6928 58.7909 6.54014 58.7939 7.58622Z" fill="#B0D3F0"/>
<path d="M58.7931 85.3445V102.413C58.7899 103.459 57.9428 104.307 56.8965 104.31H7.58622C6.54014 104.307 5.6928 103.46 5.68958 102.413V85.3445H58.7931Z" fill="#B0D3F0"/>
<path d="M58.793 20.8621H5.6897V85.3448H58.793V20.8621Z" fill="#90BAE1"/>
<path d="M41.7243 7.58601C41.2198 7.59096 40.7345 7.39265 40.3778 7.03601C40.0212 6.67937 39.8229 6.19404 39.8278 5.68959C39.8349 5.1875 40.0313 4.70646 40.3778 4.34295C41.1382 3.64105 42.3104 3.64105 43.0707 4.34295C43.8042 5.09082 43.8042 6.28814 43.0707 7.0358C42.707 7.38191 42.2262 7.57849 41.7243 7.58601Z" fill="#A5A5A4"/>
<path d="M13.2757 91.0342H17.0687C18.1161 91.0342 18.9654 91.8832 18.9654 92.9308V96.7239C18.9654 97.7712 18.1163 98.6205 17.0687 98.6205H13.2757C12.2283 98.6205 11.379 97.7715 11.379 96.7239V92.9308C11.3792 91.8832 12.2283 91.0342 13.2757 91.0342Z" fill="#14A085"/>
<path d="M24.6553 91.0342H28.4484C29.4957 91.0342 30.345 91.8832 30.345 92.9308V96.7239C30.345 97.7712 29.496 98.6205 28.4484 98.6205H24.6553C23.6079 98.6205 22.7587 97.7715 22.7587 96.7239V92.9308C22.7587 91.8832 23.6077 91.0342 24.6553 91.0342Z" fill="#4482C3"/>
<path d="M36.0343 91.0342H39.8274C40.8748 91.0342 41.724 91.8832 41.724 92.9308V96.7239C41.724 97.7712 40.875 98.6205 39.8274 98.6205H36.0343C34.987 98.6205 34.1377 97.7715 34.1377 96.7239V92.9308C34.1379 91.8832 34.987 91.0342 36.0343 91.0342Z" fill="#14A085"/>
<path d="M47.4137 91.0342H51.2068C52.2542 91.0342 53.1034 91.8832 53.1034 92.9308V96.7239C53.1034 97.7712 52.2544 98.6205 51.2068 98.6205H47.4137C46.3664 98.6205 45.5171 97.7715 45.5171 96.7239V92.9308C45.5171 91.8832 46.3662 91.0342 47.4137 91.0342Z" fill="#E6E7E8"/>
<path d="M13.2757 26.552H17.0687C18.1161 26.552 18.9654 27.4011 18.9654 28.4486V32.2417C18.9654 33.2891 18.1163 34.1384 17.0687 34.1384H13.2757C12.2283 34.1384 11.379 33.2893 11.379 32.2417V28.4486C11.3792 27.4011 12.2283 26.552 13.2757 26.552Z" fill="#4482C3"/>
<path d="M24.6553 26.552H28.4484C29.4957 26.552 30.345 27.4011 30.345 28.4486V32.2417C30.345 33.2891 29.496 34.1384 28.4484 34.1384H24.6553C23.6079 34.1384 22.7587 33.2893 22.7587 32.2417V28.4486C22.7587 27.4011 23.6077 26.552 24.6553 26.552Z" fill="#CB9080"/>
<path d="M36.0343 26.552H39.8274C40.8748 26.552 41.724 27.4011 41.724 28.4486V32.2417C41.724 33.2891 40.875 34.1384 39.8274 34.1384H36.0343C34.987 34.1384 34.1377 33.2893 34.1377 32.2417V28.4486C34.1379 27.4011 34.987 26.552 36.0343 26.552Z" fill="#E6E7E8"/>
<path d="M47.4137 26.552H51.2068C52.2542 26.552 53.1034 27.4011 53.1034 28.4486V32.2417C53.1034 33.2891 52.2544 34.1384 51.2068 34.1384H47.4137C46.3664 34.1384 45.5171 33.2893 45.5171 32.2417V28.4486C45.5171 27.4011 46.3662 26.552 47.4137 26.552Z" fill="#4482C3"/>
<path d="M13.2757 39.827H17.0687C18.1161 39.827 18.9654 40.6761 18.9654 41.7237V45.5167C18.9654 46.5641 18.1163 47.4134 17.0687 47.4134H13.2757C12.2283 47.4134 11.379 46.5643 11.379 45.5167V41.7237C11.3792 40.6763 12.2283 39.827 13.2757 39.827Z" fill="#CB9080"/>
<path d="M24.6553 39.827H28.4484C29.4957 39.827 30.345 40.6761 30.345 41.7237V45.5167C30.345 46.5641 29.496 47.4134 28.4484 47.4134H24.6553C23.6079 47.4134 22.7587 46.5643 22.7587 45.5167V41.7237C22.7587 40.6763 23.6077 39.827 24.6553 39.827Z" fill="#E6E7E8"/>
<path d="M36.0343 39.827H39.8274C40.8748 39.827 41.724 40.6761 41.724 41.7237V45.5167C41.724 46.5641 40.875 47.4134 39.8274 47.4134H36.0343C34.987 47.4134 34.1377 46.5643 34.1377 45.5167V41.7237C34.1379 40.6763 34.987 39.827 36.0343 39.827Z" fill="#14A085"/>
<path d="M47.4137 39.827H51.2068C52.2542 39.827 53.1034 40.6761 53.1034 41.7237V45.5167C53.1034 46.5641 52.2544 47.4134 51.2068 47.4134H47.4137C46.3664 47.4134 45.5171 46.5643 45.5171 45.5167V41.7237C45.5171 40.6763 46.3662 39.827 47.4137 39.827Z" fill="#4482C3"/>
<path d="M13.2757 53.1033H17.0687C18.1161 53.1033 18.9654 53.9523 18.9654 54.9999V58.793C18.9654 59.8404 18.1163 60.6896 17.0687 60.6896H13.2757C12.2283 60.6896 11.379 59.8406 11.379 58.793V54.9999C11.3792 53.9526 12.2283 53.1033 13.2757 53.1033Z" fill="#E6E7E8"/>
<path d="M24.6553 53.1033H28.4484C29.4957 53.1033 30.345 53.9523 30.345 54.9999V58.793C30.345 59.8404 29.496 60.6896 28.4484 60.6896H24.6553C23.6079 60.6896 22.7587 59.8406 22.7587 58.793V54.9999C22.7587 53.9526 23.6077 53.1033 24.6553 53.1033Z" fill="#4482C3"/>
<path d="M36.0343 53.1033H39.8274C40.8748 53.1033 41.724 53.9523 41.724 54.9999V58.793C41.724 59.8404 40.875 60.6896 39.8274 60.6896H36.0343C34.987 60.6896 34.1377 59.8406 34.1377 58.793V54.9999C34.1379 53.9526 34.987 53.1033 36.0343 53.1033Z" fill="#14A085"/>
<path d="M47.4137 53.1033H51.2068C52.2542 53.1033 53.1034 53.9523 53.1034 54.9999V58.793C53.1034 59.8404 52.2544 60.6896 51.2068 60.6896H47.4137C46.3664 60.6896 45.5171 59.8406 45.5171 58.793V54.9999C45.5171 53.9526 46.3662 53.1033 47.4137 53.1033Z" fill="#E6E7E8"/>
<path d="M13.2757 66.3794H17.0687C18.1161 66.3794 18.9654 67.2285 18.9654 68.276V72.0691C18.9654 73.1165 18.1163 73.9657 17.0687 73.9657H13.2757C12.2283 73.9657 11.379 73.1167 11.379 72.0691V68.276C11.3792 67.2285 12.2283 66.3794 13.2757 66.3794Z" fill="#14A085"/>
<path d="M24.6553 66.3794H28.4484C29.4957 66.3794 30.345 67.2285 30.345 68.276V72.0691C30.345 73.1165 29.496 73.9657 28.4484 73.9657H24.6553C23.6079 73.9657 22.7587 73.1167 22.7587 72.0691V68.276C22.7587 67.2285 23.6077 66.3794 24.6553 66.3794Z" fill="#4482C3"/>
<path d="M36.0343 66.3794H39.8274C40.8748 66.3794 41.724 67.2285 41.724 68.276V72.0691C41.724 73.1165 40.875 73.9657 39.8274 73.9657H36.0343C34.987 73.9657 34.1377 73.1167 34.1377 72.0691V68.276C34.1379 67.2285 34.987 66.3794 36.0343 66.3794Z" fill="#E6E7E8"/>
<path d="M47.4137 66.3794H51.2068C52.2542 66.3794 53.1034 67.2285 53.1034 68.276V72.0691C53.1034 73.1165 52.2544 73.9657 51.2068 73.9657H47.4137C46.3664 73.9657 45.5171 73.1167 45.5171 72.0691V68.276C45.5171 67.2285 46.3662 66.3794 47.4137 66.3794Z" fill="#CB9080"/>
<path d="M36.0344 81.5513H28.4483C27.4009 81.5513 26.5516 80.7023 26.5516 79.6547C26.5516 78.6071 27.4007 77.7581 28.4483 77.7581H36.0344C37.0818 77.7581 37.931 78.6071 37.931 79.6547C37.931 80.7023 37.082 81.5513 36.0344 81.5513Z" fill="#E6E7E8"/>
<path d="M15.1726 17.0693H11.3796C10.3322 17.0693 9.48291 16.2202 9.48291 15.1726C9.48291 14.1251 10.332 13.276 11.3796 13.276H15.1726C16.22 13.276 17.0693 14.1251 17.0693 15.1726C17.0693 16.2202 16.22 17.0693 15.1726 17.0693Z" fill="#2C3E50"/>
<path d="M53.1033 17.0689H49.3102C48.2629 17.0689 47.4136 16.2199 47.4136 15.1723C47.4136 14.1247 48.2626 13.2756 49.3102 13.2756H53.1033C54.1506 13.2756 54.9999 14.1247 54.9999 15.1723C54.9999 16.2199 54.1509 17.0689 53.1033 17.0689Z" fill="#2C3E50"/>
</svg>
