<svg width="30" height="30" viewBox="0 0 30 30" fill="none" xmlns="http://www.w3.org/2000/svg">
<g clip-path="url(#clip0)">
<path d="M29.152 22.017L24.9654 17.8304C23.4702 16.3352 20.9283 16.9333 20.3302 18.877C19.8817 20.2228 18.3865 20.9704 17.0408 20.6713C14.0504 19.9237 10.0133 16.0361 9.26568 12.8962C8.81712 11.5504 9.71424 10.0552 11.0599 9.60673C13.0037 9.00864 13.6018 6.46679 12.1066 4.97158L7.91999 0.784986C6.72382 -0.261662 4.92957 -0.261662 3.88292 0.784986L1.04202 3.62589C-1.79888 6.61631 1.34106 14.5409 8.36855 21.5684C15.396 28.5959 23.3207 31.8854 26.3111 28.8949L29.152 26.054C30.1987 24.8579 30.1987 23.0636 29.152 22.017Z" fill="white"/>
</g>
<defs>
<clipPath id="clip0">
<rect width="30" height="30" fill="white"/>
</clipPath>
</defs>
</svg>
