<svg width="110" height="110" viewBox="0 0 110 110" fill="none" xmlns="http://www.w3.org/2000/svg">
<path d="M93.8867 31.3672H74.3359V50.7031H27.0703V74.3359C27.0703 76.7093 28.9938 78.6328 31.3672 78.6328V93.8867C31.3672 102.786 38.5812 110 47.4805 110H62.5195C71.4188 110 78.6328 102.786 78.6328 93.8867V85.0781H59.3884C57.6528 85.0781 56.1598 83.7446 56.0776 82.0116C55.9903 80.1602 57.4657 78.6328 59.2969 78.6328H93.8867C102.786 78.6328 110 71.4188 110 62.5195V47.4805C110 38.5812 102.786 31.3672 93.8867 31.3672Z" fill="#FEEF55"/>
<path d="M93.8867 31.3672H74.3359V50.7031H55V110H62.5195C71.4188 110 78.6328 102.786 78.6328 93.8867V85.0781H59.3884C57.6528 85.0781 56.1598 83.7446 56.0776 82.0116C55.9903 80.1602 57.4657 78.6328 59.2969 78.6328H93.8867C102.786 78.6328 110 71.4188 110 62.5195V47.4805C110 38.5812 102.786 31.3672 93.8867 31.3672Z" fill="#FEDC00"/>
<path d="M39.9609 55H70.0391C74.7849 55 78.6328 51.1521 78.6328 46.4062V16.1133C78.6328 7.22832 71.4045 0 62.5195 0H47.4805C38.5955 0 31.3672 7.22832 31.3672 16.1133V24.9219H50.7031C52.4831 24.9219 53.9258 26.3645 53.9258 28.1445C53.9258 29.9245 52.4831 31.3672 50.7031 31.3672H16.1133C7.22832 31.3672 0 38.5955 0 47.4805V62.5195C0 71.4045 7.22832 78.6328 16.1133 78.6328H31.3672V63.5938C31.3672 58.8479 35.2151 55 39.9609 55Z" fill="#78E0EA"/>
<path d="M62.5195 0H55V55H70.0391C74.7849 55 78.6328 51.1521 78.6328 46.4062V16.1133C78.6328 7.22832 71.4045 0 62.5195 0Z" fill="#3CCCDD"/>
<path d="M50.7031 13.1055C50.7031 14.8855 49.2605 16.3281 47.4805 16.3281C45.7005 16.3281 44.2578 14.8855 44.2578 13.1055C44.2578 11.3255 45.7005 9.88281 47.4805 9.88281C49.2605 9.88281 50.7031 11.3255 50.7031 13.1055Z" fill="#5A5A6E"/>
<path d="M65.7422 96.8945C65.7422 98.6745 64.2995 100.117 62.5195 100.117C60.7395 100.117 59.2969 98.6745 59.2969 96.8945C59.2969 95.1145 60.7395 93.6719 62.5195 93.6719C64.2995 93.6719 65.7422 95.1145 65.7422 96.8945Z" fill="#46465A"/>
</svg>
