<svg width="110" height="110" viewBox="0 0 110 110" fill="none" xmlns="http://www.w3.org/2000/svg">
<g clip-path="url(#clip0)">
<path d="M55 11.0813C54.4393 11.0813 53.8981 10.9958 53.3887 10.8373V18.5179H56.6113V10.8373C56.1019 10.996 55.5607 11.0813 55 11.0813Z" fill="#135693"/>
<path d="M55 11.2965C58.1195 11.2965 60.6483 8.76768 60.6483 5.64824C60.6483 2.5288 58.1195 0 55 0C51.8806 0 49.3518 2.5288 49.3518 5.64824C49.3518 8.76768 51.8806 11.2965 55 11.2965Z" fill="#6BC1DD"/>
<g opacity="0.15">
<path opacity="0.15" d="M54.1061 5.64824C54.1061 3.37842 55.4456 1.42227 57.3773 0.524434C56.6544 0.188633 55.8495 0 55.0001 0C51.8805 0 49.3518 2.52893 49.3518 5.64824C49.3518 8.76756 51.8805 11.2963 55.0001 11.2963C55.8495 11.2963 56.6544 11.1076 57.3773 10.7718C55.4456 9.87422 54.1061 7.91807 54.1061 5.64824Z" fill="#440075"/>
</g>
<path d="M91.0023 27.334H87.6716V58.0605H91.0023C92.8282 58.0605 94.3223 56.5667 94.3223 54.7407V30.6537C94.3223 28.828 92.8282 27.334 91.0023 27.334Z" fill="#9EA7AF"/>
<path d="M22.3288 27.334H18.7783C16.9523 27.334 15.4585 28.828 15.4585 30.6537V54.7405C15.4585 56.5665 16.9523 58.0603 18.7783 58.0603H22.3286L22.3288 27.334Z" fill="#9EA7AF"/>
<path d="M24.5925 98.2595H20.03C18.4724 98.2595 17.0254 97.7862 15.8249 96.9756V107.787C15.8249 109.004 16.8209 110 18.0382 110H24.5925V98.2595Z" fill="#C5CCD3"/>
<path d="M89.9698 98.2596H85.4076V110H91.9618C93.1791 110 94.1752 109.004 94.1752 107.787V96.9761C92.9744 97.7863 91.5274 98.2596 89.9698 98.2596Z" fill="#C5CCD3"/>
<path opacity="0.15" d="M20.4728 107.787V98.2595H20.03C18.4724 98.2595 17.0254 97.7862 15.8249 96.9756V107.787C15.8249 109.004 16.8209 110 18.0382 110H22.6861C21.4688 110 20.4728 109.004 20.4728 107.787Z" fill="#440075"/>
<path d="M24.5926 81.3384H20.0302C15.8742 81.3384 12.5051 84.7076 12.5051 88.8635V91.0768C12.5051 95.2328 15.8745 98.6017 20.0302 98.6017H24.5924L24.5926 81.3384Z" fill="#E6E9ED"/>
<path d="M89.97 81.3384H85.4078V98.6019H89.97C94.1261 98.6019 97.4951 95.2328 97.4951 91.077V88.8637C97.4951 84.7073 94.1259 81.3384 89.97 81.3384Z" fill="#E6E9ED"/>
<g opacity="0.15">
<path opacity="0.15" d="M17.8171 91.0768V88.8635C17.8171 84.7073 21.1863 81.3384 25.3422 81.3384H20.0302C15.8742 81.3384 12.5051 84.7076 12.5051 88.8635V91.0768C12.5051 95.2328 15.8745 98.6017 20.0302 98.6017H25.3422C21.186 98.6017 17.8171 95.2328 17.8171 91.0768Z" fill="#440075"/>
</g>
<path d="M62.3475 66.6123H47.6544V72.1029H62.3475V66.6123Z" fill="#9EA7AF"/>
<path opacity="0.15" d="M53.0085 66.6123H47.6544V72.1029H53.0085V66.6123Z" fill="#440075"/>
<path d="M72.284 77.3437V73.7719C72.284 72.7222 71.4251 71.8633 70.3753 71.8633H38.9813C37.9313 71.8633 37.0724 72.7222 37.0724 73.7719V77.3437H72.284Z" fill="#C5CCD3"/>
<path opacity="0.15" d="M43.6919 77.3437V73.7719C43.6919 72.7222 44.5509 71.8633 45.601 71.8633H38.9813C37.9313 71.8633 37.0724 72.7222 37.0724 73.7719V77.3437H43.6919Z" fill="#440075"/>
<path d="M82.3024 76.9668H27.6977C25.8718 76.9668 24.3777 78.4608 24.3777 80.2868V110H85.6224V80.2868C85.6224 78.4608 84.1286 76.9668 82.3024 76.9668Z" fill="#9EA7AF"/>
<g opacity="0.15">
<path opacity="0.15" d="M34.0371 76.9668H27.6977C25.8718 76.9668 24.3777 78.4608 24.3777 80.2868V110H30.7171V80.2868C30.7171 78.4608 32.2112 76.9668 34.0371 76.9668Z" fill="#440075"/>
</g>
<path d="M87.8865 63.548C87.8865 65.374 86.3924 66.8678 84.5667 66.8678H25.4335C23.6078 66.8678 22.1138 65.374 22.1138 63.548V21.6232C22.1138 19.7973 23.6078 18.3035 25.4335 18.3035H84.5667C86.3924 18.3035 87.8865 19.7973 87.8865 21.6232V63.548Z" fill="#C5CCD3"/>
<g opacity="0.15">
<path opacity="0.15" d="M28.4407 63.548V21.6232C28.4407 19.7973 29.9347 18.3035 31.7607 18.3035H25.4335C23.6078 18.3035 22.1138 19.7973 22.1138 21.6232V63.5483C22.1138 65.3742 23.6078 66.868 25.4335 66.868H31.7607C29.9347 66.8678 28.4407 65.374 28.4407 63.548Z" fill="#440075"/>
</g>
<path d="M80.0302 42.648C80.0302 48.9814 74.8961 54.1147 68.5631 54.1147H41.4372C35.1038 54.1147 29.9699 48.9812 29.9699 42.648C29.9699 36.3149 35.1038 31.1814 41.4372 31.1814H68.5631C74.8961 31.1814 80.0302 36.3149 80.0302 42.648Z" fill="#135693"/>
<g opacity="0.15">
<path opacity="0.15" d="M36.4086 42.648C36.4086 36.3149 41.5425 31.1814 47.8758 31.1814H41.4372C35.1038 31.1814 29.9699 36.3151 29.9699 42.648C29.9699 48.9814 35.1038 54.1147 41.4372 54.1147H47.8758C41.5425 54.1147 36.4086 48.9812 36.4086 42.648Z" fill="#440075"/>
</g>
<path d="M40.292 47.1248C42.7546 47.1248 44.7509 45.1207 44.7509 42.6484C44.7509 40.1761 42.7546 38.1719 40.292 38.1719C37.8294 38.1719 35.8331 40.1761 35.8331 42.6484C35.8331 45.1207 37.8294 47.1248 40.292 47.1248Z" fill="#6BC1DD"/>
<path d="M69.7943 47.1248C72.2568 47.1248 74.2531 45.1207 74.2531 42.6484C74.2531 40.1761 72.2568 38.1719 69.7943 38.1719C67.3317 38.1719 65.3354 40.1761 65.3354 42.6484C65.3354 45.1207 67.3317 47.1248 69.7943 47.1248Z" fill="#6BC1DD"/>
<path d="M74.7811 110V90.705C74.7811 89.4877 73.7851 88.4917 72.5678 88.4917H37.4323C36.2149 88.4917 35.2189 89.4877 35.2189 90.705V110H74.7811Z" fill="#135693"/>
<path d="M58.9839 110V103.777C58.9839 103.412 58.685 103.113 58.32 103.113H51.68C51.315 103.113 51.0162 103.412 51.0162 103.777V110H58.9839Z" fill="#FFC502"/>
<path d="M45.7042 95.4194H40.6137C39.7236 95.4194 39.0024 94.6982 39.0024 93.8081C39.0024 92.918 39.7236 92.1968 40.6137 92.1968H45.7042C46.5943 92.1968 47.3155 92.918 47.3155 93.8081C47.3155 94.698 46.5943 95.4194 45.7042 95.4194Z" fill="#C5CCD3"/>
<path d="M43.4911 99.3528H40.6137C39.7236 99.3528 39.0024 98.6316 39.0024 97.7415C39.0024 96.8514 39.7236 96.1301 40.6137 96.1301H43.4911C44.3812 96.1301 45.1024 96.8514 45.1024 97.7415C45.1024 98.6316 44.381 99.3528 43.4911 99.3528Z" fill="#C5CCD3"/>
<path d="M45.7042 103.287H40.6137C39.7236 103.287 39.0024 102.566 39.0024 101.676C39.0024 100.786 39.7236 100.064 40.6137 100.064H45.7042C46.5943 100.064 47.3155 100.786 47.3155 101.676C47.3155 102.566 46.5943 103.287 45.7042 103.287Z" fill="#C5CCD3"/>
<path d="M42.827 107.22H40.6137C39.7236 107.22 39.0024 106.499 39.0024 105.609C39.0024 104.719 39.7236 103.998 40.6137 103.998H42.827C43.7171 103.998 44.4383 104.719 44.4383 105.609C44.4383 106.499 43.7169 107.22 42.827 107.22Z" fill="#C5CCD3"/>
<path d="M68.6556 105.601H64.7266C63.7944 105.601 63.039 104.846 63.039 103.913C63.039 102.981 63.7946 102.226 64.7266 102.226H68.6556C69.5878 102.226 70.3437 102.981 70.3437 103.913C70.3437 104.846 69.5878 105.601 68.6556 105.601Z" fill="#E6E9ED"/>
<path d="M66.6917 99.752C68.6496 99.752 70.2367 98.1648 70.2367 96.207C70.2367 94.2492 68.6496 92.6621 66.6917 92.6621C64.7339 92.6621 63.1468 94.2492 63.1468 96.207C63.1468 98.1648 64.7339 99.752 66.6917 99.752Z" fill="#5DC647"/>
<path d="M59.082 98.0606C59.082 98.4349 58.7759 98.7408 58.4018 98.7408H51.5982C51.2241 98.7408 50.918 98.4349 50.918 98.0606V94.3516C50.918 93.9773 51.2241 93.6711 51.5982 93.6711H58.4018C58.7759 93.6711 59.082 93.9773 59.082 94.3516V98.0606Z" fill="#6BC1DD"/>
</g>
<defs>
<clipPath id="clip0">
<rect width="110" height="110" fill="white"/>
</clipPath>
</defs>
</svg>
