<svg width="100" height="110" viewBox="0 0 100 110" fill="none" xmlns="http://www.w3.org/2000/svg">
<path d="M18.3624 88.0943C9.82982 88.0943 3.86853 85.54 1.30284 80.6805V80.6803C-1.8406 74.7267 0.748288 66.515 8.59229 57.5581C15.7445 49.3908 26.6054 41.2384 39.1743 34.6023C51.7435 27.9662 64.6012 23.596 75.3792 22.2964C87.2002 20.8709 95.4409 23.3651 98.5841 29.3189C101.727 35.2724 99.1387 43.4841 91.2947 52.4413C84.1425 60.6083 73.2817 68.7609 60.7127 75.397C48.1437 82.0331 35.2858 86.4034 24.5077 87.703C22.3355 87.965 20.2835 88.0943 18.3624 88.0943ZM7.03001 77.6567C8.78 80.9713 15.0237 82.3233 23.7326 81.2731C33.7439 80.0662 45.8031 75.9454 57.6891 69.6701C69.575 63.3946 79.7793 55.7606 86.4227 48.1748C92.2017 41.5758 94.6071 35.6573 92.8572 32.3427C91.1074 29.0283 84.8639 27.6763 76.1546 28.7265C66.1435 29.9336 54.0841 34.0542 42.1981 40.3297C30.3122 46.605 20.1076 54.239 13.4644 61.8248C7.68572 68.424 5.28025 74.3423 7.03001 77.6567Z" fill="#FF8856"/>
<path d="M75.3795 22.2971C67.6671 23.2269 58.8897 25.7299 49.9152 29.5095V36.5674C59.2067 32.4083 68.3095 29.6727 76.1546 28.7269C84.8639 27.6768 91.1074 29.0288 92.8572 32.343C94.607 35.6576 92.2015 41.5762 86.4228 48.1751C79.7796 55.7612 69.5752 63.3949 57.6891 69.6704C55.0983 71.0383 52.4993 72.3035 49.9152 73.4588V80.5148C53.5013 79.0067 57.1189 77.2951 60.713 75.3976C73.282 68.7615 84.1429 60.6088 91.2949 52.4418C99.1387 43.4847 101.728 35.273 98.5844 29.3194C95.4409 23.3657 87.2005 20.8717 75.3795 22.2971Z" fill="#FF641A"/>
<path d="M81.2228 89.2478C78.7889 89.2478 76.1274 89.0042 73.2585 88.5115C62.7612 86.7079 50.3771 81.793 38.3875 74.6719C26.3979 67.551 16.1566 59.0284 9.55014 50.6736C2.30472 41.5109 0.172227 33.337 3.54526 27.6577C6.91829 21.9785 15.116 19.9407 26.6288 21.9183C37.1259 23.722 49.51 28.6369 61.4998 35.7577C73.4892 42.8786 83.7305 51.4015 90.3369 59.7562C97.5823 68.9189 99.715 77.0928 96.3418 82.7721C93.8094 87.036 88.5556 89.2478 81.2228 89.2478ZM18.5842 27.5284C13.743 27.5284 10.3223 28.6906 9.00848 30.9026C7.13071 34.064 9.19641 39.9817 14.5344 46.7323C20.6707 54.4925 30.2941 62.4748 41.6321 69.2087C52.97 75.9425 64.584 80.5737 74.3343 82.2489C82.8162 83.7064 89.0008 82.6888 90.8788 79.5271C92.7566 76.3656 90.6907 70.4479 85.3527 63.6973C79.2163 55.9371 69.5929 47.9548 58.2548 41.2208C46.9168 34.4869 35.3029 29.856 25.5526 28.1807C23.0047 27.743 20.663 27.5284 18.5842 27.5284Z" fill="#00FFE7"/>
<path d="M61.4999 35.7578C57.654 33.4737 53.7676 31.4179 49.9156 29.6174V36.6696C52.691 38.0527 55.4813 39.5733 58.2549 41.2206C69.5931 47.9547 79.2165 55.937 85.3528 63.6972C90.6906 70.4478 92.7567 76.3655 90.879 79.527C89.001 82.6887 82.8163 83.706 74.3344 82.2488C66.9533 80.9806 58.5043 78.0173 49.9156 73.7317V80.7862C58.091 84.6124 66.112 87.2836 73.2584 88.5114C76.1274 89.0043 78.7889 89.2477 81.2227 89.2477C88.5555 89.2477 93.8093 87.0357 96.3418 82.772C99.715 77.0927 97.5821 68.919 90.3369 59.7561C83.7306 51.4016 73.4893 42.8787 61.4999 35.7578Z" fill="#00DDC1"/>
<path d="M50.5215 110C43.8467 110 37.7705 103.965 33.3977 92.9828C29.3816 82.8968 27.0672 69.5154 26.8804 55.3032C26.6935 41.0911 28.6557 27.6533 32.405 17.4653C36.5173 6.29161 42.4893 0.0893462 49.2212 0.000859098C49.2695 0.000214775 49.3185 0 49.3671 0C56.0418 0 62.118 6.03517 66.4906 17.017C70.5065 27.103 72.8211 40.4846 73.0082 54.6968C73.195 68.9089 71.2328 82.3467 67.4831 92.5348C63.371 103.708 57.3988 109.911 50.6671 109.999C50.6185 110 50.5698 110 50.5215 110ZM49.3632 6.47653C49.3441 6.47653 49.3254 6.47674 49.3065 6.47696C45.5589 6.52614 41.5128 11.4703 38.4829 19.7021C35.0004 29.1653 33.1795 41.7784 33.356 55.2179C33.5328 68.6576 35.6844 81.2185 39.4146 90.5868C42.6431 98.6949 46.7923 103.523 50.5251 103.523C50.5442 103.523 50.5629 103.523 50.5818 103.523C54.3294 103.474 58.3756 98.5298 61.4052 90.2979C64.888 80.8347 66.7086 68.2216 66.5321 54.7819C66.3553 41.342 64.2037 28.7811 60.4735 19.4128C57.245 11.3047 53.096 6.47653 49.3632 6.47653Z" fill="#1F5C99"/>
<path d="M59.85 60.8839C56.6004 66.3551 49.5309 68.1562 44.0597 64.9066C38.5886 61.6571 36.7875 54.5876 40.037 49.1164C43.2866 43.6452 50.3561 41.8441 55.8272 45.0937C61.2984 48.3432 63.0995 55.4127 59.85 60.8839Z" fill="#FA184B"/>
<path d="M55.8272 45.0958C53.9646 43.9895 51.9168 43.47 49.8975 43.4799V66.5235C53.842 66.5355 57.6899 64.5229 59.8501 60.8861C63.0996 55.4151 61.2985 48.3454 55.8272 45.0958Z" fill="#BD0533"/>
<path d="M66.4904 17.0169C62.2378 6.33663 56.3741 0.337113 49.9154 0.0153809V6.51446C53.5008 6.9614 57.4031 11.7023 60.4733 19.4127C64.2035 28.781 66.3553 41.3421 66.5318 54.7818C66.7084 68.2215 64.8877 80.8346 61.405 90.2978C58.3753 98.5297 54.3292 103.474 50.5816 103.523C50.5627 103.523 50.544 103.523 50.5249 103.523C50.323 103.523 50.1194 103.506 49.9152 103.478V109.983C50.1166 109.994 50.3185 110 50.521 110C50.5696 110 50.6183 110 50.6667 109.999C57.3983 109.911 63.3706 103.708 67.4826 92.5347C71.2324 82.3466 73.1944 68.9088 73.0077 54.6968C72.8209 40.4847 70.5062 27.103 66.4904 17.0169Z" fill="#0E365C"/>
<path d="M96.8146 86.862C94.6269 90.5456 89.8671 91.7582 86.1835 89.5705C82.4999 87.3828 81.2873 82.623 83.4752 78.9394C85.6629 75.2558 90.4227 74.0432 94.1063 76.2309C97.7899 78.4188 99.0025 83.1784 96.8146 86.862Z" fill="#FFD396"/>
<path d="M94.106 76.2332C92.8519 75.4883 91.4733 75.1385 90.1135 75.1451V90.6598C92.7692 90.6679 95.36 89.3129 96.8143 86.8643C99.0022 83.1807 97.7896 78.4209 94.106 76.2332Z" fill="#FF9F00"/>
<path d="M18.4185 29.707C16.2308 33.3906 11.471 34.6032 7.78739 32.4155C4.10379 30.2278 2.89117 25.468 5.07908 21.7844C7.26677 18.1008 12.0266 16.8882 15.7102 19.0759C19.3938 21.2636 20.6064 26.0234 18.4185 29.707Z" fill="#FFD396"/>
<path d="M15.7106 19.0779C14.4565 18.333 13.0779 17.9832 11.7181 17.9898V33.5045C14.3738 33.5127 16.9647 32.1577 18.4189 29.709C20.6068 26.0254 19.3942 21.2658 15.7106 19.0779Z" fill="#FF9F00"/>
</svg>
