<svg width="103" height="110" viewBox="0 0 103 110" fill="none" xmlns="http://www.w3.org/2000/svg">
<path d="M68.3218 106.189H26.9468L32.6629 92.8519L35.9306 85.2305H59.338L62.6057 92.8519L68.3218 106.189Z" fill="#ABBAC2"/>
<path d="M76.2146 102.379H19.0536C16.949 102.379 15.2429 104.085 15.2429 106.19C15.2429 108.294 16.949 110 19.0536 110H76.2146C78.3192 110 80.0253 108.294 80.0253 106.19C80.0253 104.085 78.3192 102.379 76.2146 102.379Z" fill="#CCDCE5"/>
<path d="M62.6055 92.8519H32.6627L35.9304 85.2305H59.3378L62.6055 92.8519Z" fill="#798B9B"/>
<path d="M87.6467 14.7317H7.62146C3.41224 14.7317 0 18.1439 0 22.3531V81.4194C0 85.6286 3.41224 89.0409 7.62146 89.0409H87.6467C91.856 89.0409 95.2682 85.6286 95.2682 81.4194V22.3531C95.2682 18.1439 91.856 14.7317 87.6467 14.7317Z" fill="#0093BA"/>
<path d="M87.6467 89.041H7.62146C5.60012 89.041 3.66157 88.238 2.23227 86.8087C0.802972 85.3794 0 83.4409 0 81.4195V73.7981H95.2682V81.4195C95.2682 83.4409 94.4652 85.3794 93.0359 86.8087C91.6066 88.238 89.6681 89.041 87.6467 89.041Z" fill="#CCDCE5"/>
<path d="M45.7288 79.5142H49.5395V83.3249H45.7288V79.5142Z" fill="#ABBAC2"/>
<path d="M97.7969 22.258L102.378 18.3282C101.24 15.3687 101.237 15.361 100.099 12.4015L94.0655 12.5554L90.6196 8.93092L91.0812 2.9133L85.2786 0.334153L81.1209 4.70935L76.1193 4.58169L72.1895 0L66.2629 2.27977L66.4167 8.3131L62.7923 11.759L56.7746 11.2974C55.4868 14.195 55.4835 14.2031 54.1955 17.0999L58.5707 21.2574C58.5197 23.2538 58.494 24.2622 58.443 26.259L53.8616 30.1888C54.9998 33.1483 55.0026 33.156 56.1411 36.1155L62.1744 35.9616L65.6203 39.588L65.1587 45.6056L70.9613 48.1848L75.1188 43.8096L80.1203 43.9372L84.0501 48.5189L89.9768 46.2391L89.8229 40.2058L93.4493 36.76L99.4669 37.2215C100.755 34.3239 100.758 34.3158 102.046 31.419L97.6692 27.2596C97.7214 25.2635 97.7452 24.255 97.7969 22.258ZM82.3044 35.1371C80.1526 35.9646 77.8038 36.1356 75.5549 35.6283C73.3061 35.1209 71.2581 33.9581 69.6701 32.2869C68.0821 30.6157 67.0253 28.5111 66.6334 26.2392C66.2415 23.9674 66.532 21.6304 67.4683 19.5237C68.4046 17.417 69.9446 15.6352 71.8935 14.4037C73.8425 13.1723 76.1128 12.5464 78.4174 12.6052C80.7221 12.664 82.9575 13.4049 84.8411 14.7342C86.7247 16.0635 88.1717 17.9215 88.9993 20.0733C89.549 21.502 89.8118 23.025 89.7729 24.5554C89.7339 26.0857 89.3938 27.5934 88.7721 28.9923C88.1504 30.3912 87.2593 31.654 86.1495 32.7085C85.0398 33.763 83.7332 34.5885 82.3044 35.138V35.1371Z" fill="#FFC119"/>
<path d="M13.8955 37.038L8.17944 31.3219C8.0025 31.145 7.86214 30.9349 7.76638 30.7037C7.67062 30.4726 7.62134 30.2248 7.62134 29.9746C7.62134 29.7243 7.67062 29.4766 7.76638 29.2454C7.86214 29.0142 8.0025 28.8042 8.17944 28.6272L13.8955 22.9111L16.5902 25.6058L12.2212 29.9746L16.5902 34.3433L13.8955 37.038Z" fill="#88BF40"/>
<path d="M31.8331 37.038L29.1384 34.3433L33.5074 29.9746L29.1384 25.6058L31.8331 22.9111L37.5492 28.6272C37.7261 28.8042 37.8665 29.0142 37.9622 29.2454C38.058 29.4766 38.1073 29.7243 38.1073 29.9746C38.1073 30.2248 38.058 30.4726 37.9622 30.7037C37.8665 30.9349 37.7261 31.145 37.5492 31.3219L31.8331 37.038Z" fill="#88BF40"/>
<path d="M19.118 37.1533L22.9361 21.9126L26.6325 22.8386L22.8145 38.0793L19.118 37.1533Z" fill="#88BF40"/>
<path d="M7.62134 41.407H11.4321V45.2177H7.62134V41.407Z" fill="#88BF40"/>
<path d="M15.2428 41.407H51.4447V45.2177H15.2428V41.407Z" fill="#88BF40"/>
<path d="M7.62134 49.0286H11.4321V52.8393H7.62134V49.0286Z" fill="#88BF40"/>
<path d="M15.2428 49.0286H57.1608V52.8393H15.2428V49.0286Z" fill="#88BF40"/>
<path d="M7.62134 56.6497H11.4321V60.4604H7.62134V56.6497Z" fill="#88BF40"/>
<path d="M15.2428 56.6497H62.8769V60.4604H15.2428V56.6497Z" fill="#88BF40"/>
<path d="M7.62134 64.2712H11.4321V68.082H7.62134V64.2712Z" fill="#88BF40"/>
<path d="M15.2428 64.2712H72.4037V68.082H15.2428V64.2712Z" fill="#88BF40"/>
<path d="M76.2145 64.2712H80.0252V68.082H76.2145V64.2712Z" fill="#88BF40"/>
<path d="M74.3091 56.6497H78.1198V60.4604H74.3091V56.6497Z" fill="#88BF40"/>
<path d="M66.6877 56.6497H70.4985V60.4604H66.6877V56.6497Z" fill="#88BF40"/>
<path d="M83.8361 64.2712H87.6468V68.082H83.8361V64.2712Z" fill="#88BF40"/>
</svg>
