<svg width="110" height="105" viewBox="0 0 110 105" fill="none" xmlns="http://www.w3.org/2000/svg">
<path d="M110 8.63177C110 12.58 98.6582 17.2797 98.6582 17.2797L93.1792 62.8416C83.2859 61.3432 69.8292 60.4224 55.0002 60.4224C40.2819 60.4224 26.9137 61.3276 17.0425 62.8083L12.1612 21.499C12.1612 21.499 2.80199 13.6174 0.41207 9.9522C0.0556445 9.40586 0 8.9506 0 8.63177C0 3.86439 24.625 0 55 0C85.375 0 110 3.86439 110 8.63177Z" fill="#A2AEE6"/>
<path d="M110 8.63184V69.0543C110 71.4328 103.867 73.5881 93.9444 75.149C93.5422 75.2121 93.1791 74.8997 93.1791 74.4928V15.4138C93.1791 15.0862 93.4195 14.8082 93.7433 14.7579C103.784 13.1947 110 11.0263 110 8.63184Z" fill="#BEC6ED"/>
<path d="M17.0423 15.448V74.5272C17.0423 74.9339 16.6798 75.2461 16.2779 75.1836C6.22596 73.6199 0 71.4509 0 69.0543V8.63184C0 11.0441 6.30824 13.2261 16.477 14.7918C16.8012 14.8419 17.0423 15.1199 17.0423 15.448Z" fill="#BEC6ED"/>
<path d="M82.379 55.0326L27.226 55.0185C27.1951 55.0185 26.6479 55.527 26.6171 55.5257C25.4331 55.4774 24.4571 54.5024 24.4571 53.3064V45.9759C24.4571 44.7799 25.4022 43.8047 26.5862 43.7563C26.6167 43.7551 28.5372 44.6488 28.5681 44.6488L82.4496 44.437C82.4806 44.437 83.3838 43.7553 83.4143 43.7566C84.5983 43.8049 85.5434 44.7801 85.5434 45.9761V53.3066C85.5434 54.5024 84.5983 55.4778 83.4143 55.5261C83.3836 55.527 82.4097 55.0326 82.379 55.0326Z" fill="#F5F8F9"/>
<path d="M83.4143 43.7566V55.5247C83.3834 55.5268 83.3524 55.5268 83.3213 55.5268H73.0118V43.7545H83.3213C83.3522 43.7543 83.3831 43.7543 83.4143 43.7566Z" fill="#E8EDF2"/>
<path d="M26.6789 43.7542H36.9884V55.5265L26.6171 55.5254C26.5861 55.5254 26.648 55.5276 26.6171 55.5254L26.5861 43.7563C26.6171 43.7541 26.648 43.7542 26.6789 43.7542Z" fill="#E8EDF2"/>
<path d="M89.8044 95.6843C88.9764 90.9227 85.5361 87.0338 80.9109 85.6311L70.2341 83.0377L68.0766 81.5873L63.9428 80.2849H46.1423L30.9978 87.0312C26.3595 88.4264 21.0224 90.9321 20.1924 95.704L44.0261 102.854L48.0239 104.737H61.9765L66.6554 103.476L89.8044 95.6843Z" fill="#F5F8F9"/>
<path d="M48.2673 83.5782L48.6768 80.2849H46.1425L29.1136 85.6433C24.4745 87.0377 21.0219 90.933 20.1918 95.7049L24.3926 97.3671V97.3667L43.0262 104.737H48.0239L46.946 102.681C44.3469 97.7244 43.1046 91.3681 42.5166 86.8303C42.4616 86.4052 42.7205 86.003 43.1296 85.8743L47.5016 84.4991C47.9133 84.3684 48.2143 84.0075 48.2673 83.5782Z" fill="#E8EDF2"/>
<path d="M64.4888 70.3229L64.3004 75.8607L65.4904 78.051L65.9242 81.4011C66.1474 83.3151 65.6243 85.2547 64.4158 86.7558C62.8805 88.6628 60.0639 90.6604 54.9998 90.6604C49.9364 90.6604 47.1198 88.6634 45.5845 86.7565C45.2395 86.3279 44.9501 85.8634 44.7183 85.374L45.4356 79.2887L45.5016 69.9082L64.4888 70.3229Z" fill="#FED2A4"/>
<path d="M65.4908 78.0513L64.4885 70.3225L45.503 69.9087L44.0775 81.4C43.9159 82.768 44.1372 84.149 44.7216 85.3729L47.5015 84.4987C47.9131 84.3681 48.2141 84.0074 48.2672 83.5779L48.5319 81.4454C48.6159 80.7678 49.2883 80.3267 49.9425 80.522C51.6314 81.026 53.3229 81.2849 54.9999 81.2849C58.486 81.2849 62.0314 80.1739 65.4908 78.0513Z" fill="#FFBD86"/>
<path d="M33.0985 46.3177C33.0985 30.3913 41.1983 19.9141 55.0001 19.9141C68.8019 19.9141 76.9017 30.3913 76.9017 46.3177C76.9017 55.5925 76.7215 59.4735 72.9355 64.7161C67.7135 71.9471 61.2085 76.8584 55.0001 76.8584C48.7918 76.8584 42.2867 71.9471 37.0647 64.7161C33.2785 59.4737 33.0985 55.5925 33.0985 46.3177Z" fill="#FED2A4"/>
<path d="M17.3745 103.954C16.9611 103.954 16.6483 103.58 16.7207 103.173L18.3204 95.7269C19.3332 89.8954 23.4846 85.2138 29.1518 83.5081L33.8986 82.3781C35.2426 81.974 36.6172 82.9175 36.7179 84.3175C36.8041 85.5141 38.1293 87.4462 38.1293 87.4462C38.7807 92.4794 40.1507 99.2532 43.0262 104.736H23.0779L17.3745 103.954Z" fill="#BBF49B"/>
<path d="M38.1282 87.4465L30.3885 89.8811C27.354 90.7929 25.1253 93.2918 24.5632 96.4081L23.0782 104.737H16.5908C16.1792 104.737 15.8648 104.363 15.9379 103.955L17.4916 95.235C18.5053 89.4031 22.6552 84.7219 28.3234 83.0156L34.8592 81.0502C36.205 80.6452 37.5793 81.5903 37.6788 82.9889C37.7654 84.1865 37.9048 85.7136 38.1282 87.4465Z" fill="#9BE69D"/>
<path d="M89.8038 95.6845L66.9739 104.737H61.9762L63.0541 102.681C66.6241 95.8727 67.6356 86.4198 67.9055 82.6727C67.9321 82.3008 67.9895 81.9379 68.0758 81.5881L80.9106 85.6317C85.5366 87.0327 88.976 90.9214 89.8038 95.6845Z" fill="#E8EDF2"/>
<path d="M93.4086 104.737C93.8219 104.737 94.1347 104.363 94.0623 103.956L92.5086 95.2344C91.4958 89.4029 87.3444 84.7212 81.6773 83.0155L75.14 81.0499C73.7959 80.6458 72.4214 81.5894 72.3206 82.9893C71.9846 87.6607 70.8397 97.3648 66.974 104.737H93.4086Z" fill="#BBF49B"/>
<path d="M80.0672 42.0312C79.4403 43.8223 77.9356 45.658 76.9011 47.1524C76.8626 46.8684 76.6044 46.7464 71.489 44.7567C69.0198 43.7974 74.6828 40.8508 70.3823 40.3301C69.7829 40.2572 67.2836 40.7726 59.3159 38.5595C52.676 37.2316 49.3063 33.3304 46.1243 29.8212C45.5631 29.2024 44.5503 29.4108 44.2661 30.1963C43.0619 33.5221 41.4875 36.2869 38.5599 38.0082C35.106 40.0392 33.0992 47.1524 33.0992 47.1524C31.111 42.5956 29.6795 39.2217 29.6795 34.609C29.6795 28.3789 32.718 21.9934 37.8356 20.3687C39.4061 19.8701 42.7081 20.0116 42.7081 20.0116C43.0353 20.1178 43.3646 20.2447 43.6948 20.3947C43.8669 20.4729 44.0678 20.4375 44.1999 20.3021C49.8026 14.5617 58.5304 12.2523 66.7276 15.1001C77.9381 18.9918 83.9108 31.0492 80.0672 42.0312Z" fill="#827E7C"/>
<path d="M33.8588 34.3277C33.8588 36.9372 34.255 39.6307 35.1601 42.0808C33.8255 44.5751 33.0995 47.1513 33.0995 47.1513C30.0054 43.8092 28.7681 38.94 28.7681 34.3275C28.7681 26.1849 35.2841 17.6032 42.7076 20.0114C37.6327 21.6781 33.8588 28.1305 33.8588 34.3277Z" fill="#726D6A"/>
<path d="M78.2129 42.7553V56.5276C78.2129 58.9811 76.2239 60.9703 73.7701 60.9703H63.4802C61.6196 60.9703 59.92 59.915 59.0948 58.2474L59.0473 58.1514C58.6653 57.3805 58.0833 56.7543 57.3814 56.3188C56.3918 55.705 55.1638 55.4708 53.934 55.7658C52.6059 56.0844 51.5112 57.0232 50.9054 58.2474C50.0802 59.915 48.3805 60.9703 46.52 60.9703H36.23C33.7765 60.9703 31.7873 58.9813 31.7873 56.5276V42.7553C31.7873 40.3017 33.7763 38.3125 36.23 38.3125H73.7706C76.2239 38.3125 78.2129 40.3015 78.2129 42.7553Z" fill="#F5F8F9"/>
<path d="M73.7705 62.63H63.4806C60.971 62.63 58.7205 61.2326 57.6074 58.9834L57.5599 58.8874C57.3234 58.4106 56.9592 58.0097 56.507 57.7294C55.8519 57.3231 55.0757 57.1989 54.3214 57.3798C53.5035 57.576 52.8009 58.1606 52.3934 58.9834C51.2803 61.2326 49.0298 62.63 46.5202 62.63H36.2302C32.8653 62.63 30.1278 59.8924 30.1278 56.5273V42.755C30.1278 39.3901 32.8653 36.6523 36.2302 36.6523H73.7708C77.1356 36.6523 79.8732 39.3899 79.8732 42.755V56.5273C79.8732 59.8924 77.1354 62.63 73.7705 62.63ZM55.0087 53.9773C56.1478 53.9773 57.2656 54.2932 58.2567 54.9081C59.2349 55.5146 60.0227 56.3812 60.5349 57.4138L60.5828 57.5109C61.1319 58.6206 62.2422 59.31 63.4806 59.31H73.7705C75.305 59.31 76.5532 58.0617 76.5532 56.5273V42.755C76.5532 41.2206 75.305 39.9723 73.7705 39.9723H36.23C34.6956 39.9723 33.4474 41.2206 33.4474 42.755V56.5273C33.4474 58.0617 34.6956 59.31 36.23 59.31H46.52C47.7583 59.31 48.8686 58.6206 49.4178 57.5109C50.2634 55.8027 51.7682 54.5781 53.5466 54.1514C54.0324 54.0349 54.5227 53.9773 55.0087 53.9773Z" fill="#8795DE"/>
<path d="M55.1108 69.4226C53.2062 69.4226 51.3014 68.7823 49.7119 67.5019C48.998 66.9267 48.8854 65.8817 49.4606 65.1678C50.0355 64.4539 51.0805 64.3411 51.7946 64.9167C53.7474 66.4895 56.4741 66.4895 58.4266 64.9167C59.1404 64.3413 60.1854 64.4541 60.7607 65.1678C61.3358 65.8817 61.2233 66.9267 60.5093 67.5019C58.9201 68.7823 57.0153 69.4226 55.1108 69.4226Z" fill="#FFBD86"/>
</svg>
