<svg width="110" height="98" viewBox="0 0 110 98" fill="none" xmlns="http://www.w3.org/2000/svg">
<path d="M12.7333 47.9703C16.2711 47.9703 19.1391 45.1023 19.1391 41.5645C19.1391 38.0267 16.2711 35.1587 12.7333 35.1587C9.19548 35.1587 6.32751 38.0267 6.32751 41.5645C6.32751 45.1023 9.19548 47.9703 12.7333 47.9703Z" fill="#407093"/>
<path d="M14.9632 35.5581C15.2212 36.2527 15.3626 37.0036 15.3626 37.788C15.3626 41.3258 12.4946 44.1938 8.95679 44.1938C8.17261 44.1938 7.42152 44.0522 6.72693 43.7944C7.6325 46.2326 9.97966 47.9703 12.7333 47.9703C16.2711 47.9703 19.1391 45.1023 19.1391 41.5645C19.1393 38.8108 17.4017 36.4637 14.9632 35.5581Z" fill="#2B4D66"/>
<path d="M48.5399 13.3912L49.5419 0.811667C49.5972 0.119441 50.3949 -0.239133 50.949 0.179382L55.1571 3.35563C56.2423 4.17462 57.0254 5.33026 57.384 6.64167L59.3268 13.7465L48.5399 13.3912Z" fill="#407093"/>
<path d="M50.759 3.35501C51.8442 4.17399 52.6273 5.32964 52.9859 6.64104L54.8887 13.5998L59.3266 13.7459L57.3837 6.64104C57.0251 5.32964 56.242 4.17399 55.1569 3.35501L50.9487 0.17876C50.3944 -0.239541 49.5967 0.119033 49.5417 0.811045L49.4197 2.34396L50.759 3.35501Z" fill="#2B4D66"/>
<path d="M90.8949 44.5678C89.9838 44.5678 89.2454 43.8294 89.2454 42.9182V38.0905C89.2454 37.1793 89.984 36.4409 90.8949 36.4409C91.8061 36.4409 92.5445 37.1793 92.5445 38.0905V42.9182C92.5445 43.8292 91.8059 44.5678 90.8949 44.5678Z" fill="#407093"/>
<path d="M97.6018 44.5678C96.6907 44.5678 95.9523 43.8294 95.9523 42.9182V38.0905C95.9523 37.1793 96.6909 36.4409 97.6018 36.4409C98.5128 36.4409 99.2514 37.1793 99.2514 38.0905V42.9182C99.2514 43.8292 98.5128 44.5678 97.6018 44.5678Z" fill="#407093"/>
<path d="M105.962 47.9701H89.241V43.1375C89.241 42.0695 90.1066 41.2039 91.1746 41.2039H104.029C105.097 41.2039 105.962 42.0695 105.962 43.1375V47.9701Z" fill="#407093"/>
<path d="M104.029 41.2039H101.33V41.7822C101.33 42.9447 100.387 43.8873 99.2245 43.8873H89.2407V47.9704H105.962V43.1377C105.962 42.0695 105.097 41.2039 104.029 41.2039Z" fill="#2B4D66"/>
<path d="M104.309 44.5678C103.397 44.5678 102.659 43.8294 102.659 42.9182V38.0905C102.659 37.1793 103.398 36.4409 104.309 36.4409C105.22 36.4409 105.958 37.1793 105.958 38.0905V42.9182C105.958 43.8292 105.22 44.5678 104.309 44.5678Z" fill="#2B4D66"/>
<path d="M107.126 50.1824V48.0303C107.126 47.4786 106.679 47.0312 106.127 47.0312H89.0762C88.5245 47.0312 88.0771 47.4786 88.0771 48.0303V50.1824C88.0771 51.3004 88.5365 52.3693 89.3475 53.1388L90.6684 54.392C91.4794 55.1616 91.9387 56.2304 91.9387 57.3485V63.7556C91.9387 64.8508 91.4979 65.8999 90.7156 66.6665L89.3005 68.0533C88.5182 68.8198 88.0774 69.8689 88.0774 70.9642V75.8261H91.9387H103.265H107.126V70.9642C107.126 69.8689 106.685 68.8198 105.903 68.0533L104.488 66.6665C103.706 65.8999 103.265 64.8508 103.265 63.7556V57.3485C103.265 56.2304 103.724 55.1616 104.535 54.392L105.856 53.1388C106.667 52.3693 107.126 51.3004 107.126 50.1824Z" fill="#407093"/>
<path d="M22.258 50.1824V48.0303C22.258 47.4786 21.8107 47.0312 21.259 47.0312H4.20789C3.65617 47.0312 3.20886 47.4786 3.20886 48.0303V50.1824C3.20886 51.3004 3.6682 52.3693 4.47923 53.1388L5.80009 54.392C6.61113 55.1616 7.07046 56.2304 7.07046 57.3485V63.7556C7.07046 64.8508 6.6296 65.8999 5.84736 66.6665L4.43218 68.0533C3.64994 68.8198 3.20908 69.8689 3.20908 70.9642V75.8261H7.07046H18.3966H22.258V70.9642C22.258 69.8689 21.8171 68.8198 21.0349 68.0533L19.6197 66.6665C18.8375 65.8999 18.3966 64.8508 18.3966 63.7556V57.3485C18.3966 56.2304 18.8559 55.1616 19.667 54.392L20.9878 53.1388C21.7986 52.3693 22.258 51.3004 22.258 50.1824Z" fill="#407093"/>
<path d="M104.535 54.392L105.856 53.1388C106.667 52.3693 107.126 51.3004 107.126 50.1824V48.0303C107.126 47.4786 106.679 47.0312 106.127 47.0312H100.379C100.931 47.0312 101.378 47.4786 101.378 48.0303V50.1824C101.378 51.3004 100.919 52.3693 100.108 53.1388L98.787 54.392C97.9759 55.1616 97.5166 56.2304 97.5166 57.3485V63.7556C97.5166 64.8508 97.9575 65.8999 98.7397 66.6665L100.155 68.0533C100.937 68.8198 101.378 69.8689 101.378 70.9642V75.8261H103.264H107.126V70.9642C107.126 69.8689 106.685 68.8198 105.903 68.0533L104.487 66.6665C103.705 65.8999 103.264 64.8508 103.264 63.7556V57.3485C103.265 56.2306 103.724 55.1616 104.535 54.392Z" fill="#2B4D66"/>
<path d="M19.6666 54.392L20.9875 53.1388C21.7985 52.3693 22.2578 51.3004 22.2578 50.1824V48.0303C22.2578 47.4786 21.8105 47.0312 21.2588 47.0312H15.5109C16.0626 47.0312 16.5099 47.4786 16.5099 48.0303V50.1824C16.5099 51.3004 16.0506 52.3693 15.2395 53.1388L13.9187 54.392C13.1077 55.1616 12.6483 56.2304 12.6483 57.3485V63.7556C12.6483 64.8508 13.0892 65.8999 13.8714 66.6665L15.2866 68.0533C16.0688 68.8198 16.5097 69.8689 16.5097 70.9642V75.8261H18.396H22.2574V70.9642C22.2574 69.8689 21.8166 68.8198 21.0343 68.0533L19.6191 66.6665C18.8369 65.8999 18.396 64.8508 18.396 63.7556V57.3485C18.3962 56.2306 18.8556 55.1616 19.6666 54.392Z" fill="#2B4D66"/>
<path d="M53.0174 41.5238C51.6141 43.885 49.8625 46.0211 47.8221 47.8602L44.1794 51.1432C40.0838 54.8345 37.2006 59.6783 35.909 65.0385L31.7866 82.1454H82.0862L79.4355 76.799C77.0883 72.0649 76.2925 66.7117 77.1609 61.4996L80.268 42.8526C82.7396 28.0196 73.2901 13.8098 58.6556 10.3526L54.4019 9.34775C52.7192 8.95029 50.9481 9.38728 49.6435 10.5221L26.6976 30.4813C25.8846 31.1883 25.5761 32.3145 25.9151 33.3372L27.7404 38.8443C28.9062 42.3615 32.4812 44.3621 36.0059 43.5163C39.5306 42.6704 41.0614 40.4548 41.3503 38.3014V38.1108C41.3503 35.2631 44.0557 33.1928 46.8044 33.9373L51.8115 35.2931C52.982 35.61 54.178 35.6857 55.3373 35.5415C55.4942 35.5219 55.6216 35.668 55.5739 35.8186C54.9487 37.7931 54.0964 39.7086 53.0174 41.5238Z" fill="#407093"/>
<path d="M79.4358 76.7985C77.0886 72.0644 76.2928 66.7112 77.1612 61.4991L80.2683 42.8521C82.7399 28.0191 73.2904 13.8093 58.6559 10.3521L54.4022 9.34726C52.7195 8.9498 50.9484 9.38679 49.6438 10.5216L49.5349 10.6163C63.5825 14.4814 72.5361 28.3689 70.1227 42.8524L67.0157 61.4993C66.1473 66.7114 66.9431 72.0647 69.2902 76.7987L71.941 82.1451H82.0865L79.4358 76.7985Z" fill="#2B4D66"/>
<path d="M13.75 73.6162H2.19957C0.984844 73.6162 0 74.601 0 75.8158V87.0111L1.09979 90.6733H13.75V73.6162Z" fill="#2B4D66"/>
<path d="M13.75 73.6162H27.5V90.6733H13.75V73.6162Z" fill="#DAE7EF"/>
<path d="M27.5 73.6162H41.25V90.6733H27.5V73.6162Z" fill="#2B4D66"/>
<path d="M41.25 73.6162H55V90.6733H41.25V73.6162Z" fill="#DAE7EF"/>
<path d="M55 73.6162H68.75V90.6733H55V73.6162Z" fill="#2B4D66"/>
<path d="M68.75 73.6162H82.5V90.6733H68.75V73.6162Z" fill="#DAE7EF"/>
<path d="M82.5 73.6162H96.25V90.6733H82.5V73.6162Z" fill="#2B4D66"/>
<path d="M107.8 73.6162H96.25V90.6733H108.9L110 87.0111V75.8158C110 74.601 109.015 73.6162 107.8 73.6162Z" fill="#DAE7EF"/>
<path d="M107.8 73.6162H104.319V89.4137C104.319 89.8827 104.171 90.3164 103.921 90.6735H108.9L110 87.0111V75.8158C110 74.601 109.015 73.6162 107.8 73.6162Z" fill="#C1D5E4"/>
<path d="M107.852 97.5968H2.14844C0.961856 97.5968 0 96.6349 0 95.4483V87.011H110V95.4483C110 96.6349 109.038 97.5968 107.852 97.5968Z" fill="#C67D66"/>
<path d="M104.319 87.011V89.4647C104.319 90.6513 103.357 91.6132 102.17 91.6132H0V95.4485C0 96.6351 0.961856 97.597 2.14844 97.597H107.852C109.038 97.597 110 96.6351 110 95.4485V87.0112H104.319V87.011Z" fill="#BE694F"/>
</svg>
