<svg width="401" height="89" viewBox="0 0 401 89" fill="none" xmlns="http://www.w3.org/2000/svg">
<path d="M340.445 29.1719H344.784V55.7651H340.445V29.1719ZM366.619 29.1719V33.3583H359.272V55.7651H354.91V33.3583H347.563V29.1719H366.619Z" fill="#F8F7F2"/>
<path d="M225.441 22.6032C224.771 22.6032 224.18 22.4533 223.667 22.1533C223.154 21.8449 222.749 21.425 222.451 20.8937C222.162 20.3539 222.017 19.7369 222.017 19.0429C222.017 18.3402 222.162 17.7233 222.451 17.192C222.749 16.6522 223.154 16.2323 223.667 15.9324C224.18 15.6239 224.771 15.4697 225.441 15.4697C226.103 15.4697 226.69 15.6239 227.203 15.9324C227.716 16.2323 228.117 16.6522 228.406 17.192C228.704 17.7233 228.853 18.3402 228.853 19.0429C228.853 19.7369 228.708 20.3539 228.419 20.8937C228.129 21.425 227.728 21.8449 227.215 22.1533C226.702 22.4533 226.111 22.6032 225.441 22.6032ZM225.441 21.4464C225.871 21.4464 226.252 21.3436 226.583 21.1379C226.913 20.9323 227.17 20.6495 227.352 20.2896C227.542 19.9297 227.637 19.5141 227.637 19.0429C227.637 18.5716 227.542 18.156 227.352 17.7961C227.17 17.4277 226.913 17.1406 226.583 16.9349C226.252 16.7293 225.871 16.6265 225.441 16.6265C225.011 16.6265 224.631 16.7293 224.3 16.9349C223.969 17.1406 223.708 17.4277 223.518 17.7961C223.328 18.156 223.233 18.5716 223.233 19.0429C223.233 19.5141 223.328 19.9297 223.518 20.2896C223.708 20.6495 223.969 20.9323 224.3 21.1379C224.631 21.3436 225.011 21.4464 225.441 21.4464ZM230.922 19.2871L230.935 17.8347C230.943 16.8236 231.212 15.8981 231.741 15.0584C232.279 14.2186 233.11 13.5374 234.235 13.0147L236.555 11.9479C236.72 11.8794 236.869 11.8708 237.001 11.9222C237.134 11.9651 237.229 12.0636 237.287 12.2178C237.345 12.3806 237.357 12.5306 237.324 12.6677C237.299 12.7962 237.179 12.9119 236.964 13.0147L234.446 14.2101C233.652 14.5871 233.052 15.0627 232.647 15.6368C232.242 16.2023 232.002 16.845 231.927 17.5648C232.184 17.0763 232.539 16.6907 232.994 16.408C233.457 16.1252 233.987 15.9838 234.582 15.9838C235.178 15.9838 235.703 16.1252 236.158 16.408C236.621 16.6907 236.981 17.0806 237.237 17.5776C237.502 18.066 237.634 18.6359 237.634 19.2871C237.634 19.9297 237.494 20.5038 237.212 21.0094C236.931 21.5064 236.542 21.8963 236.046 22.179C235.55 22.4618 234.979 22.6032 234.334 22.6032C233.672 22.6032 233.085 22.4618 232.572 22.179C232.06 21.8963 231.658 21.5064 231.369 21.0094C231.079 20.5038 230.931 19.9297 230.922 19.2871ZM234.334 21.4464C234.748 21.4464 235.107 21.3564 235.413 21.1765C235.728 20.988 235.972 20.7309 236.145 20.4053C236.327 20.0797 236.418 19.7069 236.418 19.2871C236.418 18.8672 236.327 18.4987 236.145 18.1817C235.972 17.8561 235.728 17.6033 235.413 17.4234C235.107 17.2349 234.748 17.1406 234.334 17.1406C233.904 17.1406 233.524 17.2349 233.193 17.4234C232.862 17.6033 232.601 17.8561 232.411 18.1817C232.229 18.4987 232.138 18.8672 232.138 19.2871C232.138 19.7069 232.229 20.0797 232.411 20.4053C232.601 20.7309 232.862 20.988 233.193 21.1765C233.524 21.3564 233.904 21.4464 234.334 21.4464ZM240.649 25.5594C240.467 25.5594 240.314 25.4952 240.189 25.3666C240.074 25.2467 240.016 25.0924 240.016 24.9039V19.0429C240.024 18.3659 240.177 17.7576 240.475 17.2177C240.773 16.6779 241.178 16.2537 241.691 15.9453C242.203 15.6282 242.782 15.4697 243.428 15.4697C244.081 15.4697 244.664 15.6282 245.177 15.9453C245.69 16.2537 246.095 16.6779 246.393 17.2177C246.699 17.7576 246.852 18.3659 246.852 19.0429C246.852 19.7198 246.711 20.3282 246.43 20.868C246.157 21.3993 245.781 21.8234 245.301 22.1405C244.821 22.449 244.279 22.6032 243.676 22.6032C243.188 22.6032 242.737 22.5004 242.323 22.2947C241.918 22.0805 241.571 21.7934 241.281 21.4336V24.9039C241.281 25.0924 241.223 25.2467 241.108 25.3666C240.992 25.4952 240.839 25.5594 240.649 25.5594ZM243.428 21.4464C243.849 21.4464 244.226 21.3436 244.557 21.1379C244.887 20.9237 245.148 20.6367 245.338 20.2768C245.537 19.9083 245.636 19.497 245.636 19.0429C245.636 18.5802 245.537 18.1689 245.338 17.809C245.148 17.4405 244.887 17.1535 244.557 16.9478C244.226 16.7336 243.849 16.6265 243.428 16.6265C243.014 16.6265 242.638 16.7336 242.299 16.9478C241.968 17.1535 241.707 17.4405 241.517 17.809C241.327 18.1689 241.232 18.5802 241.232 19.0429C241.232 19.497 241.327 19.9083 241.517 20.2768C241.707 20.6367 241.968 20.9237 242.299 21.1379C242.638 21.3436 243.014 21.4464 243.428 21.4464ZM252.064 22.6032C251.46 22.6032 250.918 22.449 250.439 22.1405C249.959 21.8234 249.578 21.3993 249.297 20.868C249.024 20.3282 248.888 19.7198 248.888 19.0429C248.888 18.3659 249.037 17.7576 249.335 17.2177C249.641 16.6779 250.05 16.2537 250.563 15.9453C251.084 15.6282 251.667 15.4697 252.312 15.4697C252.957 15.4697 253.536 15.6282 254.049 15.9453C254.562 16.2537 254.967 16.6779 255.265 17.2177C255.571 17.7576 255.724 18.3659 255.724 19.0429V21.9091C255.724 22.0976 255.662 22.2562 255.538 22.3847C255.422 22.5047 255.273 22.5646 255.091 22.5646C254.909 22.5646 254.756 22.5047 254.632 22.3847C254.516 22.2562 254.458 22.0976 254.458 21.9091V21.4336C254.169 21.7934 253.817 22.0805 253.404 22.2947C252.998 22.5004 252.552 22.6032 252.064 22.6032ZM252.312 21.4464C252.734 21.4464 253.11 21.3436 253.441 21.1379C253.772 20.9237 254.032 20.6367 254.223 20.2768C254.413 19.9083 254.508 19.497 254.508 19.0429C254.508 18.5802 254.413 18.1689 254.223 17.809C254.032 17.4405 253.772 17.1535 253.441 16.9478C253.11 16.7336 252.734 16.6265 252.312 16.6265C251.898 16.6265 251.522 16.7336 251.183 16.9478C250.852 17.1535 250.588 17.4405 250.389 17.809C250.199 18.1689 250.104 18.5802 250.104 19.0429C250.104 19.497 250.199 19.9083 250.389 20.2768C250.588 20.6367 250.852 20.9237 251.183 21.1379C251.522 21.3436 251.898 21.4464 252.312 21.4464ZM260.423 22.6546C259.828 22.6546 259.299 22.5603 258.835 22.3718C258.381 22.1833 258.008 21.952 257.719 21.6778C257.587 21.5492 257.52 21.3993 257.52 21.2279C257.52 21.048 257.59 20.9023 257.731 20.7909C257.855 20.6881 258.004 20.6452 258.178 20.6624C258.36 20.6709 258.513 20.7352 258.637 20.8552C258.835 21.0351 259.083 21.1893 259.381 21.3179C259.679 21.4379 260.022 21.4978 260.411 21.4978C260.866 21.4978 261.226 21.3993 261.49 21.2022C261.763 20.9966 261.9 20.7352 261.9 20.4182C261.9 20.1354 261.8 19.9126 261.602 19.7498C261.412 19.5784 261.172 19.4884 260.882 19.4799H260.175C259.993 19.4799 259.84 19.4285 259.716 19.3256C259.592 19.2228 259.53 19.0986 259.53 18.9529C259.53 18.8072 259.592 18.6873 259.716 18.593C259.84 18.4987 259.993 18.4516 260.175 18.4516H260.87C261.143 18.4345 261.346 18.3402 261.478 18.1689C261.619 17.9975 261.689 17.7833 261.689 17.5262C261.689 17.2434 261.573 17.0206 261.341 16.8578C261.11 16.695 260.775 16.6136 260.337 16.6136C259.6 16.6136 259.038 16.815 258.649 17.2177C258.517 17.3548 258.372 17.4319 258.215 17.4491C258.066 17.4576 257.921 17.4062 257.781 17.2948C257.673 17.2092 257.624 17.0849 257.632 16.9221C257.649 16.7593 257.719 16.6093 257.843 16.4722C258.108 16.1723 258.463 15.9281 258.91 15.7396C259.356 15.5511 259.824 15.4568 260.312 15.4568C260.816 15.4568 261.263 15.5468 261.652 15.7268C262.04 15.9067 262.346 16.1466 262.57 16.4465C262.793 16.7464 262.905 17.0763 262.905 17.4362C262.905 17.8133 262.789 18.1303 262.557 18.3874C262.326 18.6359 262.04 18.803 261.701 18.8886C262.115 18.9743 262.454 19.1628 262.719 19.4542C262.983 19.7455 263.116 20.0883 263.116 20.4824C263.116 20.8937 262.996 21.2622 262.756 21.5878C262.524 21.9134 262.206 22.1747 261.8 22.3718C261.395 22.5603 260.936 22.6546 260.423 22.6546ZM268.243 22.6032C267.573 22.6032 266.982 22.4533 266.469 22.1533C265.956 21.8449 265.551 21.425 265.253 20.8937C264.964 20.3539 264.819 19.7369 264.819 19.0429C264.819 18.3402 264.964 17.7233 265.253 17.192C265.551 16.6522 265.956 16.2323 266.469 15.9324C266.982 15.6239 267.573 15.4697 268.243 15.4697C268.905 15.4697 269.492 15.6239 270.005 15.9324C270.518 16.2323 270.919 16.6522 271.208 17.192C271.506 17.7233 271.655 18.3402 271.655 19.0429C271.655 19.7369 271.51 20.3539 271.221 20.8937C270.931 21.425 270.53 21.8449 270.017 22.1533C269.505 22.4533 268.913 22.6032 268.243 22.6032ZM268.243 21.4464C268.673 21.4464 269.054 21.3436 269.384 21.1379C269.715 20.9323 269.972 20.6495 270.154 20.2896C270.344 19.9297 270.439 19.5141 270.439 19.0429C270.439 18.5716 270.344 18.156 270.154 17.7961C269.972 17.4277 269.715 17.1406 269.384 16.9349C269.054 16.7293 268.673 16.6265 268.243 16.6265C267.813 16.6265 267.433 16.7293 267.102 16.9349C266.771 17.1406 266.51 17.4277 266.32 17.7961C266.13 18.156 266.035 18.5716 266.035 19.0429C266.035 19.5141 266.13 19.9297 266.32 20.2896C266.51 20.6495 266.771 20.9323 267.102 21.1379C267.433 21.3436 267.813 21.4464 268.243 21.4464ZM274.667 22.5518C274.485 22.5518 274.332 22.4918 274.208 22.3718C274.092 22.2433 274.035 22.0848 274.035 21.8963V16.1638C274.051 15.9753 274.117 15.821 274.233 15.701C274.349 15.5811 274.494 15.5211 274.667 15.5211H274.68H277.781C278.17 15.5211 278.513 15.6025 278.811 15.7653C279.117 15.9195 279.357 16.1381 279.531 16.4208C279.704 16.695 279.791 17.0121 279.791 17.372C279.791 17.7061 279.704 18.0061 279.531 18.2717C279.365 18.5287 279.142 18.7258 278.861 18.8629C279.224 19.0257 279.51 19.2528 279.717 19.5441C279.932 19.8355 280.039 20.1739 280.039 20.5595C280.039 20.9451 279.94 21.2879 279.741 21.5878C279.543 21.8877 279.266 22.1233 278.91 22.2947C278.563 22.4661 278.162 22.5518 277.707 22.5518H274.667ZM277.781 16.7293H275.3V18.3874H277.905C278.112 18.3874 278.281 18.3059 278.414 18.1431C278.546 17.9718 278.613 17.7576 278.613 17.5005C278.613 17.2777 278.534 17.0935 278.377 16.9478C278.219 16.8021 278.021 16.7293 277.781 16.7293ZM275.3 21.3307H277.707C278.038 21.3307 278.306 21.2493 278.513 21.0865C278.72 20.9151 278.823 20.6966 278.823 20.431C278.823 20.1482 278.72 19.9169 278.513 19.7369C278.306 19.557 278.038 19.467 277.707 19.467H275.3V21.3307ZM284.919 22.6032C284.316 22.6032 283.774 22.449 283.294 22.1405C282.815 21.8234 282.434 21.3993 282.153 20.868C281.88 20.3282 281.743 19.7198 281.743 19.0429C281.743 18.3659 281.892 17.7576 282.19 17.2177C282.496 16.6779 282.905 16.2537 283.418 15.9453C283.939 15.6282 284.522 15.4697 285.168 15.4697C285.813 15.4697 286.392 15.6282 286.904 15.9453C287.417 16.2537 287.823 16.6779 288.12 17.2177C288.426 17.7576 288.579 18.3659 288.579 19.0429V21.9091C288.579 22.0976 288.517 22.2562 288.393 22.3847C288.277 22.5047 288.128 22.5646 287.947 22.5646C287.765 22.5646 287.612 22.5047 287.488 22.3847C287.372 22.2562 287.314 22.0976 287.314 21.9091V21.4336C287.024 21.7934 286.673 22.0805 286.259 22.2947C285.854 22.5004 285.408 22.6032 284.919 22.6032ZM285.168 21.4464C285.589 21.4464 285.966 21.3436 286.297 21.1379C286.627 20.9237 286.888 20.6367 287.078 20.2768C287.268 19.9083 287.363 19.497 287.363 19.0429C287.363 18.5802 287.268 18.1689 287.078 17.809C286.888 17.4405 286.627 17.1535 286.297 16.9478C285.966 16.7336 285.589 16.6265 285.168 16.6265C284.754 16.6265 284.378 16.7336 284.039 16.9478C283.708 17.1535 283.443 17.4405 283.245 17.809C283.054 18.1689 282.959 18.5802 282.959 19.0429C282.959 19.497 283.054 19.9083 283.245 20.2768C283.443 20.6367 283.708 20.9237 284.039 21.1379C284.378 21.3436 284.754 21.4464 285.168 21.4464ZM291.567 22.5518C291.385 22.5518 291.236 22.4918 291.12 22.3718C291.013 22.2433 290.959 22.0848 290.959 21.8963V16.1766C290.959 15.9795 291.013 15.821 291.12 15.701C291.236 15.5811 291.385 15.5211 291.567 15.5211C291.757 15.5211 291.91 15.5811 292.026 15.701C292.142 15.821 292.2 15.9795 292.2 16.1766V18.3231H296.033V16.1766C296.033 15.9795 296.091 15.821 296.207 15.701C296.331 15.5811 296.484 15.5211 296.666 15.5211C296.856 15.5211 297.005 15.5811 297.113 15.701C297.22 15.821 297.274 15.9795 297.274 16.1766V21.8963C297.274 22.0848 297.22 22.2433 297.113 22.3718C297.005 22.4918 296.856 22.5518 296.666 22.5518C296.484 22.5518 296.331 22.4918 296.207 22.3718C296.091 22.2433 296.033 22.0848 296.033 21.8963V19.4799H292.2V21.8963C292.2 22.0848 292.142 22.2433 292.026 22.3718C291.91 22.4918 291.757 22.5518 291.567 22.5518ZM302.862 22.616C302.291 22.616 301.779 22.4918 301.324 22.2433C300.877 21.9862 300.522 21.6135 300.257 21.1251C300.001 20.6367 299.872 20.0369 299.872 19.3256V16.1638C299.872 15.9753 299.93 15.821 300.046 15.701C300.17 15.5725 300.323 15.5082 300.505 15.5082C300.687 15.5082 300.836 15.5725 300.952 15.701C301.076 15.821 301.138 15.9753 301.138 16.1638V19.3256C301.138 20.054 301.324 20.5895 301.696 20.9323C302.077 21.2665 302.548 21.4336 303.11 21.4336C303.466 21.4336 303.78 21.3607 304.053 21.2151C304.335 21.0694 304.558 20.8723 304.723 20.6238C304.889 20.3753 304.971 20.0968 304.971 19.7884V16.1638C304.971 15.9667 305.029 15.8082 305.145 15.6882C305.269 15.5682 305.422 15.5082 305.604 15.5082C305.794 15.5082 305.947 15.5682 306.063 15.6882C306.179 15.8082 306.237 15.9667 306.237 16.1638V21.8963C306.237 22.0848 306.179 22.2433 306.063 22.3718C305.947 22.4918 305.794 22.5518 305.604 22.5518C305.422 22.5518 305.269 22.4918 305.145 22.3718C305.029 22.2433 304.971 22.0848 304.971 21.8963V21.7549C304.715 22.0205 304.405 22.2305 304.041 22.3847C303.677 22.5389 303.284 22.616 302.862 22.616ZM312.15 22.6032C311.464 22.6032 310.852 22.4533 310.314 22.1533C309.785 21.8449 309.367 21.425 309.061 20.8937C308.763 20.3539 308.614 19.7369 308.614 19.0429C308.614 18.3402 308.755 17.7233 309.036 17.192C309.326 16.6522 309.723 16.2323 310.227 15.9324C310.732 15.6239 311.311 15.4697 311.964 15.4697C312.609 15.4697 313.163 15.6196 313.627 15.9195C314.09 16.2109 314.441 16.6179 314.681 17.1406C314.929 17.6547 315.053 18.2503 315.053 18.9272C315.053 19.09 315 19.2271 314.892 19.3385C314.784 19.4413 314.648 19.4927 314.483 19.4927H309.768C309.859 20.084 310.12 20.5681 310.55 20.9451C310.988 21.3136 311.522 21.4978 312.15 21.4978C312.407 21.4978 312.667 21.4507 312.932 21.3564C313.205 21.2536 313.424 21.1379 313.589 21.0094C313.713 20.9151 313.846 20.868 313.986 20.868C314.135 20.8595 314.263 20.9023 314.371 20.9965C314.511 21.1251 314.586 21.2665 314.594 21.4207C314.603 21.5749 314.536 21.7078 314.396 21.8192C314.114 22.0505 313.763 22.239 313.341 22.3847C312.928 22.5304 312.531 22.6032 312.15 22.6032ZM311.964 16.5751C311.352 16.5751 310.86 16.7507 310.488 17.102C310.116 17.4534 309.88 17.9075 309.781 18.4645H313.912C313.838 17.9161 313.635 17.4662 313.304 17.1149C312.973 16.755 312.526 16.5751 311.964 16.5751Z" fill="#F8F7F2"/>
<path d="M327.326 22.5516C327.127 22.5516 326.96 22.4815 326.825 22.3412C326.69 22.201 326.622 22.0281 326.622 21.8224V12.3298C326.622 12.1148 326.69 11.9419 326.825 11.811C326.96 11.6708 327.127 11.6007 327.326 11.6007C327.533 11.6007 327.7 11.6708 327.827 11.811C327.962 11.9419 328.03 12.1148 328.03 12.3298V16.354H334.31V12.3298C334.31 12.1148 334.377 11.9419 334.513 11.811C334.648 11.6708 334.815 11.6007 335.013 11.6007C335.221 11.6007 335.388 11.6708 335.514 11.811C335.64 11.9419 335.704 12.1148 335.704 12.3298V21.8224C335.704 22.0281 335.64 22.201 335.514 22.3412C335.388 22.4815 335.221 22.5516 335.013 22.5516C334.815 22.5516 334.648 22.4815 334.513 22.3412C334.377 22.201 334.31 22.0281 334.31 21.8224V17.644H328.03V21.8224C328.03 22.0281 327.962 22.201 327.827 22.3412C327.7 22.4815 327.533 22.5516 327.326 22.5516ZM344.109 22.6918C343.315 22.6918 342.589 22.5562 341.93 22.2852C341.272 22.0047 340.703 21.6168 340.225 21.1214C339.756 20.6166 339.39 20.023 339.129 19.3406C338.867 18.6489 338.736 17.8917 338.736 17.0691C338.736 16.2465 338.867 15.494 339.129 14.8116C339.39 14.1292 339.756 13.5403 340.225 13.0449C340.703 12.5401 341.272 12.1522 341.93 11.8811C342.589 11.6007 343.315 11.4604 344.109 11.4604C344.903 11.4604 345.625 11.6007 346.275 11.8811C346.934 12.1522 347.502 12.5401 347.98 13.0449C348.458 13.5403 348.828 14.1292 349.09 14.8116C349.352 15.494 349.482 16.2465 349.482 17.0691C349.482 17.8917 349.352 18.6489 349.09 19.3406C348.828 20.023 348.458 20.6166 347.98 21.1214C347.502 21.6168 346.934 22.0047 346.275 22.2852C345.625 22.5562 344.903 22.6918 344.109 22.6918ZM344.109 21.3738C344.894 21.3738 345.589 21.1868 346.194 20.8129C346.798 20.4296 347.272 19.9155 347.615 19.2705C347.958 18.6162 348.129 17.8824 348.129 17.0691C348.129 16.2559 347.958 15.5267 347.615 14.8817C347.272 14.2274 346.798 13.7133 346.194 13.3394C345.589 12.9654 344.894 12.7785 344.109 12.7785C343.324 12.7785 342.63 12.9654 342.025 13.3394C341.421 13.7133 340.947 14.2274 340.604 14.8817C340.261 15.5267 340.09 16.2559 340.09 17.0691C340.09 17.8824 340.261 18.6162 340.604 19.2705C340.947 19.9155 341.421 20.4296 342.025 20.8129C342.63 21.1868 343.324 21.3738 344.109 21.3738ZM353.203 22.5516C353.004 22.5516 352.838 22.4815 352.702 22.3412C352.567 22.201 352.499 22.0281 352.499 21.8224V12.3298C352.499 12.1148 352.567 11.9419 352.702 11.811C352.838 11.6708 353.004 11.6007 353.203 11.6007H356.438C357.051 11.6007 357.588 11.7269 358.048 11.9793C358.517 12.2223 358.883 12.5635 359.145 13.0028C359.415 13.4422 359.551 13.947 359.551 14.5172C359.551 14.9752 359.429 15.3912 359.185 15.7651C358.951 16.1297 358.626 16.4194 358.211 16.6344C358.806 16.784 359.284 17.0785 359.645 17.5178C360.006 17.9571 360.187 18.532 360.187 19.2425C360.187 19.8875 360.038 20.4577 359.74 20.9531C359.451 21.4485 359.045 21.8411 358.522 22.1309C357.999 22.4114 357.399 22.5516 356.722 22.5516H353.203ZM353.907 16.1016H356.438C356.952 16.1016 357.372 15.9707 357.696 15.709C358.03 15.4473 358.197 15.05 358.197 14.5172C358.197 13.9843 358.03 13.5917 357.696 13.3394C357.372 13.0776 356.952 12.9467 356.438 12.9467H353.907V16.1016ZM353.907 21.2055H356.722C357.335 21.2055 357.841 21.0419 358.238 20.7147C358.635 20.3782 358.833 19.8875 358.833 19.2425C358.833 18.6442 358.635 18.1955 358.238 17.8964C357.841 17.5973 357.335 17.4477 356.722 17.4477H353.907V21.2055ZM367.713 22.6918C366.919 22.6918 366.193 22.5562 365.534 22.2852C364.876 22.0047 364.307 21.6168 363.829 21.1214C363.36 20.6166 362.994 20.023 362.733 19.3406C362.471 18.6489 362.34 17.8917 362.34 17.0691C362.34 16.2465 362.471 15.494 362.733 14.8116C362.994 14.1292 363.36 13.5403 363.829 13.0449C364.307 12.5401 364.876 12.1522 365.534 11.8811C366.193 11.6007 366.919 11.4604 367.713 11.4604C368.507 11.4604 369.229 11.6007 369.879 11.8811C370.537 12.1522 371.106 12.5401 371.584 13.0449C372.062 13.5403 372.432 14.1292 372.694 14.8116C372.956 15.494 373.086 16.2465 373.086 17.0691C373.086 17.8917 372.956 18.6489 372.694 19.3406C372.432 20.023 372.062 20.6166 371.584 21.1214C371.106 21.6168 370.537 22.0047 369.879 22.2852C369.229 22.5562 368.507 22.6918 367.713 22.6918ZM367.713 21.3738C368.498 21.3738 369.193 21.1868 369.798 20.8129C370.402 20.4296 370.876 19.9155 371.219 19.2705C371.562 18.6162 371.733 17.8824 371.733 17.0691C371.733 16.2559 371.562 15.5267 371.219 14.8817C370.876 14.2274 370.402 13.7133 369.798 13.3394C369.193 12.9654 368.498 12.7785 367.713 12.7785C366.928 12.7785 366.234 12.9654 365.629 13.3394C365.025 13.7133 364.551 14.2274 364.208 14.8817C363.865 15.5267 363.694 16.2559 363.694 17.0691C363.694 17.8824 363.865 18.6162 364.208 19.2705C364.551 19.9155 365.025 20.4296 365.629 20.8129C366.234 21.1868 366.928 21.3738 367.713 21.3738ZM376.807 22.5516C376.608 22.5516 376.442 22.4815 376.306 22.3412C376.171 22.201 376.103 22.0281 376.103 21.8224V12.3298C376.103 12.1148 376.171 11.9419 376.306 11.811C376.442 11.6708 376.608 11.6007 376.807 11.6007H382.397C382.604 11.6007 382.771 11.6661 382.897 11.797C383.024 11.9185 383.087 12.0821 383.087 12.2877C383.087 12.484 383.024 12.6429 382.897 12.7645C382.771 12.886 382.604 12.9467 382.397 12.9467H377.511V21.8224C377.511 22.0281 377.443 22.201 377.308 22.3412C377.172 22.4815 377.005 22.5516 376.807 22.5516ZM390.273 22.6918C389.479 22.6918 388.753 22.5562 388.094 22.2852C387.436 22.0047 386.867 21.6168 386.389 21.1214C385.92 20.6166 385.554 20.023 385.293 19.3406C385.031 18.6489 384.9 17.8917 384.9 17.0691C384.9 16.2465 385.031 15.494 385.293 14.8116C385.554 14.1292 385.92 13.5403 386.389 13.0449C386.867 12.5401 387.436 12.1522 388.094 11.8811C388.753 11.6007 389.479 11.4604 390.273 11.4604C391.067 11.4604 391.789 11.6007 392.439 11.8811C393.097 12.1522 393.666 12.5401 394.144 13.0449C394.622 13.5403 394.992 14.1292 395.254 14.8116C395.515 15.494 395.646 16.2465 395.646 17.0691C395.646 17.8917 395.515 18.6489 395.254 19.3406C394.992 20.023 394.622 20.6166 394.144 21.1214C393.666 21.6168 393.097 22.0047 392.439 22.2852C391.789 22.5562 391.067 22.6918 390.273 22.6918ZM390.273 21.3738C391.058 21.3738 391.753 21.1868 392.357 20.8129C392.962 20.4296 393.436 19.9155 393.779 19.2705C394.121 18.6162 394.293 17.8824 394.293 17.0691C394.293 16.2559 394.121 15.5267 393.779 14.8817C393.436 14.2274 392.962 13.7133 392.357 13.3394C391.753 12.9654 391.058 12.7785 390.273 12.7785C389.488 12.7785 388.793 12.9654 388.189 13.3394C387.584 13.7133 387.111 14.2274 386.768 14.8817C386.425 15.5267 386.254 16.2559 386.254 17.0691C386.254 17.8824 386.425 18.6162 386.768 19.2705C387.111 19.9155 387.584 20.4296 388.189 20.8129C388.793 21.1868 389.488 21.3738 390.273 21.3738Z" fill="#F8F7F2"/>
<path fill-rule="evenodd" clip-rule="evenodd" d="M230.698 29.1719H222.157V63.7338H230.698V60.3084H226.083V32.621H230.698V29.1719ZM248.767 55.789V37.1166V37.069H245.163C244.52 37.8063 243.854 38.6388 243.165 39.5666C242.477 40.518 241.788 41.4934 241.076 42.5401C240.387 43.5628 239.698 44.6094 239.01 45.7034C238.321 46.774 237.655 47.8204 237.012 48.8434V47.107C237.035 46.3458 237.058 45.4419 237.058 44.4429V41.0651C237.058 40.4489 237.064 39.8157 237.069 39.1682C237.075 38.4909 237.081 37.7981 237.081 37.0929H232.948V55.7651H236.622C236.817 55.4347 237.019 55.0865 237.23 54.722C237.566 54.142 237.926 53.5205 238.321 52.8632C238.535 52.5196 238.748 52.1735 238.964 51.825C239.419 51.0878 239.881 50.3397 240.364 49.5807L242.568 46.2269C243.303 45.1089 244.015 44.0859 244.704 43.1585C244.704 43.5864 244.704 44.2048 244.681 45.0613C244.681 45.8939 244.681 46.8929 244.658 48.0345C244.658 49.1764 244.658 50.4132 244.635 51.7453V55.789H248.767ZM264.495 55.789H268.673V37.1166H264.495V44.3953H257.722V37.1166H253.566V55.789H257.722V47.9869H264.495V55.789ZM288.396 51.8405C287.73 52.0546 287.041 52.1735 286.306 52.1972V40.7085C287.041 40.7321 287.73 40.851 288.396 41.0888C289.085 41.3269 289.682 41.6836 290.187 42.1594C290.669 42.6113 291.082 43.1821 291.38 43.8958C291.679 44.6094 291.817 45.4656 291.817 46.441C291.817 47.4161 291.679 48.2726 291.38 48.9859C291.082 49.6996 290.692 50.2943 290.187 50.7699C289.682 51.2457 289.085 51.6024 288.396 51.8405ZM282.22 62.4017H286.238H286.26V55.9079C287.592 55.8367 288.832 55.5749 290.003 55.1467C291.197 54.7187 292.253 54.124 293.148 53.3627C294.044 52.5778 294.733 51.6264 295.238 50.4845C295.789 49.3189 296.041 48.0108 296.041 46.5123C296.041 45.0374 295.766 43.7529 295.238 42.635C294.709 41.4934 293.998 40.518 293.102 39.7331C292.23 38.9482 291.174 38.3534 289.98 37.9255C288.809 37.4733 287.569 37.2355 286.26 37.1642V28.1016H282.243V37.1642C280.704 37.2831 279.35 37.5925 278.133 38.092C276.916 38.5675 275.906 39.2099 275.056 40.0185C274.23 40.8274 273.587 41.7788 273.127 42.8731C272.668 43.967 272.439 45.1802 272.439 46.5123C272.439 47.868 272.668 49.1051 273.127 50.223C273.61 51.341 274.276 52.3161 275.125 53.1486C275.974 53.9575 276.985 54.5995 278.179 55.0754C279.419 55.551 280.75 55.8367 282.22 55.9079V62.4017ZM315.557 55.789V37.1166V37.069H311.952C311.31 37.8063 310.644 38.6388 309.955 39.5666C309.266 40.518 308.577 41.4934 307.865 42.5401C307.176 43.5628 306.488 44.6094 305.799 45.7034C305.11 46.774 304.445 47.8204 303.802 48.8434V47.107C303.825 46.3458 303.847 45.4419 303.847 44.4429V41.0651C303.87 39.8044 303.87 38.4723 303.87 37.0929H299.784V55.7651H303.457C303.939 54.9089 304.49 53.9335 305.133 52.8632C305.349 52.5155 305.566 52.1653 305.784 51.8126C306.236 51.0794 306.696 50.3354 307.176 49.5807L309.381 46.2269C310.115 45.1089 310.827 44.0859 311.516 43.1585C311.516 43.5864 311.516 44.2048 311.493 45.0613C311.493 45.778 311.476 46.618 311.457 47.5661C311.453 47.7194 311.45 47.8756 311.447 48.0345V48.0356C311.447 49.1772 311.447 50.4136 311.424 51.7453V55.789H315.557ZM331.284 55.789H335.463V37.1166H331.284V44.3953H324.511V37.1166H320.333V55.789H324.511V47.9869H331.284V55.789ZM384.987 55.789V37.1166V37.069H381.451C380.808 37.8063 380.142 38.6388 379.453 39.5666C379.387 39.6582 379.321 39.75 379.254 39.8421C378.628 40.7065 377.984 41.5942 377.341 42.5401C376.652 43.5628 375.964 44.6094 375.275 45.7034C374.586 46.774 373.92 47.8204 373.277 48.8434V47.107C373.3 46.3458 373.3 45.4419 373.3 44.4429V41.0651C373.346 39.8048 373.346 38.4732 373.346 37.0943V37.0929H369.236V55.7651H372.933C373.415 54.9089 373.966 53.9335 374.609 52.8632C375.252 51.7929 375.918 50.6986 376.629 49.5807L378.833 46.2269C379.568 45.1089 380.28 44.0859 380.969 43.1585C380.969 43.4621 380.957 43.8616 380.942 44.374C380.936 44.5838 380.929 44.8125 380.923 45.0613C380.923 45.8939 380.923 46.8929 380.9 48.0345C380.9 49.0821 380.88 50.2096 380.86 51.4172L380.854 51.7453V55.789H384.987ZM387.306 60.3084V63.7338H395.846V29.1957H387.306V32.621H391.874V60.3084H387.306ZM282.197 40.7082C281.462 40.7322 280.773 40.8511 280.107 41.0889C279.419 41.3266 278.822 41.6836 278.317 42.1592C277.812 42.6111 277.421 43.1822 277.1 43.8958C276.801 44.6092 276.663 45.4657 276.663 46.4407C276.663 47.4161 276.801 48.2723 277.1 48.986C277.398 49.6996 277.812 50.2944 278.317 50.7699C278.822 51.2458 279.419 51.6025 280.107 51.8403C280.773 52.0544 281.462 52.1733 282.197 52.1972V48.3109V46.4527V40.7082Z" fill="#F8F7F2"/>
<path d="M305.642 78.3599C305.444 78.3599 305.277 78.2945 305.141 78.1636C305.015 78.0234 304.952 77.8505 304.952 77.6448V71.3912C304.952 71.1762 305.015 71.0032 305.141 70.8724C305.277 70.7415 305.444 70.6761 305.642 70.6761C305.85 70.6761 306.016 70.7415 306.143 70.8724C306.269 71.0032 306.332 71.1762 306.332 71.3912V71.5454C306.612 71.2556 306.95 71.0266 307.347 70.8583C307.744 70.6901 308.173 70.606 308.633 70.606C309.256 70.606 309.811 70.7462 310.298 71.0266C310.794 71.2977 311.182 71.6996 311.462 72.2325C311.75 72.7653 311.895 73.4196 311.895 74.1955V77.6448C311.895 77.8505 311.827 78.0234 311.692 78.1636C311.566 78.2945 311.403 78.3599 311.205 78.3599C311.006 78.3599 310.839 78.2945 310.704 78.1636C310.578 78.0234 310.514 77.8505 310.514 77.6448V74.1955C310.514 73.4009 310.307 72.8214 309.892 72.4568C309.486 72.0829 308.976 71.8959 308.362 71.8959C307.983 71.8959 307.641 71.9754 307.334 72.1343C307.027 72.2932 306.783 72.5082 306.603 72.7793C306.423 73.041 306.332 73.3449 306.332 73.6907V77.6448C306.332 77.8505 306.269 78.0234 306.143 78.1636C306.016 78.2945 305.85 78.3599 305.642 78.3599ZM319.496 78.402C318.765 78.402 318.12 78.2384 317.561 77.9112C317.001 77.5747 316.559 77.1167 316.235 76.5371C315.919 75.9482 315.761 75.2752 315.761 74.518C315.761 73.7515 315.919 73.0784 316.235 72.4989C316.559 71.91 317.001 71.4519 317.561 71.1248C318.12 70.7882 318.765 70.62 319.496 70.62C320.218 70.62 320.859 70.7882 321.418 71.1248C321.978 71.4519 322.415 71.91 322.731 72.4989C323.056 73.0784 323.218 73.7515 323.218 74.518C323.218 75.2752 323.06 75.9482 322.744 76.5371C322.429 77.1167 321.991 77.5747 321.432 77.9112C320.872 78.2384 320.227 78.402 319.496 78.402ZM319.496 77.14C319.965 77.14 320.381 77.0279 320.741 76.8035C321.102 76.5792 321.382 76.2707 321.581 75.8781C321.788 75.4855 321.892 75.0321 321.892 74.518C321.892 74.0039 321.788 73.5505 321.581 73.1579C321.382 72.7559 321.102 72.4428 320.741 72.2184C320.381 71.9941 319.965 71.8819 319.496 71.8819C319.027 71.8819 318.612 71.9941 318.251 72.2184C317.89 72.4428 317.606 72.7559 317.398 73.1579C317.191 73.5505 317.087 74.0039 317.087 74.518C317.087 75.0321 317.191 75.4855 317.398 75.8781C317.606 76.2707 317.89 76.5792 318.251 76.8035C318.612 77.0279 319.027 77.14 319.496 77.14ZM327.885 78.3599C327.686 78.3599 327.529 78.2945 327.411 78.1636C327.294 78.0234 327.235 77.8505 327.235 77.6448V71.3912C327.235 71.1762 327.294 71.0032 327.411 70.8724C327.529 70.7415 327.686 70.6761 327.885 70.6761C328.092 70.6761 328.259 70.7415 328.386 70.8724C328.521 71.0032 328.589 71.1762 328.589 71.3912V73.7328H329.617L332.067 70.9004C332.184 70.7695 332.347 70.6948 332.554 70.6761C332.771 70.6574 332.938 70.7041 333.055 70.8163C333.19 70.9472 333.267 71.0967 333.285 71.265C333.303 71.4239 333.254 71.5688 333.136 71.6996L330.687 74.4198L333.285 77.3083C333.402 77.4298 333.461 77.5747 333.461 77.743C333.461 77.9019 333.389 78.0468 333.245 78.1776C333.127 78.2898 332.96 78.3459 332.744 78.3459C332.536 78.3366 332.374 78.2711 332.257 78.1496L329.468 75.0508H328.589V77.6448C328.589 77.8505 328.521 78.0234 328.386 78.1636C328.259 78.2945 328.092 78.3599 327.885 78.3599ZM339.797 78.402C339.066 78.402 338.421 78.2384 337.862 77.9112C337.302 77.5747 336.86 77.1167 336.535 76.5371C336.219 75.9482 336.062 75.2752 336.062 74.518C336.062 73.7515 336.219 73.0784 336.535 72.4989C336.86 71.91 337.302 71.4519 337.862 71.1248C338.421 70.7882 339.066 70.62 339.797 70.62C340.519 70.62 341.159 70.7882 341.719 71.1248C342.278 71.4519 342.716 71.91 343.032 72.4989C343.357 73.0784 343.519 73.7515 343.519 74.518C343.519 75.2752 343.361 75.9482 343.045 76.5371C342.729 77.1167 342.292 77.5747 341.732 77.9112C341.173 78.2384 340.528 78.402 339.797 78.402ZM339.797 77.14C340.266 77.14 340.681 77.0279 341.042 76.8035C341.403 76.5792 341.683 76.2707 341.881 75.8781C342.089 75.4855 342.193 75.0321 342.193 74.518C342.193 74.0039 342.089 73.5505 341.881 73.1579C341.683 72.7559 341.403 72.4428 341.042 72.2184C340.681 71.9941 340.266 71.8819 339.797 71.8819C339.328 71.8819 338.913 71.9941 338.552 72.2184C338.191 72.4428 337.907 72.7559 337.699 73.1579C337.492 73.5505 337.388 74.0039 337.388 74.518C337.388 75.0321 337.492 75.4855 337.699 75.8781C337.907 76.2707 338.191 76.5792 338.552 76.8035C338.913 77.0279 339.328 77.14 339.797 77.14ZM350.311 70.6901C350.59 70.6901 350.798 70.8443 350.933 71.1528L353.721 77.4205C353.802 77.6074 353.811 77.7757 353.748 77.9253C353.685 78.0655 353.577 78.173 353.423 78.2478C353.026 78.4347 352.733 78.3412 352.544 77.9673L350.338 72.7793L348.064 77.9673C347.983 78.1449 347.861 78.2618 347.698 78.3179C347.545 78.3646 347.374 78.3412 347.184 78.2478C347.013 78.1636 346.891 78.0514 346.819 77.9112C346.756 77.771 346.769 77.6074 346.859 77.4205L349.661 71.1528C349.796 70.8443 350.013 70.6901 350.311 70.6901ZM360.92 78.402C360.171 78.402 359.504 78.2384 358.917 77.9112C358.34 77.5747 357.884 77.1167 357.55 76.5371C357.225 75.9482 357.063 75.2752 357.063 74.518C357.063 73.7515 357.216 73.0784 357.523 72.4989C357.839 71.91 358.272 71.4519 358.822 71.1248C359.373 70.7882 360.004 70.62 360.717 70.62C361.421 70.62 362.026 70.7836 362.531 71.1107C363.036 71.4286 363.42 71.8726 363.681 72.4428C363.952 73.0037 364.087 73.6533 364.087 74.3918C364.087 74.5694 364.029 74.719 363.911 74.8405C363.794 74.9527 363.645 75.0088 363.465 75.0088H358.322C358.421 75.6538 358.705 76.1819 359.174 76.5932C359.653 76.9952 360.235 77.1961 360.92 77.1961C361.2 77.1961 361.484 77.1447 361.773 77.0419C362.071 76.9297 362.31 76.8035 362.49 76.6633C362.626 76.5605 362.77 76.5091 362.923 76.5091C363.086 76.4997 363.226 76.5465 363.343 76.6493C363.496 76.7895 363.578 76.9437 363.587 77.112C363.596 77.2803 363.523 77.4252 363.37 77.5467C363.063 77.7991 362.68 78.0047 362.22 78.1636C361.768 78.3225 361.335 78.402 360.92 78.402ZM360.717 71.8258C360.05 71.8258 359.513 72.0175 359.107 72.4007C358.701 72.784 358.444 73.2794 358.335 73.887H362.842C362.761 73.2888 362.54 72.798 362.179 72.4147C361.818 72.0221 361.331 71.8258 360.717 71.8258ZM368.474 78.3459C368.275 78.3459 368.113 78.2805 367.986 78.1496C367.869 78.0094 367.81 77.8365 367.81 77.6308V71.3912C367.81 71.1762 367.869 71.0032 367.986 70.8724C368.113 70.7415 368.275 70.6761 368.474 70.6761C368.681 70.6761 368.848 70.7415 368.974 70.8724C369.101 71.0032 369.164 71.1762 369.164 71.3912V73.7328H373.346V71.3912C373.346 71.1762 373.409 71.0032 373.535 70.8724C373.671 70.7415 373.838 70.6761 374.036 70.6761C374.244 70.6761 374.406 70.7415 374.523 70.8724C374.641 71.0032 374.699 71.1762 374.699 71.3912V77.6308C374.699 77.8365 374.641 78.0094 374.523 78.1496C374.406 78.2805 374.244 78.3459 374.036 78.3459C373.838 78.3459 373.671 78.2805 373.535 78.1496C373.409 78.0094 373.346 77.8365 373.346 77.6308V74.9947H369.164V77.6308C369.164 77.8365 369.101 78.0094 368.974 78.1496C368.848 78.2805 368.681 78.3459 368.474 78.3459ZM382.217 78.416C381.594 78.416 381.035 78.2805 380.539 78.0094C380.051 77.729 379.663 77.3223 379.375 76.7895C379.095 76.2567 378.955 75.6023 378.955 74.8265V71.3771C378.955 71.1715 379.018 71.0032 379.145 70.8724C379.28 70.7322 379.447 70.662 379.645 70.662C379.844 70.662 380.006 70.7322 380.133 70.8724C380.268 71.0032 380.336 71.1715 380.336 71.3771V74.8265C380.336 75.621 380.539 76.2053 380.945 76.5792C381.36 76.9437 381.874 77.126 382.488 77.126C382.876 77.126 383.218 77.0466 383.516 76.8877C383.823 76.7287 384.067 76.5137 384.247 76.2427C384.428 75.9716 384.518 75.6678 384.518 75.3312V71.3771C384.518 71.1621 384.581 70.9892 384.707 70.8583C384.843 70.7275 385.01 70.662 385.208 70.662C385.416 70.662 385.582 70.7275 385.709 70.8583C385.835 70.9892 385.898 71.1621 385.898 71.3771V77.6308C385.898 77.8365 385.835 78.0094 385.709 78.1496C385.582 78.2805 385.416 78.3459 385.208 78.3459C385.01 78.3459 384.843 78.2805 384.707 78.1496C384.581 78.0094 384.518 77.8365 384.518 77.6308V77.4766C384.238 77.7663 383.9 77.9954 383.503 78.1636C383.106 78.3319 382.677 78.416 382.217 78.416ZM390.17 78.1776C390.026 78.0468 389.958 77.9019 389.967 77.743C389.976 77.5841 390.03 77.4392 390.13 77.3083L391.497 75.4574C391.027 75.3079 390.653 75.0415 390.373 74.6582C390.094 74.275 389.954 73.8169 389.954 73.2841C389.954 72.7887 390.067 72.3446 390.292 71.952C390.527 71.5594 390.842 71.251 391.239 71.0266C391.646 70.7929 392.11 70.6761 392.633 70.6761H394.975C395.182 70.6761 395.349 70.7415 395.476 70.8724C395.602 71.0032 395.665 71.1762 395.665 71.3912V77.6448C395.656 77.8505 395.588 78.0187 395.462 78.1496C395.345 78.2805 395.182 78.3459 394.975 78.3459C394.785 78.3459 394.628 78.2805 394.501 78.1496C394.375 78.0094 394.312 77.8365 394.312 77.6308V75.7799H393.04L391.267 78.0655C391.113 78.2711 390.924 78.3693 390.698 78.3599C390.473 78.3506 390.297 78.2898 390.17 78.1776ZM392.633 74.6021H394.312V72.0081H392.633C392.273 72.0081 391.957 72.1296 391.686 72.3727C391.415 72.6064 391.28 72.9102 391.28 73.2841C391.28 73.6767 391.415 73.9945 391.686 74.2376C391.957 74.4806 392.273 74.6021 392.633 74.6021Z" fill="#F8F7F2"/>
<g clip-path="url(#clip0)">
<g clip-path="url(#clip1)">
<g clip-path="url(#clip2)">
<path d="M77.7248 74.1545C79.4085 75.2165 78.804 77.5951 76.8257 77.5951L16.6571 77.5986C14.3521 77.5986 12.3468 75.9663 12.3468 73.6069V26.1486H7.4809C3.35584 26.1381 0.000223958 22.6138 0.000223958 18.9535C-0.0317663 14.7579 3.36762 11.333 7.46911 11.333H23.0989C25.5419 11.333 27.4647 14.3568 27.4647 16.8575V71.7131C27.4665 71.9325 27.5327 72.1461 27.6546 72.3254C27.7765 72.5048 27.9482 72.6415 28.147 72.7172C28.3457 72.793 28.562 72.8042 28.7671 72.7495C28.9722 72.6947 29.1563 72.5765 29.2949 72.4107L37.8178 62.2581C37.8178 62.2581 49.8057 48.0093 56.3267 40.2858C56.4853 40.0991 56.6901 39.9607 56.919 39.8857C57.148 39.8108 57.3924 39.8019 57.6258 39.8603C57.8592 39.9186 58.0728 40.0419 58.2436 40.2167C58.4143 40.3916 58.5357 40.6115 58.5946 40.8526C59.4718 44.3908 60.6386 48.6597 61.5243 52.3183C61.9334 54.0011 61.5966 55.6315 60.5258 56.8853C58.4852 59.2674 55.6717 62.5197 54.4056 63.9793C54.3484 64.0457 54.3111 64.128 54.2982 64.216C54.2854 64.304 54.2976 64.394 54.3333 64.475C54.369 64.5559 54.4267 64.6244 54.4993 64.672C54.5719 64.7196 54.6564 64.7443 54.7423 64.743L65.821 64.7134C66.3655 64.7126 66.9036 64.8346 67.3979 65.071C67.8922 65.3074 68.3309 65.6525 68.6833 66.0823C71.2561 69.2615 74.3095 71.9876 77.7248 74.1545Z" fill="#F8F7F2"/>
<path d="M126.985 44.6595C126.961 62.9697 112.544 77.6562 94.666 77.5952C89.6449 77.5895 84.6944 76.3707 80.2078 74.0358C75.7213 71.7009 71.8224 68.3143 68.8213 64.1451C66.5001 60.9223 64.7729 57.2836 63.7264 53.4118C62.0545 47.3694 60.0963 39.1682 59.0962 34.3378C58.9646 33.582 58.784 32.8363 58.5557 32.1057C58.5551 32.1004 58.5551 32.0952 58.5557 32.09C58.3062 31.3478 57.9404 30.6532 57.4731 30.034C55.7995 27.5804 53.2875 25.9761 50.2164 25.9761C45.6233 25.9761 42.8704 29.6277 42.5623 34.2506C42.5623 34.2506 42.4411 35.7782 42.3939 36.4373C42.3804 36.6329 42.3551 36.8274 42.3182 37.0198C41.9821 38.6152 41.1433 40.0496 39.9337 41.097C38.7241 42.1444 37.2126 42.7454 35.637 42.8053C34.0614 42.8653 32.5113 42.3807 31.2308 41.428C29.9503 40.4753 29.0122 39.1085 28.564 37.5429C28.3721 36.9954 28.1549 34.5087 28.1549 34.5087C28.3485 21.7124 37.6577 11.3523 50.2097 11.3523C51.0751 11.3523 52.7722 11.4971 52.7722 11.4971C57.158 11.9945 61.3089 13.8043 64.7176 16.7055C68.1263 19.6066 70.6452 23.4734 71.9664 27.8333V27.8507C72.1303 28.4773 72.293 29.1039 72.4547 29.7306C73.1164 32.2783 73.773 34.8278 74.4431 37.3703C75.4533 41.2416 76.3979 44.9525 77.2414 48.0076C79.5616 56.378 86.6499 63.1424 95.6745 62.6645C104.883 62.1763 112.239 54.4249 112.417 44.9786C112.609 34.8382 104.637 26.555 94.7805 26.555C91.8354 26.5477 88.9352 27.3024 86.3432 28.7508C83.7513 30.1992 81.5498 32.2953 79.9387 34.8487C79.6738 35.2694 79.2975 35.6022 78.8548 35.8074C78.4121 36.0125 77.9218 36.0813 77.4423 36.0056C76.9629 35.9298 76.5147 35.7127 76.1512 35.3801C75.7878 35.0476 75.5245 34.6137 75.3927 34.1302C74.6064 31.307 73.6484 28.1053 73.0861 25.5523C72.4126 22.4919 73.9077 19.3164 76.4215 17.5307C81.6308 13.8216 87.9497 11.3384 94.7738 11.3384C112.567 11.3331 127.008 26.433 126.985 44.6595Z" fill="#F8F7F2"/>
<path d="M23.6461 65.4107C23.6633 65.9921 23.5159 66.566 23.2222 67.0618C22.9284 67.5575 22.501 67.9535 21.9927 68.2008C21.4122 68.4762 20.779 68.6116 20.1407 68.5967H15.6856C15.6069 68.6016 15.528 68.59 15.4537 68.5628C15.3794 68.5355 15.3111 68.4931 15.2529 68.438C15.1437 68.3182 15.0829 68.1598 15.0829 67.9951C15.0829 67.8304 15.1437 67.6719 15.2529 67.5521C15.3085 67.4924 15.376 67.4458 15.4507 67.4157C15.5255 67.3856 15.6056 67.3726 15.6856 67.3777H20.1373C20.8691 67.3777 21.4461 67.1877 21.8681 66.8075C22.0756 66.6182 22.2401 66.3837 22.3499 66.1208C22.4596 65.8579 22.5118 65.5731 22.5029 65.2869C22.5129 64.9892 22.4615 64.6927 22.3521 64.4172C22.2426 64.1418 22.0776 63.8937 21.8681 63.6895C21.4461 63.2675 20.8848 63.0618 20.1844 63.0722H15.6856C15.6069 63.0771 15.528 63.0656 15.4537 63.0383C15.3794 63.0111 15.3111 62.9686 15.2529 62.9135C15.1437 62.7938 15.0829 62.6353 15.0829 62.4706C15.0829 62.3059 15.1437 62.1474 15.2529 62.0277C15.3085 61.9679 15.376 61.9214 15.4507 61.8913C15.5255 61.8611 15.6056 61.8482 15.6856 61.8533H20.1373C20.8691 61.8533 21.4461 61.6632 21.8681 61.2831C22.0755 61.094 22.2399 60.8598 22.3497 60.5972C22.4594 60.3346 22.5117 60.0502 22.5029 59.7642C22.5124 59.4655 22.4625 59.168 22.3562 58.8902C22.2499 58.6124 22.0895 58.3602 21.885 58.1494C21.671 57.9386 21.4185 57.7741 21.1425 57.6654C20.8664 57.5567 20.5722 57.506 20.277 57.5164H15.6856C15.6069 57.5213 15.528 57.5097 15.4537 57.4825C15.3794 57.4552 15.3111 57.4128 15.2529 57.3577C15.1437 57.2379 15.0829 57.0795 15.0829 56.9148C15.0829 56.7501 15.1437 56.5916 15.2529 56.4718C15.3085 56.4121 15.376 56.3655 15.4507 56.3354C15.5255 56.3053 15.6056 56.2924 15.6856 56.2974H22.9356C23.0533 56.2995 23.1679 56.3366 23.2658 56.4042C23.3637 56.4718 23.4408 56.5671 23.488 56.6787C23.5352 56.7904 23.5504 56.9137 23.5319 57.0341C23.5133 57.1544 23.4618 57.2668 23.3835 57.3577C23.2588 57.4672 23.0989 57.5238 22.9356 57.5164H22.3951C22.7769 57.78 23.094 58.1323 23.3212 58.5452C23.5406 58.9565 23.6526 59.4199 23.6461 59.8897C23.6593 60.5075 23.4926 61.1151 23.1679 61.6336C22.8288 62.1362 22.3563 62.5263 21.8075 62.7566C22.3431 62.9732 22.8096 63.3404 23.1545 63.8168C23.4815 64.2785 23.6542 64.8381 23.6461 65.4107ZM23.5384 53.727C23.542 53.8054 23.5302 53.8838 23.5035 53.9572C23.4769 54.0307 23.436 54.0978 23.3835 54.1543C23.2638 54.262 23.1092 54.3187 22.9507 54.313H15.6856C15.6069 54.3178 15.528 54.3063 15.4537 54.2791C15.3794 54.2518 15.3111 54.2094 15.2529 54.1543C15.1962 54.1003 15.1517 54.034 15.1226 53.9601C15.0935 53.8863 15.0805 53.8067 15.0845 53.727C15.0794 53.6449 15.0919 53.5627 15.121 53.4861C15.1501 53.4096 15.1951 53.3406 15.2529 53.2841C15.3085 53.2243 15.376 53.1778 15.4507 53.1477C15.5255 53.1176 15.6056 53.1046 15.6856 53.1097H18.7466V51.7007L15.268 48.5758C15.1607 48.4745 15.0946 48.3347 15.083 48.1848C15.0715 48.0349 15.1153 47.886 15.2057 47.7684C15.3035 47.6495 15.4427 47.5755 15.593 47.5626C15.6632 47.5587 15.7335 47.5693 15.7997 47.5939C15.8659 47.6184 15.9267 47.6564 15.9786 47.7056L19.2567 50.6806L22.6241 47.5417C22.7288 47.4394 22.8674 47.3826 23.0114 47.383C23.0826 47.3858 23.1524 47.4042 23.2162 47.437C23.28 47.4697 23.3365 47.5161 23.3818 47.5731C23.4344 47.6295 23.4754 47.6966 23.502 47.77C23.5286 47.8435 23.5404 47.9219 23.5367 48.0003C23.5397 48.0775 23.5262 48.1545 23.4971 48.2256C23.4679 48.2968 23.424 48.3604 23.3683 48.4118L19.8325 51.7042V53.0993H22.9558C23.0356 53.0963 23.1151 53.1102 23.1895 53.1402C23.264 53.1702 23.3317 53.2156 23.3885 53.2736C23.4425 53.3343 23.4837 53.406 23.5095 53.484C23.5353 53.5621 23.5451 53.6448 23.5384 53.727ZM23.6158 43.142C23.6294 43.9357 23.4369 44.7186 23.0585 45.409C22.6965 46.0672 22.1671 46.61 21.528 46.9784C20.8445 47.3528 20.083 47.5486 19.3097 47.5486C18.5365 47.5486 17.775 47.3528 17.0915 46.9784C16.4531 46.609 15.924 46.0664 15.561 45.409C15.1839 44.7181 14.9921 43.9354 15.0054 43.142C14.9911 42.3545 15.1831 41.5777 15.561 40.8942C15.9247 40.2373 16.4536 39.6949 17.0915 39.3247C17.7723 38.9331 18.5385 38.7284 19.3173 38.7301C20.0916 38.7164 20.8552 38.9188 21.528 39.316C22.1666 39.6851 22.6958 40.2278 23.0585 40.8855C23.438 41.569 23.6306 42.3467 23.6158 43.135V43.142ZM22.5332 43.142C22.5425 42.564 22.3981 41.9944 22.1156 41.4958C21.8429 41.0141 21.4474 40.6195 20.9724 40.3553C20.4601 40.0848 19.8932 39.9438 19.3182 39.9438C18.7431 39.9438 18.1762 40.0848 17.6639 40.3553C17.1824 40.6164 16.7807 41.0113 16.5039 41.4958C16.2899 41.8645 16.15 42.2741 16.0926 42.7001C16.0352 43.1261 16.0615 43.5598 16.1698 43.975C16.2781 44.3903 16.4663 44.7786 16.723 45.1167C16.9798 45.4548 17.2998 45.7357 17.6639 45.9426C18.1762 46.2131 18.7431 46.3542 19.3182 46.3542C19.8932 46.3542 20.4601 46.2131 20.9724 45.9426C21.4534 45.6664 21.8528 45.2598 22.1278 44.7665C22.4027 44.2731 22.5429 43.7115 22.5332 43.142ZM15.0828 34.0043C15.0804 33.8741 15.1171 33.7464 15.1881 33.6389C15.259 33.5313 15.3605 33.4494 15.4785 33.4044L22.7756 29.9691C22.839 29.9324 22.91 29.9118 22.9826 29.909C23.0552 29.9063 23.1274 29.9215 23.1932 29.9534C23.3236 30.012 23.4281 30.119 23.4862 30.2533C23.6411 30.6126 23.5535 30.8765 23.2235 31.045L16.8541 33.9572L23.2084 36.9496C23.2809 36.9817 23.3461 37.0293 23.3995 37.0895C23.4529 37.1496 23.4934 37.2208 23.5182 37.2984C23.5582 37.452 23.5414 37.6156 23.471 37.757C23.4094 37.8927 23.3065 38.0036 23.178 38.0727C23.1109 38.099 23.0394 38.1112 22.9677 38.1085C22.896 38.1058 22.8256 38.0883 22.7605 38.057L15.4785 34.5745C15.3636 34.5337 15.2638 34.4569 15.1929 34.3547C15.1221 34.2526 15.0836 34.1301 15.0828 34.0043ZM23.6158 24.9835C23.6267 25.7514 23.4327 26.5075 23.0551 27.1685C22.6765 27.8101 22.144 28.3393 21.5095 28.7048C20.8371 29.0786 20.0838 29.2688 19.3207 29.2576C18.5486 29.2707 17.7865 29.0747 17.11 28.6891C16.462 28.3009 15.9257 27.7408 15.5564 27.0664C15.187 26.3921 14.998 25.6279 15.0087 24.8527C14.996 24.0683 15.1936 23.2956 15.5795 22.6206C15.9432 21.9637 16.4721 21.4213 17.11 21.0511C17.7835 20.6541 18.5457 20.4466 19.3207 20.4495H22.9541C23.0339 20.4469 23.1133 20.461 23.1876 20.491C23.262 20.521 23.3297 20.5662 23.3868 20.6239C23.4863 20.7488 23.5407 20.9058 23.5407 21.0677C23.5407 21.2297 23.4863 21.3866 23.3868 21.5115C23.3298 21.5693 23.2621 21.6146 23.1877 21.6446C23.1133 21.6745 23.0339 21.6886 22.9541 21.6859H22.0112C22.5074 22.0452 22.9118 22.5239 23.1898 23.081C23.4801 23.6694 23.6264 24.3227 23.6158 24.9835ZM22.5332 24.8579C22.5423 24.2924 22.4016 23.7352 22.1264 23.2467C21.8513 22.7582 21.4522 22.3571 20.9724 22.087C20.4655 21.7991 19.8954 21.652 19.3173 21.6597C18.7407 21.6502 18.1718 21.7975 17.6673 22.087C17.1929 22.3526 16.7972 22.7468 16.5224 23.2274C16.2302 23.7167 16.08 24.2827 16.0897 24.8579C16.0829 25.4328 16.2329 25.9979 16.5224 26.4884C16.799 26.9711 17.194 27.3694 17.6673 27.6428C18.1723 27.9342 18.7427 28.0822 19.3207 28.0718C19.899 28.0798 20.4693 27.932 20.9758 27.6428C21.4489 27.3698 21.8435 26.9714 22.119 26.4884C22.3988 25.9945 22.542 25.4305 22.5332 24.8579Z" fill="#F8F7F2"/>
</g>
</g>
</g>
<rect x="171.352" width="5.02909" height="88.7339" fill="#F8F7F2"/>
<defs>
<clipPath id="clip0">
<rect width="126.985" height="66.969" fill="white" transform="translate(0 10.9756)"/>
</clipPath>
<clipPath id="clip1">
<rect width="126.985" height="67.0073" fill="white" transform="translate(0 10.9756)"/>
</clipPath>
<clipPath id="clip2">
<rect width="126.985" height="66.2656" fill="white" transform="translate(0 11.333)"/>
</clipPath>
</defs>
</svg>
