<svg width="401" height="89" viewBox="0 0 401 89" fill="none" xmlns="http://www.w3.org/2000/svg">
<path d="M340.445 29.1719H344.784V55.7651H340.445V29.1719ZM366.619 29.1719V33.3583H359.272V55.7651H354.91V33.3583H347.563V29.1719H366.619Z" fill="#C1272D"/>
<path d="M225.441 22.6027C224.771 22.6027 224.18 22.4528 223.667 22.1529C223.154 21.8444 222.749 21.4245 222.451 20.8933C222.162 20.3534 222.017 19.7365 222.017 19.0424C222.017 18.3398 222.162 17.7228 222.451 17.1916C222.749 16.6517 223.154 16.2319 223.667 15.9319C224.18 15.6235 224.771 15.4692 225.441 15.4692C226.103 15.4692 226.69 15.6235 227.203 15.9319C227.716 16.2319 228.117 16.6517 228.406 17.1916C228.704 17.7228 228.853 18.3398 228.853 19.0424C228.853 19.7365 228.708 20.3534 228.419 20.8933C228.129 21.4245 227.728 21.8444 227.215 22.1529C226.702 22.4528 226.111 22.6027 225.441 22.6027ZM225.441 21.446C225.871 21.446 226.252 21.3431 226.583 21.1375C226.913 20.9318 227.17 20.6491 227.352 20.2892C227.542 19.9293 227.637 19.5137 227.637 19.0424C227.637 18.5711 227.542 18.1555 227.352 17.7957C227.17 17.4272 226.913 17.1401 226.583 16.9345C226.252 16.7288 225.871 16.626 225.441 16.626C225.011 16.626 224.631 16.7288 224.3 16.9345C223.969 17.1401 223.708 17.4272 223.518 17.7957C223.328 18.1555 223.233 18.5711 223.233 19.0424C223.233 19.5137 223.328 19.9293 223.518 20.2892C223.708 20.6491 223.969 20.9318 224.3 21.1375C224.631 21.3431 225.011 21.446 225.441 21.446ZM230.922 19.2866L230.935 17.8342C230.943 16.8231 231.212 15.8977 231.741 15.0579C232.279 14.2182 233.11 13.537 234.235 13.0143L236.555 11.9475C236.72 11.8789 236.869 11.8703 237.001 11.9218C237.134 11.9646 237.229 12.0631 237.287 12.2174C237.345 12.3802 237.357 12.5301 237.324 12.6672C237.299 12.7958 237.179 12.9115 236.964 13.0143L234.446 14.2096C233.652 14.5867 233.052 15.0622 232.647 15.6363C232.242 16.2019 232.002 16.8445 231.927 17.5643C232.184 17.0759 232.539 16.6903 232.994 16.4075C233.457 16.1247 233.987 15.9834 234.582 15.9834C235.178 15.9834 235.703 16.1247 236.158 16.4075C236.621 16.6903 236.981 17.0802 237.237 17.5771C237.502 18.0656 237.634 18.6354 237.634 19.2866C237.634 19.9293 237.494 20.5034 237.212 21.0089C236.931 21.5059 236.542 21.8958 236.046 22.1786C235.55 22.4614 234.979 22.6027 234.334 22.6027C233.672 22.6027 233.085 22.4614 232.572 22.1786C232.06 21.8958 231.658 21.5059 231.369 21.0089C231.079 20.5034 230.931 19.9293 230.922 19.2866ZM234.334 21.446C234.748 21.446 235.107 21.356 235.413 21.176C235.728 20.9875 235.972 20.7305 236.145 20.4048C236.327 20.0792 236.418 19.7065 236.418 19.2866C236.418 18.8668 236.327 18.4983 236.145 18.1812C235.972 17.8556 235.728 17.6029 235.413 17.4229C235.107 17.2344 234.748 17.1401 234.334 17.1401C233.904 17.1401 233.524 17.2344 233.193 17.4229C232.862 17.6029 232.601 17.8556 232.411 18.1812C232.229 18.4983 232.138 18.8668 232.138 19.2866C232.138 19.7065 232.229 20.0792 232.411 20.4048C232.601 20.7305 232.862 20.9875 233.193 21.176C233.524 21.356 233.904 21.446 234.334 21.446ZM240.649 25.559C240.467 25.559 240.314 25.4947 240.189 25.3662C240.074 25.2462 240.016 25.092 240.016 24.9035V19.0424C240.024 18.3655 240.177 17.7571 240.475 17.2173C240.773 16.6774 241.178 16.2533 241.691 15.9448C242.203 15.6278 242.782 15.4692 243.428 15.4692C244.081 15.4692 244.664 15.6278 245.177 15.9448C245.69 16.2533 246.095 16.6774 246.393 17.2173C246.699 17.7571 246.852 18.3655 246.852 19.0424C246.852 19.7193 246.711 20.3277 246.43 20.8676C246.157 21.3988 245.781 21.823 245.301 22.14C244.821 22.4485 244.279 22.6027 243.676 22.6027C243.188 22.6027 242.737 22.4999 242.323 22.2943C241.918 22.0801 241.571 21.793 241.281 21.4331V24.9035C241.281 25.092 241.223 25.2462 241.108 25.3662C240.992 25.4947 240.839 25.559 240.649 25.559ZM243.428 21.446C243.849 21.446 244.226 21.3431 244.557 21.1375C244.887 20.9233 245.148 20.6362 245.338 20.2763C245.537 19.9079 245.636 19.4966 245.636 19.0424C245.636 18.5797 245.537 18.1684 245.338 17.8085C245.148 17.4401 244.887 17.153 244.557 16.9473C244.226 16.7331 243.849 16.626 243.428 16.626C243.014 16.626 242.638 16.7331 242.299 16.9473C241.968 17.153 241.707 17.4401 241.517 17.8085C241.327 18.1684 241.232 18.5797 241.232 19.0424C241.232 19.4966 241.327 19.9079 241.517 20.2763C241.707 20.6362 241.968 20.9233 242.299 21.1375C242.638 21.3431 243.014 21.446 243.428 21.446ZM252.064 22.6027C251.46 22.6027 250.918 22.4485 250.439 22.14C249.959 21.823 249.578 21.3988 249.297 20.8676C249.024 20.3277 248.888 19.7193 248.888 19.0424C248.888 18.3655 249.037 17.7571 249.335 17.2173C249.641 16.6774 250.05 16.2533 250.563 15.9448C251.084 15.6278 251.667 15.4692 252.312 15.4692C252.957 15.4692 253.536 15.6278 254.049 15.9448C254.562 16.2533 254.967 16.6774 255.265 17.2173C255.571 17.7571 255.724 18.3655 255.724 19.0424V21.9087C255.724 22.0972 255.662 22.2557 255.538 22.3842C255.422 22.5042 255.273 22.5642 255.091 22.5642C254.909 22.5642 254.756 22.5042 254.632 22.3842C254.516 22.2557 254.458 22.0972 254.458 21.9087V21.4331C254.169 21.793 253.817 22.0801 253.404 22.2943C252.998 22.4999 252.552 22.6027 252.064 22.6027ZM252.312 21.446C252.734 21.446 253.11 21.3431 253.441 21.1375C253.772 20.9233 254.032 20.6362 254.223 20.2763C254.413 19.9079 254.508 19.4966 254.508 19.0424C254.508 18.5797 254.413 18.1684 254.223 17.8085C254.032 17.4401 253.772 17.153 253.441 16.9473C253.11 16.7331 252.734 16.626 252.312 16.626C251.898 16.626 251.522 16.7331 251.183 16.9473C250.852 17.153 250.588 17.4401 250.389 17.8085C250.199 18.1684 250.104 18.5797 250.104 19.0424C250.104 19.4966 250.199 19.9079 250.389 20.2763C250.588 20.6362 250.852 20.9233 251.183 21.1375C251.522 21.3431 251.898 21.446 252.312 21.446ZM260.423 22.6542C259.828 22.6542 259.299 22.5599 258.835 22.3714C258.381 22.1829 258.008 21.9515 257.719 21.6773C257.587 21.5488 257.52 21.3988 257.52 21.2274C257.52 21.0475 257.59 20.9018 257.731 20.7904C257.855 20.6876 258.004 20.6448 258.178 20.6619C258.36 20.6705 258.513 20.7347 258.637 20.8547C258.835 21.0347 259.083 21.1889 259.381 21.3174C259.679 21.4374 260.022 21.4974 260.411 21.4974C260.866 21.4974 261.226 21.3988 261.49 21.2017C261.763 20.9961 261.9 20.7347 261.9 20.4177C261.9 20.1349 261.8 19.9121 261.602 19.7493C261.412 19.578 261.172 19.488 260.882 19.4794H260.175C259.993 19.4794 259.84 19.428 259.716 19.3252C259.592 19.2224 259.53 19.0981 259.53 18.9524C259.53 18.8068 259.592 18.6868 259.716 18.5926C259.84 18.4983 259.993 18.4512 260.175 18.4512H260.87C261.143 18.434 261.346 18.3398 261.478 18.1684C261.619 17.997 261.689 17.7828 261.689 17.5257C261.689 17.243 261.573 17.0202 261.341 16.8574C261.11 16.6946 260.775 16.6132 260.337 16.6132C259.6 16.6132 259.038 16.8145 258.649 17.2173C258.517 17.3544 258.372 17.4315 258.215 17.4486C258.066 17.4572 257.921 17.4058 257.781 17.2944C257.673 17.2087 257.624 17.0844 257.632 16.9216C257.649 16.7588 257.719 16.6089 257.843 16.4718C258.108 16.1719 258.463 15.9276 258.91 15.7391C259.356 15.5506 259.824 15.4564 260.312 15.4564C260.816 15.4564 261.263 15.5463 261.652 15.7263C262.04 15.9062 262.346 16.1462 262.57 16.4461C262.793 16.746 262.905 17.0759 262.905 17.4358C262.905 17.8128 262.789 18.1298 262.557 18.3869C262.326 18.6354 262.04 18.8025 261.701 18.8882C262.115 18.9739 262.454 19.1624 262.719 19.4537C262.983 19.745 263.116 20.0878 263.116 20.482C263.116 20.8933 262.996 21.2617 262.756 21.5873C262.524 21.913 262.206 22.1743 261.8 22.3714C261.395 22.5599 260.936 22.6542 260.423 22.6542ZM268.243 22.6027C267.573 22.6027 266.982 22.4528 266.469 22.1529C265.956 21.8444 265.551 21.4245 265.253 20.8933C264.964 20.3534 264.819 19.7365 264.819 19.0424C264.819 18.3398 264.964 17.7228 265.253 17.1916C265.551 16.6517 265.956 16.2319 266.469 15.9319C266.982 15.6235 267.573 15.4692 268.243 15.4692C268.905 15.4692 269.492 15.6235 270.005 15.9319C270.518 16.2319 270.919 16.6517 271.208 17.1916C271.506 17.7228 271.655 18.3398 271.655 19.0424C271.655 19.7365 271.51 20.3534 271.221 20.8933C270.931 21.4245 270.53 21.8444 270.017 22.1529C269.505 22.4528 268.913 22.6027 268.243 22.6027ZM268.243 21.446C268.673 21.446 269.054 21.3431 269.384 21.1375C269.715 20.9318 269.972 20.6491 270.154 20.2892C270.344 19.9293 270.439 19.5137 270.439 19.0424C270.439 18.5711 270.344 18.1555 270.154 17.7957C269.972 17.4272 269.715 17.1401 269.384 16.9345C269.054 16.7288 268.673 16.626 268.243 16.626C267.813 16.626 267.433 16.7288 267.102 16.9345C266.771 17.1401 266.51 17.4272 266.32 17.7957C266.13 18.1555 266.035 18.5711 266.035 19.0424C266.035 19.5137 266.13 19.9293 266.32 20.2892C266.51 20.6491 266.771 20.9318 267.102 21.1375C267.433 21.3431 267.813 21.446 268.243 21.446ZM274.667 22.5513C274.485 22.5513 274.332 22.4914 274.208 22.3714C274.092 22.2428 274.035 22.0843 274.035 21.8958V16.1633C274.051 15.9748 274.117 15.8206 274.233 15.7006C274.349 15.5806 274.494 15.5206 274.667 15.5206H274.68H277.781C278.17 15.5206 278.513 15.6021 278.811 15.7649C279.117 15.9191 279.357 16.1376 279.531 16.4204C279.704 16.6946 279.791 17.0116 279.791 17.3715C279.791 17.7057 279.704 18.0056 279.531 18.2712C279.365 18.5283 279.142 18.7254 278.861 18.8625C279.224 19.0253 279.51 19.2524 279.717 19.5437C279.932 19.835 280.039 20.1735 280.039 20.5591C280.039 20.9447 279.94 21.2874 279.741 21.5873C279.543 21.8873 279.266 22.1229 278.91 22.2943C278.563 22.4656 278.162 22.5513 277.707 22.5513H274.667ZM277.781 16.7288H275.3V18.3869H277.905C278.112 18.3869 278.281 18.3055 278.414 18.1427C278.546 17.9713 278.613 17.7571 278.613 17.5C278.613 17.2772 278.534 17.093 278.377 16.9473C278.219 16.8017 278.021 16.7288 277.781 16.7288ZM275.3 21.3303H277.707C278.038 21.3303 278.306 21.2489 278.513 21.0861C278.72 20.9147 278.823 20.6962 278.823 20.4306C278.823 20.1478 278.72 19.9164 278.513 19.7365C278.306 19.5565 278.038 19.4666 277.707 19.4666H275.3V21.3303ZM284.919 22.6027C284.316 22.6027 283.774 22.4485 283.294 22.14C282.815 21.823 282.434 21.3988 282.153 20.8676C281.88 20.3277 281.743 19.7193 281.743 19.0424C281.743 18.3655 281.892 17.7571 282.19 17.2173C282.496 16.6774 282.905 16.2533 283.418 15.9448C283.939 15.6278 284.522 15.4692 285.168 15.4692C285.813 15.4692 286.392 15.6278 286.904 15.9448C287.417 16.2533 287.823 16.6774 288.12 17.2173C288.426 17.7571 288.579 18.3655 288.579 19.0424V21.9087C288.579 22.0972 288.517 22.2557 288.393 22.3842C288.277 22.5042 288.128 22.5642 287.947 22.5642C287.765 22.5642 287.612 22.5042 287.488 22.3842C287.372 22.2557 287.314 22.0972 287.314 21.9087V21.4331C287.024 21.793 286.673 22.0801 286.259 22.2943C285.854 22.4999 285.408 22.6027 284.919 22.6027ZM285.168 21.446C285.589 21.446 285.966 21.3431 286.297 21.1375C286.627 20.9233 286.888 20.6362 287.078 20.2763C287.268 19.9079 287.363 19.4966 287.363 19.0424C287.363 18.5797 287.268 18.1684 287.078 17.8085C286.888 17.4401 286.627 17.153 286.297 16.9473C285.966 16.7331 285.589 16.626 285.168 16.626C284.754 16.626 284.378 16.7331 284.039 16.9473C283.708 17.153 283.443 17.4401 283.245 17.8085C283.054 18.1684 282.959 18.5797 282.959 19.0424C282.959 19.4966 283.054 19.9079 283.245 20.2763C283.443 20.6362 283.708 20.9233 284.039 21.1375C284.378 21.3431 284.754 21.446 285.168 21.446ZM291.567 22.5513C291.385 22.5513 291.236 22.4914 291.12 22.3714C291.013 22.2428 290.959 22.0843 290.959 21.8958V16.1762C290.959 15.9791 291.013 15.8206 291.12 15.7006C291.236 15.5806 291.385 15.5206 291.567 15.5206C291.757 15.5206 291.91 15.5806 292.026 15.7006C292.142 15.8206 292.2 15.9791 292.2 16.1762V18.3226H296.033V16.1762C296.033 15.9791 296.091 15.8206 296.207 15.7006C296.331 15.5806 296.484 15.5206 296.666 15.5206C296.856 15.5206 297.005 15.5806 297.113 15.7006C297.22 15.8206 297.274 15.9791 297.274 16.1762V21.8958C297.274 22.0843 297.22 22.2428 297.113 22.3714C297.005 22.4914 296.856 22.5513 296.666 22.5513C296.484 22.5513 296.331 22.4914 296.207 22.3714C296.091 22.2428 296.033 22.0843 296.033 21.8958V19.4794H292.2V21.8958C292.2 22.0843 292.142 22.2428 292.026 22.3714C291.91 22.4914 291.757 22.5513 291.567 22.5513ZM302.862 22.6156C302.291 22.6156 301.779 22.4914 301.324 22.2428C300.877 21.9858 300.522 21.613 300.257 21.1246C300.001 20.6362 299.872 20.0364 299.872 19.3252V16.1633C299.872 15.9748 299.93 15.8206 300.046 15.7006C300.17 15.5721 300.323 15.5078 300.505 15.5078C300.687 15.5078 300.836 15.5721 300.952 15.7006C301.076 15.8206 301.138 15.9748 301.138 16.1633V19.3252C301.138 20.0535 301.324 20.5891 301.696 20.9318C302.077 21.266 302.548 21.4331 303.11 21.4331C303.466 21.4331 303.78 21.3603 304.053 21.2146C304.335 21.0689 304.558 20.8719 304.723 20.6234C304.889 20.3748 304.971 20.0964 304.971 19.7879V16.1633C304.971 15.9662 305.029 15.8077 305.145 15.6877C305.269 15.5678 305.422 15.5078 305.604 15.5078C305.794 15.5078 305.947 15.5678 306.063 15.6877C306.179 15.8077 306.237 15.9662 306.237 16.1633V21.8958C306.237 22.0843 306.179 22.2428 306.063 22.3714C305.947 22.4914 305.794 22.5513 305.604 22.5513C305.422 22.5513 305.269 22.4914 305.145 22.3714C305.029 22.2428 304.971 22.0843 304.971 21.8958V21.7544C304.715 22.0201 304.405 22.23 304.041 22.3842C303.677 22.5385 303.284 22.6156 302.862 22.6156ZM312.15 22.6027C311.464 22.6027 310.852 22.4528 310.314 22.1529C309.785 21.8444 309.367 21.4245 309.061 20.8933C308.763 20.3534 308.614 19.7365 308.614 19.0424C308.614 18.3398 308.755 17.7228 309.036 17.1916C309.326 16.6517 309.723 16.2319 310.227 15.9319C310.732 15.6235 311.311 15.4692 311.964 15.4692C312.609 15.4692 313.163 15.6192 313.627 15.9191C314.09 16.2104 314.441 16.6175 314.681 17.1401C314.929 17.6543 315.053 18.2498 315.053 18.9267C315.053 19.0895 315 19.2266 314.892 19.338C314.784 19.4409 314.648 19.4923 314.483 19.4923H309.768C309.859 20.0835 310.12 20.5676 310.55 20.9447C310.988 21.3131 311.522 21.4974 312.15 21.4974C312.407 21.4974 312.667 21.4502 312.932 21.356C313.205 21.2532 313.424 21.1375 313.589 21.0089C313.713 20.9147 313.846 20.8676 313.986 20.8676C314.135 20.859 314.263 20.9018 314.371 20.9961C314.511 21.1246 314.586 21.266 314.594 21.4202C314.603 21.5745 314.536 21.7073 314.396 21.8187C314.114 22.0501 313.763 22.2386 313.341 22.3842C312.928 22.5299 312.531 22.6027 312.15 22.6027ZM311.964 16.5746C311.352 16.5746 310.86 16.7503 310.488 17.1016C310.116 17.4529 309.88 17.907 309.781 18.464H313.912C313.838 17.9156 313.635 17.4658 313.304 17.1144C312.973 16.7545 312.526 16.5746 311.964 16.5746Z" fill="#1C3782"/>
<path d="M327.326 22.5513C327.127 22.5513 326.96 22.4812 326.825 22.3409C326.69 22.2007 326.622 22.0278 326.622 21.8221V12.3295C326.622 12.1145 326.69 11.9416 326.825 11.8107C326.96 11.6705 327.127 11.6004 327.326 11.6004C327.533 11.6004 327.7 11.6705 327.827 11.8107C327.962 11.9416 328.03 12.1145 328.03 12.3295V16.3537H334.31V12.3295C334.31 12.1145 334.377 11.9416 334.513 11.8107C334.648 11.6705 334.815 11.6004 335.013 11.6004C335.221 11.6004 335.388 11.6705 335.514 11.8107C335.64 11.9416 335.704 12.1145 335.704 12.3295V21.8221C335.704 22.0278 335.64 22.2007 335.514 22.3409C335.388 22.4812 335.221 22.5513 335.013 22.5513C334.815 22.5513 334.648 22.4812 334.513 22.3409C334.377 22.2007 334.31 22.0278 334.31 21.8221V17.6437H328.03V21.8221C328.03 22.0278 327.962 22.2007 327.827 22.3409C327.7 22.4812 327.533 22.5513 327.326 22.5513ZM344.109 22.6915C343.315 22.6915 342.589 22.5559 341.93 22.2849C341.272 22.0044 340.703 21.6165 340.225 21.1211C339.756 20.6163 339.39 20.0227 339.129 19.3403C338.867 18.6486 338.736 17.8914 338.736 17.0688C338.736 16.2462 338.867 15.4937 339.129 14.8113C339.39 14.1289 339.756 13.54 340.225 13.0446C340.703 12.5398 341.272 12.1519 341.93 11.8808C342.589 11.6004 343.315 11.4601 344.109 11.4601C344.903 11.4601 345.625 11.6004 346.275 11.8808C346.934 12.1519 347.502 12.5398 347.98 13.0446C348.458 13.54 348.828 14.1289 349.09 14.8113C349.352 15.4937 349.482 16.2462 349.482 17.0688C349.482 17.8914 349.352 18.6486 349.09 19.3403C348.828 20.0227 348.458 20.6163 347.98 21.1211C347.502 21.6165 346.934 22.0044 346.275 22.2849C345.625 22.5559 344.903 22.6915 344.109 22.6915ZM344.109 21.3734C344.894 21.3734 345.589 21.1865 346.194 20.8126C346.798 20.4293 347.272 19.9152 347.615 19.2702C347.958 18.6159 348.129 17.8821 348.129 17.0688C348.129 16.2555 347.958 15.5264 347.615 14.8814C347.272 14.2271 346.798 13.713 346.194 13.339C345.589 12.9651 344.894 12.7782 344.109 12.7782C343.324 12.7782 342.63 12.9651 342.025 13.339C341.421 13.713 340.947 14.2271 340.604 14.8814C340.261 15.5264 340.09 16.2555 340.09 17.0688C340.09 17.8821 340.261 18.6159 340.604 19.2702C340.947 19.9152 341.421 20.4293 342.025 20.8126C342.63 21.1865 343.324 21.3734 344.109 21.3734ZM353.203 22.5513C353.004 22.5513 352.838 22.4812 352.702 22.3409C352.567 22.2007 352.499 22.0278 352.499 21.8221V12.3295C352.499 12.1145 352.567 11.9416 352.702 11.8107C352.838 11.6705 353.004 11.6004 353.203 11.6004H356.438C357.051 11.6004 357.588 11.7266 358.048 11.9789C358.517 12.222 358.883 12.5632 359.145 13.0025C359.415 13.4419 359.551 13.9466 359.551 14.5169C359.551 14.9749 359.429 15.3909 359.185 15.7648C358.951 16.1294 358.626 16.4191 358.211 16.6341C358.806 16.7837 359.284 17.0782 359.645 17.5175C360.006 17.9568 360.187 18.5317 360.187 19.2422C360.187 19.8872 360.038 20.4574 359.74 20.9528C359.451 21.4482 359.045 21.8408 358.522 22.1306C357.999 22.4111 357.399 22.5513 356.722 22.5513H353.203ZM353.907 16.1013H356.438C356.952 16.1013 357.372 15.9704 357.696 15.7087C358.03 15.447 358.197 15.0497 358.197 14.5169C358.197 13.984 358.03 13.5914 357.696 13.339C357.372 13.0773 356.952 12.9464 356.438 12.9464H353.907V16.1013ZM353.907 21.2052H356.722C357.335 21.2052 357.841 21.0416 358.238 20.7144C358.635 20.3779 358.833 19.8872 358.833 19.2422C358.833 18.6439 358.635 18.1952 358.238 17.8961C357.841 17.597 357.335 17.4474 356.722 17.4474H353.907V21.2052ZM367.713 22.6915C366.919 22.6915 366.193 22.5559 365.534 22.2849C364.876 22.0044 364.307 21.6165 363.829 21.1211C363.36 20.6163 362.994 20.0227 362.733 19.3403C362.471 18.6486 362.34 17.8914 362.34 17.0688C362.34 16.2462 362.471 15.4937 362.733 14.8113C362.994 14.1289 363.36 13.54 363.829 13.0446C364.307 12.5398 364.876 12.1519 365.534 11.8808C366.193 11.6004 366.919 11.4601 367.713 11.4601C368.507 11.4601 369.229 11.6004 369.879 11.8808C370.537 12.1519 371.106 12.5398 371.584 13.0446C372.062 13.54 372.432 14.1289 372.694 14.8113C372.956 15.4937 373.086 16.2462 373.086 17.0688C373.086 17.8914 372.956 18.6486 372.694 19.3403C372.432 20.0227 372.062 20.6163 371.584 21.1211C371.106 21.6165 370.537 22.0044 369.879 22.2849C369.229 22.5559 368.507 22.6915 367.713 22.6915ZM367.713 21.3734C368.498 21.3734 369.193 21.1865 369.798 20.8126C370.402 20.4293 370.876 19.9152 371.219 19.2702C371.562 18.6159 371.733 17.8821 371.733 17.0688C371.733 16.2555 371.562 15.5264 371.219 14.8814C370.876 14.2271 370.402 13.713 369.798 13.339C369.193 12.9651 368.498 12.7782 367.713 12.7782C366.928 12.7782 366.234 12.9651 365.629 13.339C365.025 13.713 364.551 14.2271 364.208 14.8814C363.865 15.5264 363.694 16.2555 363.694 17.0688C363.694 17.8821 363.865 18.6159 364.208 19.2702C364.551 19.9152 365.025 20.4293 365.629 20.8126C366.234 21.1865 366.928 21.3734 367.713 21.3734ZM376.807 22.5513C376.608 22.5513 376.442 22.4812 376.306 22.3409C376.171 22.2007 376.103 22.0278 376.103 21.8221V12.3295C376.103 12.1145 376.171 11.9416 376.306 11.8107C376.442 11.6705 376.608 11.6004 376.807 11.6004H382.397C382.604 11.6004 382.771 11.6658 382.897 11.7967C383.024 11.9182 383.087 12.0818 383.087 12.2874C383.087 12.4837 383.024 12.6426 382.897 12.7642C382.771 12.8857 382.604 12.9464 382.397 12.9464H377.511V21.8221C377.511 22.0278 377.443 22.2007 377.308 22.3409C377.172 22.4812 377.005 22.5513 376.807 22.5513ZM390.273 22.6915C389.479 22.6915 388.753 22.5559 388.094 22.2849C387.436 22.0044 386.867 21.6165 386.389 21.1211C385.92 20.6163 385.554 20.0227 385.293 19.3403C385.031 18.6486 384.9 17.8914 384.9 17.0688C384.9 16.2462 385.031 15.4937 385.293 14.8113C385.554 14.1289 385.92 13.54 386.389 13.0446C386.867 12.5398 387.436 12.1519 388.094 11.8808C388.753 11.6004 389.479 11.4601 390.273 11.4601C391.067 11.4601 391.789 11.6004 392.439 11.8808C393.097 12.1519 393.666 12.5398 394.144 13.0446C394.622 13.54 394.992 14.1289 395.254 14.8113C395.515 15.4937 395.646 16.2462 395.646 17.0688C395.646 17.8914 395.515 18.6486 395.254 19.3403C394.992 20.0227 394.622 20.6163 394.144 21.1211C393.666 21.6165 393.097 22.0044 392.439 22.2849C391.789 22.5559 391.067 22.6915 390.273 22.6915ZM390.273 21.3734C391.058 21.3734 391.753 21.1865 392.357 20.8126C392.962 20.4293 393.436 19.9152 393.779 19.2702C394.121 18.6159 394.293 17.8821 394.293 17.0688C394.293 16.2555 394.121 15.5264 393.779 14.8814C393.436 14.2271 392.962 13.713 392.357 13.339C391.753 12.9651 391.058 12.7782 390.273 12.7782C389.488 12.7782 388.793 12.9651 388.189 13.339C387.584 13.713 387.111 14.2271 386.768 14.8814C386.425 15.5264 386.254 16.2555 386.254 17.0688C386.254 17.8821 386.425 18.6159 386.768 19.2702C387.111 19.9152 387.584 20.4293 388.189 20.8126C388.793 21.1865 389.488 21.3734 390.273 21.3734Z" fill="#C1272D"/>
<path fill-rule="evenodd" clip-rule="evenodd" d="M230.698 29.1719H222.157V63.7337H230.698V60.3084H226.083V32.6209H230.698V29.1719ZM248.767 55.789V37.1166V37.069H245.163C244.52 37.8063 243.854 38.6388 243.165 39.5666C242.477 40.518 241.788 41.4934 241.076 42.54C240.387 43.5627 239.698 44.6094 239.01 45.7034C238.321 46.774 237.655 47.8203 237.012 48.8433V47.107C237.035 46.3457 237.058 45.4419 237.058 44.4429V41.0651C237.058 40.4489 237.064 39.8156 237.069 39.1682C237.075 38.4909 237.081 37.7981 237.081 37.0929H232.948V55.7651H236.622C236.817 55.4346 237.019 55.0865 237.23 54.722C237.566 54.1419 237.926 53.5204 238.321 52.8632C238.535 52.5196 238.748 52.1735 238.964 51.825C239.419 51.0878 239.881 50.3397 240.364 49.5806L242.568 46.2268C243.303 45.1089 244.015 44.0859 244.704 43.1584C244.704 43.5864 244.704 44.2048 244.681 45.0613C244.681 45.8938 244.681 46.8929 244.658 48.0345C244.658 49.1763 244.658 50.4132 244.635 51.7452V55.789H248.767ZM264.495 55.789H268.673V37.1166H264.495V44.3953H257.722V37.1166H253.566V55.789H257.722V47.9868H264.495V55.789ZM288.396 51.8405C287.73 52.0546 287.041 52.1735 286.306 52.1971V40.7084C287.041 40.7321 287.73 40.851 288.396 41.0888C289.085 41.3269 289.682 41.6835 290.187 42.1594C290.669 42.6113 291.082 43.1821 291.38 43.8957C291.679 44.6094 291.817 45.4656 291.817 46.441C291.817 47.416 291.679 48.2725 291.38 48.9859C291.082 49.6995 290.692 50.2943 290.187 50.7698C289.682 51.2457 289.085 51.6024 288.396 51.8405ZM282.22 62.4017H286.238H286.26V55.9079C287.592 55.8366 288.832 55.5749 290.003 55.1466C291.197 54.7187 292.253 54.1239 293.148 53.3627C294.044 52.5778 294.733 51.6263 295.238 50.4844C295.789 49.3189 296.041 48.0108 296.041 46.5122C296.041 45.0373 295.766 43.7529 295.238 42.635C294.709 41.4934 293.998 40.518 293.102 39.7331C292.23 38.9481 291.174 38.3534 289.98 37.9254C288.809 37.4732 287.569 37.2355 286.26 37.1642V28.1015H282.243V37.1642C280.704 37.2831 279.35 37.5924 278.133 38.0919C276.916 38.5675 275.906 39.2099 275.056 40.0185C274.23 40.8273 273.587 41.7788 273.127 42.873C272.668 43.967 272.439 45.1802 272.439 46.5122C272.439 47.868 272.668 49.1051 273.127 50.223C273.61 51.3409 274.276 52.316 275.125 53.1486C275.974 53.9574 276.985 54.5995 278.179 55.0754C279.419 55.5509 280.75 55.8366 282.22 55.9079V62.4017ZM315.557 55.789V37.1166V37.069H311.952C311.31 37.8063 310.643 38.6388 309.955 39.5666C309.266 40.518 308.577 41.4934 307.865 42.54C307.176 43.5627 306.488 44.6094 305.799 45.7034C305.11 46.774 304.445 47.8203 303.802 48.8433V47.107C303.825 46.3457 303.847 45.4419 303.847 44.4429V41.0651C303.87 39.8043 303.87 38.4723 303.87 37.0929H299.784V55.7651H303.457C303.939 54.9089 304.49 53.9335 305.133 52.8632C305.349 52.5155 305.566 52.1652 305.784 51.8125C306.236 51.0794 306.696 50.3354 307.176 49.5806L309.381 46.2268C310.115 45.1089 310.827 44.0859 311.516 43.1584C311.516 43.5864 311.516 44.2048 311.493 45.0613C311.493 45.7781 311.476 46.6185 311.457 47.5669C311.453 47.72 311.45 47.8758 311.447 48.0345V48.0356C311.447 49.1772 311.447 50.4136 311.424 51.7452V55.789H315.557ZM331.284 55.789H335.463V37.1166H331.284V44.3953H324.511V37.1166H320.333V55.789H324.511V47.9868H331.284V55.789ZM384.987 55.789V37.1166V37.069H381.451C380.808 37.8063 380.142 38.6388 379.453 39.5666C379.387 39.6582 379.321 39.75 379.254 39.8421C378.628 40.7064 377.984 41.5941 377.341 42.54C376.652 43.5627 375.964 44.6094 375.275 45.7034C374.586 46.774 373.92 47.8203 373.277 48.8433V47.107C373.3 46.3457 373.3 45.4419 373.3 44.4429V41.0651C373.346 39.8048 373.346 38.4732 373.346 37.0943V37.0929H369.236V55.7651H372.933C373.415 54.9089 373.966 53.9335 374.609 52.8632C375.252 51.7928 375.918 50.6986 376.629 49.5806L378.833 46.2268C379.568 45.1089 380.28 44.0859 380.969 43.1584C380.969 43.4621 380.957 43.8616 380.942 44.3739C380.936 44.5837 380.929 44.8125 380.923 45.0613C380.923 45.8938 380.923 46.8929 380.9 48.0345C380.9 49.0821 380.88 50.2096 380.86 51.4172L380.854 51.7452V55.789H384.987ZM387.306 60.3084V63.7337H395.846V29.1957H387.306V32.6209H391.874V60.3084H387.306ZM282.197 40.7082C281.462 40.7322 280.773 40.8511 280.107 41.0888C279.419 41.3266 278.822 41.6836 278.317 42.1592C277.812 42.6111 277.421 43.1821 277.1 43.8958C276.801 44.6091 276.663 45.4656 276.663 46.4407C276.663 47.4161 276.801 48.2723 277.1 48.9859C277.398 49.6996 277.812 50.2943 278.317 50.7699C278.822 51.2458 279.419 51.6024 280.107 51.8402C280.773 52.0543 281.462 52.1732 282.197 52.1972V48.3109V46.4527V40.7082Z" fill="#1C3782"/>
<path d="M305.642 78.3598C305.444 78.3598 305.277 78.2944 305.141 78.1635C305.015 78.0233 304.952 77.8504 304.952 77.6447V71.3911C304.952 71.1761 305.015 71.0031 305.141 70.8723C305.277 70.7414 305.444 70.676 305.642 70.676C305.85 70.676 306.016 70.7414 306.143 70.8723C306.269 71.0031 306.332 71.1761 306.332 71.3911V71.5453C306.612 71.2555 306.95 71.0265 307.347 70.8583C307.744 70.69 308.173 70.6059 308.633 70.6059C309.256 70.6059 309.811 70.7461 310.298 71.0265C310.794 71.2976 311.182 71.6996 311.462 72.2324C311.75 72.7652 311.895 73.4195 311.895 74.1954V77.6447C311.895 77.8504 311.827 78.0233 311.692 78.1635C311.566 78.2944 311.403 78.3598 311.205 78.3598C311.006 78.3598 310.839 78.2944 310.704 78.1635C310.578 78.0233 310.514 77.8504 310.514 77.6447V74.1954C310.514 73.4008 310.307 72.8213 309.892 72.4567C309.486 72.0828 308.976 71.8959 308.362 71.8959C307.983 71.8959 307.641 71.9753 307.334 72.1342C307.027 72.2931 306.783 72.5081 306.603 72.7792C306.423 73.041 306.332 73.3448 306.332 73.6906V77.6447C306.332 77.8504 306.269 78.0233 306.143 78.1635C306.016 78.2944 305.85 78.3598 305.642 78.3598ZM319.496 78.4019C318.765 78.4019 318.12 78.2383 317.561 77.9111C317.001 77.5746 316.559 77.1166 316.235 76.537C315.919 75.9481 315.761 75.2751 315.761 74.5179C315.761 73.7514 315.919 73.0783 316.235 72.4988C316.559 71.9099 317.001 71.4518 317.561 71.1247C318.12 70.7881 318.765 70.6199 319.496 70.6199C320.218 70.6199 320.859 70.7881 321.418 71.1247C321.978 71.4518 322.415 71.9099 322.731 72.4988C323.056 73.0783 323.218 73.7514 323.218 74.5179C323.218 75.2751 323.06 75.9481 322.744 76.537C322.429 77.1166 321.991 77.5746 321.432 77.9111C320.872 78.2383 320.227 78.4019 319.496 78.4019ZM319.496 77.14C319.965 77.14 320.381 77.0278 320.741 76.8034C321.102 76.5791 321.382 76.2706 321.581 75.878C321.788 75.4854 321.892 75.032 321.892 74.5179C321.892 74.0038 321.788 73.5504 321.581 73.1578C321.382 72.7559 321.102 72.4427 320.741 72.2184C320.381 71.994 319.965 71.8818 319.496 71.8818C319.027 71.8818 318.612 71.994 318.251 72.2184C317.89 72.4427 317.606 72.7559 317.398 73.1578C317.191 73.5504 317.087 74.0038 317.087 74.5179C317.087 75.032 317.191 75.4854 317.398 75.878C317.606 76.2706 317.89 76.5791 318.251 76.8034C318.612 77.0278 319.027 77.14 319.496 77.14ZM327.885 78.3598C327.686 78.3598 327.529 78.2944 327.411 78.1635C327.294 78.0233 327.235 77.8504 327.235 77.6447V71.3911C327.235 71.1761 327.294 71.0031 327.411 70.8723C327.529 70.7414 327.686 70.676 327.885 70.676C328.092 70.676 328.259 70.7414 328.386 70.8723C328.521 71.0031 328.589 71.1761 328.589 71.3911V73.7327H329.617L332.067 70.9003C332.184 70.7695 332.347 70.6947 332.554 70.676C332.771 70.6573 332.938 70.704 333.055 70.8162C333.19 70.9471 333.267 71.0966 333.285 71.2649C333.303 71.4238 333.254 71.5687 333.136 71.6996L330.687 74.4198L333.285 77.3082C333.402 77.4297 333.461 77.5746 333.461 77.7429C333.461 77.9018 333.389 78.0467 333.245 78.1776C333.127 78.2897 332.96 78.3458 332.744 78.3458C332.536 78.3365 332.374 78.271 332.257 78.1495L329.468 75.0507H328.589V77.6447C328.589 77.8504 328.521 78.0233 328.386 78.1635C328.259 78.2944 328.092 78.3598 327.885 78.3598ZM339.797 78.4019C339.066 78.4019 338.421 78.2383 337.862 77.9111C337.302 77.5746 336.86 77.1166 336.535 76.537C336.219 75.9481 336.062 75.2751 336.062 74.5179C336.062 73.7514 336.219 73.0783 336.535 72.4988C336.86 71.9099 337.302 71.4518 337.862 71.1247C338.421 70.7881 339.066 70.6199 339.797 70.6199C340.519 70.6199 341.159 70.7881 341.719 71.1247C342.278 71.4518 342.716 71.9099 343.032 72.4988C343.357 73.0783 343.519 73.7514 343.519 74.5179C343.519 75.2751 343.361 75.9481 343.045 76.537C342.729 77.1166 342.292 77.5746 341.732 77.9111C341.173 78.2383 340.528 78.4019 339.797 78.4019ZM339.797 77.14C340.266 77.14 340.681 77.0278 341.042 76.8034C341.403 76.5791 341.683 76.2706 341.881 75.878C342.089 75.4854 342.193 75.032 342.193 74.5179C342.193 74.0038 342.089 73.5504 341.881 73.1578C341.683 72.7559 341.403 72.4427 341.042 72.2184C340.681 71.994 340.266 71.8818 339.797 71.8818C339.328 71.8818 338.913 71.994 338.552 72.2184C338.191 72.4427 337.907 72.7559 337.699 73.1578C337.492 73.5504 337.388 74.0038 337.388 74.5179C337.388 75.032 337.492 75.4854 337.699 75.878C337.907 76.2706 338.191 76.5791 338.552 76.8034C338.913 77.0278 339.328 77.14 339.797 77.14ZM350.311 70.69C350.59 70.69 350.798 70.8442 350.933 71.1527L353.721 77.4204C353.802 77.6073 353.811 77.7756 353.748 77.9252C353.685 78.0654 353.577 78.1729 353.423 78.2477C353.026 78.4346 352.733 78.3411 352.544 77.9672L350.338 72.7792L348.064 77.9672C347.983 78.1448 347.861 78.2617 347.698 78.3178C347.545 78.3645 347.374 78.3411 347.184 78.2477C347.013 78.1635 346.891 78.0514 346.819 77.9111C346.756 77.7709 346.769 77.6073 346.859 77.4204L349.661 71.1527C349.796 70.8442 350.013 70.69 350.311 70.69ZM360.92 78.4019C360.171 78.4019 359.504 78.2383 358.917 77.9111C358.34 77.5746 357.884 77.1166 357.55 76.537C357.225 75.9481 357.063 75.2751 357.063 74.5179C357.063 73.7514 357.216 73.0783 357.523 72.4988C357.839 71.9099 358.272 71.4518 358.822 71.1247C359.373 70.7881 360.004 70.6199 360.717 70.6199C361.421 70.6199 362.026 70.7835 362.531 71.1106C363.036 71.4285 363.42 71.8725 363.681 72.4427C363.952 73.0036 364.087 73.6532 364.087 74.3917C364.087 74.5693 364.029 74.7189 363.911 74.8404C363.794 74.9526 363.645 75.0087 363.465 75.0087H358.322C358.421 75.6537 358.705 76.1818 359.174 76.5931C359.653 76.9951 360.235 77.196 360.92 77.196C361.2 77.196 361.484 77.1446 361.773 77.0418C362.071 76.9296 362.31 76.8034 362.49 76.6632C362.626 76.5604 362.77 76.509 362.923 76.509C363.086 76.4996 363.226 76.5464 363.343 76.6492C363.496 76.7894 363.578 76.9436 363.587 77.1119C363.596 77.2802 363.523 77.4251 363.37 77.5466C363.063 77.799 362.68 78.0046 362.22 78.1635C361.768 78.3224 361.335 78.4019 360.92 78.4019ZM360.717 71.8257C360.05 71.8257 359.513 72.0174 359.107 72.4006C358.701 72.7839 358.444 73.2793 358.335 73.8869H362.842C362.761 73.2887 362.54 72.7979 362.179 72.4147C361.818 72.0221 361.331 71.8257 360.717 71.8257ZM368.474 78.3458C368.275 78.3458 368.113 78.2804 367.986 78.1495C367.869 78.0093 367.81 77.8364 367.81 77.6307V71.3911C367.81 71.1761 367.869 71.0031 367.986 70.8723C368.113 70.7414 368.275 70.676 368.474 70.676C368.681 70.676 368.848 70.7414 368.974 70.8723C369.101 71.0031 369.164 71.1761 369.164 71.3911V73.7327H373.346V71.3911C373.346 71.1761 373.409 71.0031 373.535 70.8723C373.671 70.7414 373.838 70.676 374.036 70.676C374.244 70.676 374.406 70.7414 374.523 70.8723C374.641 71.0031 374.699 71.1761 374.699 71.3911V77.6307C374.699 77.8364 374.641 78.0093 374.523 78.1495C374.406 78.2804 374.244 78.3458 374.036 78.3458C373.838 78.3458 373.671 78.2804 373.535 78.1495C373.409 78.0093 373.346 77.8364 373.346 77.6307V74.9946H369.164V77.6307C369.164 77.8364 369.101 78.0093 368.974 78.1495C368.848 78.2804 368.681 78.3458 368.474 78.3458ZM382.217 78.4159C381.594 78.4159 381.035 78.2804 380.539 78.0093C380.051 77.7289 379.663 77.3222 379.375 76.7894C379.095 76.2566 378.955 75.6022 378.955 74.8264V71.3771C378.955 71.1714 379.018 71.0031 379.145 70.8723C379.28 70.7321 379.447 70.662 379.645 70.662C379.844 70.662 380.006 70.7321 380.133 70.8723C380.268 71.0031 380.336 71.1714 380.336 71.3771V74.8264C380.336 75.6209 380.539 76.2052 380.945 76.5791C381.36 76.9436 381.874 77.1259 382.488 77.1259C382.876 77.1259 383.218 77.0465 383.516 76.8876C383.823 76.7286 384.067 76.5137 384.247 76.2426C384.428 75.9715 384.518 75.6677 384.518 75.3312V71.3771C384.518 71.1621 384.581 70.9891 384.707 70.8583C384.843 70.7274 385.01 70.662 385.208 70.662C385.416 70.662 385.582 70.7274 385.709 70.8583C385.835 70.9891 385.898 71.1621 385.898 71.3771V77.6307C385.898 77.8364 385.835 78.0093 385.709 78.1495C385.582 78.2804 385.416 78.3458 385.208 78.3458C385.01 78.3458 384.843 78.2804 384.707 78.1495C384.581 78.0093 384.518 77.8364 384.518 77.6307V77.4765C384.238 77.7663 383.9 77.9953 383.503 78.1635C383.106 78.3318 382.677 78.4159 382.217 78.4159ZM390.17 78.1776C390.026 78.0467 389.958 77.9018 389.967 77.7429C389.976 77.584 390.03 77.4391 390.13 77.3082L391.497 75.4574C391.027 75.3078 390.653 75.0414 390.373 74.6581C390.094 74.2749 389.954 73.8168 389.954 73.284C389.954 72.7886 390.067 72.3445 390.292 71.9519C390.527 71.5593 390.842 71.2509 391.239 71.0265C391.646 70.7928 392.11 70.676 392.633 70.676H394.975C395.182 70.676 395.349 70.7414 395.476 70.8723C395.602 71.0031 395.665 71.1761 395.665 71.3911V77.6447C395.656 77.8504 395.588 78.0186 395.462 78.1495C395.345 78.2804 395.182 78.3458 394.975 78.3458C394.785 78.3458 394.628 78.2804 394.501 78.1495C394.375 78.0093 394.312 77.8364 394.312 77.6307V75.7799H393.04L391.267 78.0654C391.113 78.271 390.924 78.3692 390.698 78.3598C390.473 78.3505 390.297 78.2897 390.17 78.1776ZM392.633 74.602H394.312V72.008H392.633C392.273 72.008 391.957 72.1296 391.686 72.3726C391.415 72.6063 391.28 72.9101 391.28 73.284C391.28 73.6766 391.415 73.9944 391.686 74.2375C391.957 74.4805 392.273 74.602 392.633 74.602Z" fill="#1C3782"/>
<g clip-path="url(#clip0)">
<g clip-path="url(#clip1)">
<g clip-path="url(#clip2)">
<path d="M77.7248 74.1544C79.4085 75.2163 78.804 77.5949 76.8257 77.5949L16.6571 77.5984C14.3521 77.5984 12.3468 75.9662 12.3468 73.6068V26.1484H7.4809C3.35584 26.138 0.000223958 22.6137 0.000223958 18.9534C-0.0317663 14.7577 3.36762 11.3329 7.46911 11.3329H23.0989C25.5419 11.3329 27.4647 14.3567 27.4647 16.8573V71.713C27.4665 71.9323 27.5327 72.1459 27.6546 72.3253C27.7765 72.5047 27.9482 72.6413 28.147 72.7171C28.3457 72.7928 28.562 72.8041 28.7671 72.7493C28.9722 72.6945 29.1563 72.5764 29.2949 72.4105L37.8178 62.2579C37.8178 62.2579 49.8057 48.0091 56.3267 40.2857C56.4853 40.0989 56.6901 39.9606 56.919 39.8856C57.148 39.8106 57.3924 39.8018 57.6258 39.8601C57.8592 39.9185 58.0728 40.0417 58.2436 40.2166C58.4143 40.3915 58.5357 40.6113 58.5946 40.8524C59.4718 44.3907 60.6386 48.6595 61.5243 52.3181C61.9334 54.0009 61.5966 55.6314 60.5258 56.8852C58.4852 59.2673 55.6717 62.5195 54.4056 63.9791C54.3484 64.0455 54.3111 64.1278 54.2982 64.2158C54.2854 64.3038 54.2976 64.3938 54.3333 64.4748C54.369 64.5558 54.4267 64.6243 54.4993 64.6719C54.5719 64.7195 54.6564 64.7441 54.7423 64.7429L65.821 64.7132C66.3655 64.7124 66.9036 64.8344 67.3979 65.0708C67.8922 65.3072 68.3309 65.6524 68.6833 66.0822C71.2561 69.2613 74.3095 71.9874 77.7248 74.1544Z" fill="#1C3782"/>
<path d="M126.985 44.6592C126.961 62.9695 112.544 77.656 94.666 77.595C89.6449 77.5892 84.6944 76.3705 80.2078 74.0356C75.7213 71.7007 71.8224 68.314 68.8213 64.1448C66.5001 60.922 64.7729 57.2834 63.7264 53.4115C62.0545 47.3692 60.0963 39.1679 59.0962 34.3375C58.9646 33.5818 58.784 32.836 58.5557 32.1054C58.5551 32.1002 58.5551 32.0949 58.5557 32.0897C58.3062 31.3476 57.9404 30.653 57.4731 30.0337C55.7995 27.5802 53.2875 25.9758 50.2164 25.9758C45.6233 25.9758 42.8704 29.6274 42.5623 34.2503C42.5623 34.2503 42.4411 35.7779 42.3939 36.4371C42.3804 36.6327 42.3551 36.8272 42.3182 37.0195C41.9821 38.615 41.1433 40.0493 39.9337 41.0968C38.7241 42.1442 37.2126 42.7452 35.637 42.8051C34.0614 42.865 32.5113 42.3805 31.2308 41.4278C29.9503 40.4751 29.0122 39.1083 28.564 37.5427C28.3721 36.9951 28.1549 34.5084 28.1549 34.5084C28.3485 21.7122 37.6577 11.3521 50.2097 11.3521C51.0751 11.3521 52.7722 11.4968 52.7722 11.4968C57.158 11.9942 61.3089 13.8041 64.7176 16.7052C68.1263 19.6064 70.6452 23.4732 71.9664 27.833V27.8505C72.1303 28.4771 72.293 29.1037 72.4547 29.7303C73.1164 32.2781 73.773 34.8275 74.4431 37.37C75.4533 41.2413 76.3979 44.9522 77.2414 48.0074C79.5616 56.3778 86.6499 63.1421 95.6745 62.6643C104.883 62.176 112.239 54.4247 112.417 44.9784C112.609 34.838 104.637 26.5548 94.7805 26.5548C91.8354 26.5474 88.9352 27.3022 86.3432 28.7506C83.7513 30.199 81.5498 32.295 79.9387 34.8485C79.6738 35.2692 79.2975 35.602 78.8548 35.8071C78.4121 36.0123 77.9218 36.0811 77.4423 36.0053C76.9629 35.9295 76.5147 35.7124 76.1512 35.3799C75.7878 35.0473 75.5245 34.6134 75.3927 34.13C74.6064 31.3067 73.6484 28.1051 73.0861 25.5521C72.4126 22.4917 73.9077 19.3162 76.4215 17.5305C81.6308 13.8214 87.9497 11.3381 94.7738 11.3381C112.567 11.3329 127.008 26.4327 126.985 44.6592Z" fill="#1C3782"/>
<path d="M23.6461 65.4108C23.6633 65.9922 23.5159 66.5661 23.2222 67.0619C22.9284 67.5576 22.501 67.9536 21.9927 68.2009C21.4122 68.4763 20.779 68.6117 20.1407 68.5968H15.6856C15.6069 68.6016 15.528 68.5901 15.4537 68.5629C15.3794 68.5356 15.3111 68.4932 15.2529 68.4381C15.1437 68.3183 15.0829 68.1599 15.0829 67.9951C15.0829 67.8304 15.1437 67.672 15.2529 67.5522C15.3085 67.4925 15.376 67.4459 15.4507 67.4158C15.5255 67.3857 15.6056 67.3727 15.6856 67.3778H20.1373C20.8691 67.3778 21.4461 67.1878 21.8681 66.8076C22.0756 66.6183 22.2401 66.3838 22.3499 66.1209C22.4596 65.858 22.5118 65.5732 22.5029 65.287C22.5129 64.9893 22.4615 64.6928 22.3521 64.4173C22.2426 64.1418 22.0776 63.8938 21.8681 63.6896C21.4461 63.2676 20.8848 63.0619 20.1844 63.0723H15.6856C15.6069 63.0772 15.528 63.0657 15.4537 63.0384C15.3794 63.0112 15.3111 62.9687 15.2529 62.9136C15.1437 62.7939 15.0829 62.6354 15.0829 62.4707C15.0829 62.306 15.1437 62.1475 15.2529 62.0278C15.3085 61.968 15.376 61.9215 15.4507 61.8913C15.5255 61.8612 15.6056 61.8483 15.6856 61.8534H20.1373C20.8691 61.8534 21.4461 61.6633 21.8681 61.2831C22.0755 61.0941 22.2399 60.8599 22.3497 60.5973C22.4594 60.3347 22.5117 60.0502 22.5029 59.7643C22.5124 59.4656 22.4625 59.1681 22.3562 58.8903C22.2499 58.6124 22.0895 58.3603 21.885 58.1495C21.671 57.9387 21.4185 57.7741 21.1425 57.6655C20.8664 57.5568 20.5722 57.5061 20.277 57.5165H15.6856C15.6069 57.5214 15.528 57.5098 15.4537 57.4826C15.3794 57.4553 15.3111 57.4129 15.2529 57.3578C15.1437 57.238 15.0829 57.0796 15.0829 56.9149C15.0829 56.7501 15.1437 56.5917 15.2529 56.4719C15.3085 56.4122 15.376 56.3656 15.4507 56.3355C15.5255 56.3054 15.6056 56.2924 15.6856 56.2975H22.9356C23.0533 56.2996 23.1679 56.3367 23.2658 56.4043C23.3637 56.4719 23.4408 56.5672 23.488 56.6788C23.5352 56.7905 23.5504 56.9138 23.5319 57.0342C23.5133 57.1545 23.4618 57.2669 23.3835 57.3578C23.2588 57.4673 23.0989 57.5239 22.9356 57.5165H22.3951C22.7769 57.7801 23.094 58.1324 23.3212 58.5453C23.5406 58.9566 23.6526 59.42 23.6461 59.8898C23.6593 60.5076 23.4926 61.1152 23.1679 61.6337C22.8288 62.1363 22.3563 62.5264 21.8075 62.7567C22.3431 62.9733 22.8096 63.3405 23.1545 63.8169C23.4815 64.2786 23.6542 64.8382 23.6461 65.4108ZM23.5384 53.7271C23.542 53.8055 23.5302 53.8839 23.5035 53.9573C23.4769 54.0308 23.436 54.0979 23.3835 54.1544C23.2638 54.2621 23.1092 54.3188 22.9507 54.3131H15.6856C15.6069 54.3179 15.528 54.3064 15.4537 54.2791C15.3794 54.2519 15.3111 54.2095 15.2529 54.1544C15.1962 54.1004 15.1517 54.0341 15.1226 53.9602C15.0935 53.8864 15.0805 53.8068 15.0845 53.7271C15.0794 53.645 15.0919 53.5628 15.121 53.4862C15.1501 53.4096 15.1951 53.3407 15.2529 53.2842C15.3085 53.2244 15.376 53.1779 15.4507 53.1478C15.5255 53.1177 15.6056 53.1047 15.6856 53.1098H18.7466V51.7008L15.268 48.5759C15.1607 48.4746 15.0946 48.3348 15.083 48.1849C15.0715 48.035 15.1153 47.8861 15.2057 47.7685C15.3035 47.6496 15.4427 47.5756 15.593 47.5627C15.6632 47.5588 15.7335 47.5694 15.7997 47.5939C15.8659 47.6185 15.9267 47.6565 15.9786 47.7057L19.2567 50.6807L22.6241 47.5418C22.7288 47.4395 22.8674 47.3827 23.0114 47.3831C23.0826 47.3859 23.1524 47.4043 23.2162 47.4371C23.28 47.4698 23.3365 47.5162 23.3818 47.5732C23.4344 47.6296 23.4754 47.6966 23.502 47.7701C23.5286 47.8436 23.5404 47.922 23.5367 48.0004C23.5397 48.0776 23.5262 48.1546 23.4971 48.2257C23.4679 48.2969 23.424 48.3605 23.3683 48.4119L19.8325 51.7043V53.0993H22.9558C23.0356 53.0963 23.1151 53.1103 23.1895 53.1403C23.264 53.1702 23.3317 53.2157 23.3885 53.2737C23.4425 53.3344 23.4837 53.406 23.5095 53.4841C23.5353 53.5622 23.5451 53.6449 23.5384 53.7271ZM23.6158 43.1421C23.6294 43.9358 23.4369 44.7187 23.0585 45.4091C22.6965 46.0673 22.1671 46.6101 21.528 46.9785C20.8445 47.3529 20.083 47.5487 19.3097 47.5487C18.5365 47.5487 17.775 47.3529 17.0915 46.9785C16.4531 46.6091 15.924 46.0665 15.561 45.4091C15.1839 44.7182 14.9921 43.9355 15.0054 43.1421C14.9911 42.3546 15.1831 41.5778 15.561 40.8943C15.9247 40.2374 16.4536 39.6949 17.0915 39.3248C17.7723 38.9332 18.5385 38.7285 19.3173 38.7302C20.0916 38.7165 20.8552 38.9189 21.528 39.3161C22.1666 39.6852 22.6958 40.2279 23.0585 40.8856C23.438 41.5691 23.6306 42.3468 23.6158 43.1351V43.1421ZM22.5332 43.1421C22.5425 42.5641 22.3981 41.9945 22.1156 41.4959C21.8429 41.0142 21.4474 40.6196 20.9724 40.3554C20.4601 40.0849 19.8932 39.9439 19.3182 39.9439C18.7431 39.9439 18.1762 40.0849 17.6639 40.3554C17.1824 40.6165 16.7807 41.0114 16.5039 41.4959C16.2899 41.8646 16.15 42.2742 16.0926 42.7002C16.0352 43.1262 16.0615 43.5598 16.1698 43.9751C16.2781 44.3903 16.4663 44.7787 16.723 45.1168C16.9798 45.4549 17.2998 45.7358 17.6639 45.9427C18.1762 46.2132 18.7431 46.3542 19.3182 46.3542C19.8932 46.3542 20.4601 46.2132 20.9724 45.9427C21.4534 45.6665 21.8528 45.2599 22.1278 44.7666C22.4027 44.2732 22.5429 43.7116 22.5332 43.1421ZM15.0828 34.0044C15.0804 33.8742 15.1171 33.7465 15.1881 33.6389C15.259 33.5314 15.3605 33.4495 15.4785 33.4045L22.7756 29.9692C22.839 29.9325 22.91 29.9119 22.9826 29.9091C23.0552 29.9064 23.1274 29.9216 23.1932 29.9535C23.3236 30.0121 23.4281 30.1191 23.4862 30.2534C23.6411 30.6127 23.5535 30.8766 23.2235 31.0451L16.8541 33.9573L23.2084 36.9497C23.2809 36.9818 23.3461 37.0294 23.3995 37.0896C23.4529 37.1497 23.4934 37.2209 23.5182 37.2985C23.5582 37.4521 23.5414 37.6157 23.471 37.7571C23.4094 37.8928 23.3065 38.0037 23.178 38.0728C23.1109 38.0991 23.0394 38.1112 22.9677 38.1085C22.896 38.1059 22.8256 38.0884 22.7605 38.0571L15.4785 34.5746C15.3636 34.5338 15.2638 34.457 15.1929 34.3548C15.1221 34.2527 15.0836 34.1302 15.0828 34.0044ZM23.6158 24.9836C23.6267 25.7515 23.4327 26.5076 23.0551 27.1686C22.6765 27.8102 22.144 28.3394 21.5095 28.7049C20.8371 29.0787 20.0838 29.2689 19.3207 29.2577C18.5486 29.2708 17.7865 29.0748 17.11 28.6892C16.462 28.301 15.9257 27.7409 15.5564 27.0665C15.187 26.3922 14.998 25.628 15.0087 24.8528C14.996 24.0684 15.1936 23.2957 15.5795 22.6207C15.9432 21.9638 16.4721 21.4213 17.11 21.0512C17.7835 20.6542 18.5457 20.4467 19.3207 20.4496H22.9541C23.0339 20.447 23.1133 20.4611 23.1876 20.4911C23.262 20.5211 23.3297 20.5663 23.3868 20.624C23.4863 20.7489 23.5407 20.9058 23.5407 21.0678C23.5407 21.2298 23.4863 21.3867 23.3868 21.5116C23.3298 21.5694 23.2621 21.6147 23.1877 21.6447C23.1133 21.6746 23.0339 21.6887 22.9541 21.686H22.0112C22.5074 22.0453 22.9118 22.524 23.1898 23.0811C23.4801 23.6695 23.6264 24.3228 23.6158 24.9836ZM22.5332 24.858C22.5423 24.2925 22.4016 23.7353 22.1264 23.2468C21.8513 22.7583 21.4522 22.3572 20.9724 22.0871C20.4655 21.7992 19.8954 21.6521 19.3173 21.6598C18.7407 21.6503 18.1718 21.7976 17.6673 22.0871C17.1929 22.3527 16.7972 22.7469 16.5224 23.2275C16.2302 23.7168 16.08 24.2828 16.0897 24.858C16.0829 25.4329 16.2329 25.998 16.5224 26.4885C16.799 26.9712 17.194 27.3695 17.6673 27.6429C18.1723 27.9343 18.7427 28.0823 19.3207 28.0719C19.899 28.0799 20.4693 27.9321 20.9758 27.6429C21.4489 27.3699 21.8435 26.9715 22.119 26.4885C22.3988 25.9946 22.542 25.4306 22.5332 24.858Z" fill="#F8F7F2"/>
</g>
</g>
</g>
<rect x="171.352" width="5.02909" height="88.7339" fill="#1C3782"/>
<defs>
<clipPath id="clip0">
<rect width="126.985" height="66.969" fill="white" transform="translate(0 10.9756)"/>
</clipPath>
<clipPath id="clip1">
<rect width="126.985" height="67.0073" fill="white" transform="translate(0 10.9756)"/>
</clipPath>
<clipPath id="clip2">
<rect width="126.985" height="66.2656" fill="white" transform="translate(0 11.3329)"/>
</clipPath>
</defs>
</svg>
