<svg width="152" height="198" viewBox="0 0 152 198" fill="none" xmlns="http://www.w3.org/2000/svg">
<path d="M152 0H0V197.448L152 141.968V0Z" fill="#C1272D"/>
<g clip-path="url(#clip0)">
<path d="M56.8616 81.2306H55.3147V77.4802H53.9548V86.1998H55.3147V82.4494H56.8616V86.1998H58.2526V77.5052H56.8616V81.2306ZM114.373 77.5052H113.013V86.1998H114.373V77.5052ZM60.5044 77.5052L59.1197 86.1998H60.3672L60.6042 84.6184H62.2759L62.513 86.1998H63.8915L62.5005 77.5052H60.5044ZM60.7789 83.4433L61.4401 79.0678L62.095 83.4433H60.7789ZM72.2999 81.093L71.8072 83.0057V77.5052H70.5596V86.1998H71.9631L73.1046 82.2119L73.6598 80.0742V86.1998H74.9073V77.5052H73.404L72.2999 81.093ZM93.951 83.9996L94.1007 78.7491H95.2921V86.1998H96.6769V77.5052H92.822L92.5974 84.0746C92.5974 84.8809 92.3729 84.9684 91.7553 84.9684V86.2186H91.9674C93.3272 86.2186 93.9011 85.5935 93.951 84.0058V83.9996ZM112.227 84.0558V82.9182C112.227 81.5243 111.56 80.768 110.194 80.768H109.57V77.5052H108.204V86.1998H110.206C111.573 86.1998 112.24 85.4435 112.24 84.0496L112.227 84.0558ZM109.583 81.9869H110.206C110.643 81.9869 110.88 82.1869 110.88 82.8057V84.1121C110.88 84.7372 110.643 84.9309 110.206 84.9309H109.583V81.9869ZM101.829 84.0496V82.9182C101.829 81.5243 101.162 80.768 99.7957 80.768H99.172V77.5052H97.8059V86.1998H99.8145C101.181 86.1998 101.848 85.4435 101.848 84.0496H101.829ZM99.1533 81.9869H99.777C100.214 81.9869 100.451 82.1869 100.451 82.8057V84.1121C100.451 84.7372 100.214 84.9309 99.777 84.9309H99.1533V81.9869ZM104.143 82.4494H105.69V86.1998H107.088V77.5052H105.697V81.2556H104.15V77.5052H102.784V86.1998H104.15L104.143 82.4494ZM69.0376 77.5052H67.6653V84.9559H66.1184V77.5052H64.7523V86.1998H68.3265V87.3687H69.6614V84.9809H69.0376V77.5052ZM89.622 86.1998H91.0006L89.6158 77.5052H87.6135L86.2287 86.1998H87.4763L87.7133 84.6184H89.385L89.622 86.1998ZM87.888 83.4433L88.5492 79.0678L89.2041 83.4433H87.888ZM119.145 78.7491V77.4989H115.402V86.1998H119.145V84.9497H116.787V82.4119H118.659V81.1618H116.787V78.7491H119.145ZM77.9762 77.4052C76.6351 77.4052 75.9053 78.199 75.9053 79.5929V84.1121C75.9053 85.506 76.6351 86.2998 77.9762 86.2998C79.3174 86.2998 80.0472 85.506 80.0472 84.1121V79.5929C80.0472 78.199 79.3174 77.4052 77.9762 77.4052ZM78.7061 84.1996C78.7061 84.8247 78.4316 85.0559 77.995 85.0559C77.5583 85.0559 77.2901 84.8247 77.2901 84.1996V79.4866C77.2901 78.8616 77.5646 78.6303 77.995 78.6303C78.4254 78.6303 78.7061 78.8616 78.7061 79.4866V84.1996ZM82.4487 82.4744H84.0081V86.2248H85.3929V77.5052H84.0081V81.2556H82.4487V77.5052H81.0889V86.1998H82.4487V82.4744ZM101.58 89.1813V87.9312H97.8371V96.6383H101.58V95.3882H99.2281V92.8442H101.099V91.5941H99.2281V89.1813H101.58ZM105.672 96.6383H107.088L105.216 91.8129L107.088 87.9375H105.722L103.938 91.7316V87.9375H102.572V96.6383H103.938V93.9631L104.356 93.1692L105.672 96.6383ZM110.562 96.6383V89.1813H111.984V87.9312H107.774V89.1813H109.196V96.6383H110.562ZM116.893 94.4881V93.3568C116.893 91.9629 116.226 91.2065 114.86 91.2065H114.236V87.9375H112.87V96.6383H114.879C116.245 96.6383 116.912 95.8758 116.912 94.4881H116.893ZM114.236 92.4504H114.86C115.296 92.4504 115.527 92.6504 115.527 93.2692V94.5756C115.527 95.2007 115.296 95.3945 114.86 95.3945H114.236V92.4504ZM91.8863 91.2003V90.1127C91.8863 88.7188 91.2189 87.9625 89.8528 87.9625H87.8443V96.6383H89.2104V93.3693H89.8341C91.2002 93.3693 91.8676 92.6129 91.8676 91.219L91.8863 91.2003ZM89.1916 89.1813H89.8154C90.2458 89.1813 90.4828 89.3814 90.4828 90.0002V91.3066C90.4828 91.9316 90.2458 92.1254 89.8154 92.1254H89.1916V89.1813ZM82.4362 96.6383H83.796V89.1813H85.3492V96.6383H86.734V87.9375H82.4362V96.6383ZM117.679 96.6383H119.039V87.9437H117.692L117.679 96.6383ZM94.7682 87.8375C93.4333 87.8375 92.7035 88.6375 92.7035 90.0252V94.5506C92.7035 95.9383 93.4333 96.7383 94.7682 96.7383C96.103 96.7383 96.8391 95.9383 96.8391 94.5506V90.0252C96.8391 88.6375 96.1093 87.8375 94.7682 87.8375ZM95.4793 94.6319C95.4793 95.2569 95.2048 95.4882 94.7682 95.4882C94.3315 95.4882 94.0633 95.2569 94.0633 94.6319V89.9377C94.0633 89.3126 94.3377 89.0813 94.7682 89.0813C95.1986 89.0813 95.4793 89.3189 95.4793 89.9377V94.6319ZM116.444 101.989L115.945 103.902V98.401H114.735V107.071H116.132L117.274 103.083L117.829 100.945V107.071H119.076V98.376H117.573L116.444 101.989ZM96.2839 98.301C94.949 98.301 94.213 99.0948 94.213 100.489V105.008C94.213 106.402 94.949 107.196 96.2839 107.196C97.6188 107.196 98.3548 106.364 98.3548 104.983V100.464C98.3548 99.0698 97.625 98.276 96.2839 98.276V98.301ZM96.9888 105.07C96.9888 105.695 96.7206 105.927 96.2839 105.927C95.8473 105.927 95.5791 105.695 95.5791 105.07V100.376C95.5791 99.7511 95.8535 99.5199 96.2839 99.5199C96.7143 99.5199 96.9888 99.7574 96.9888 100.376V105.07ZM91.3748 98.376H89.3663V107.071H90.7261V103.808H91.3499C92.7159 103.808 93.3834 103.045 93.3834 101.651V100.526C93.3834 99.1323 92.7159 98.376 91.3499 98.376H91.3748ZM92.0173 101.739C92.0173 102.364 91.7803 102.564 91.3499 102.564H90.7261V99.6199H91.3499C91.7803 99.6199 92.0173 99.8136 92.0173 100.439V101.739ZM101.336 98.276C99.9953 98.276 99.303 99.0698 99.303 100.464V104.983C99.303 106.377 99.9953 107.171 101.336 107.171C102.678 107.171 103.345 106.364 103.345 104.983V103.827H102.06V105.077C102.06 105.702 101.786 105.92 101.349 105.92C100.912 105.92 100.644 105.702 100.644 105.077V100.376C100.644 99.7511 100.919 99.5199 101.349 99.5199C101.779 99.5199 102.06 99.7574 102.06 100.376V101.308H103.345V100.464C103.345 99.0698 102.653 98.276 101.318 98.276H101.336ZM106.308 98.276C104.973 98.276 104.274 99.0698 104.274 100.464V104.983C104.274 106.377 104.973 107.171 106.308 107.171C107.643 107.171 108.335 106.364 108.335 104.983V103.827H107.05V105.077C107.05 105.702 106.776 105.92 106.339 105.92C105.902 105.92 105.634 105.702 105.634 105.077V100.376C105.634 99.7511 105.909 99.5199 106.339 99.5199C106.77 99.5199 107.05 99.7574 107.05 100.376V101.308H108.335V100.464C108.335 99.0698 107.643 98.276 106.302 98.276H106.308ZM111.017 101.989L110.525 103.864V98.3635H109.308V107.071H110.712L111.853 103.083L112.408 100.945V107.071H113.656V98.376H112.153L111.017 101.989Z" fill="#F8F7F2"/>
<path d="M131.662 51.9839H53.8282C53.6512 51.9836 53.4781 52.0364 53.3314 52.1356C53.1846 52.2348 53.0709 52.3757 53.0048 52.5403L20.1258 143.437L19.8451 144.062C19.7853 144.196 19.7596 144.342 19.7701 144.489C19.7807 144.635 19.8274 144.776 19.9058 144.9C19.9843 145.024 20.0922 145.127 20.2199 145.198C20.3475 145.27 20.491 145.309 20.6373 145.312C20.7437 145.311 20.8492 145.292 20.9492 145.256L121.314 108.646C121.486 108.585 121.634 108.472 121.739 108.324C121.844 108.175 121.9 107.997 121.9 107.814V87.9625L132.037 82.1869C132.184 82.1134 132.307 82 132.393 81.8597C132.479 81.7194 132.524 81.5578 132.523 81.3931V52.8653C132.523 52.6348 132.433 52.4134 132.272 52.2486C132.111 52.0839 131.892 51.9889 131.662 51.9839ZM120.59 107.514L21.4607 143.674L52.9112 76.0926H120.59V107.514ZM131.899 81.3931C131.9 81.4374 131.888 81.4809 131.865 81.5186C131.842 81.5563 131.808 81.5865 131.768 81.6056L121.932 87.1999V75.6675C121.93 75.4326 121.836 75.2078 121.67 75.0417C121.505 74.8756 121.28 74.7816 121.046 74.78H52.6368C52.4687 74.78 52.3042 74.8283 52.1627 74.9192C52.0212 75.01 51.9087 75.1396 51.8384 75.2925L23.2197 136.792L53.6099 52.7778C53.6233 52.7298 53.6518 52.6875 53.6911 52.6571C53.7304 52.6267 53.7785 52.6099 53.8282 52.609H131.662C131.724 52.609 131.783 52.6332 131.828 52.6764C131.872 52.7196 131.898 52.7784 131.899 52.8403V81.3931Z" fill="#F8F7F2"/>
<path d="M68.8504 65.5727C68.8632 66.0882 68.7631 66.6003 68.5573 67.0729C68.3789 67.4775 68.0862 67.8208 67.7152 68.0605C67.3404 68.2916 66.9076 68.4108 66.4676 68.4042C66.0251 68.4155 65.5892 68.2958 65.2142 68.0601C64.8392 67.8244 64.5418 67.4832 64.3593 67.0791C64.1506 66.6156 64.0442 66.1124 64.0474 65.604V65.2789C64.0366 64.763 64.1388 64.2509 64.3468 63.7788C64.5258 63.371 64.8209 63.0253 65.1951 62.7849C65.5694 62.5519 66.0021 62.4305 66.4427 62.4349C66.8825 62.43 67.3148 62.5491 67.6902 62.7787C68.0626 63.0157 68.3575 63.3569 68.5386 63.76C68.7443 64.2307 68.8464 64.7402 68.838 65.2539L68.8504 65.5727ZM67.8337 65.2539C67.8657 64.734 67.7372 64.2168 67.4657 63.7725C67.3459 63.6133 67.1909 63.4842 67.0128 63.3952C66.8348 63.3063 66.6385 63.26 66.4396 63.26C66.2406 63.26 66.0444 63.3063 65.8663 63.3952C65.6882 63.4842 65.5332 63.6133 65.4135 63.7725C65.1416 64.2055 65.0088 64.7117 65.033 65.2227V65.554C65.0004 66.0748 65.1312 66.5928 65.4072 67.0354C65.5213 67.2036 65.6761 67.3401 65.8573 67.432C66.0384 67.5238 66.2398 67.568 66.4427 67.5604C66.6435 67.5695 66.8434 67.5272 67.0234 67.4375C67.2035 67.3479 67.3578 67.2138 67.4719 67.0479C67.7404 66.598 67.8665 66.0771 67.8337 65.554V65.2539Z" fill="#F8F7F2"/>
<path d="M73.5162 63.3351H70.8464V64.7415H72.0316C72.4151 64.7341 72.7957 64.8087 73.1482 64.9602C73.4453 65.0904 73.6956 65.3085 73.8655 65.5853C74.0336 65.8687 74.12 66.1932 74.115 66.5229C74.1245 66.7682 74.0796 67.0126 73.9836 67.2384C73.8876 67.4643 73.7429 67.6661 73.5599 67.8293C73.1392 68.1798 72.6031 68.3604 72.0566 68.3356H69.8359V62.5225H73.5162V63.3351ZM70.8464 65.554V67.523H72.0316C72.1757 67.5316 72.3201 67.5111 72.4562 67.4628C72.5922 67.4145 72.7172 67.3393 72.8238 67.2417C72.9196 67.1464 72.9946 67.0322 73.044 66.9063C73.0934 66.7804 73.1162 66.6456 73.1107 66.5104C73.1172 66.3812 73.0954 66.2522 73.047 66.1324C72.9985 66.0125 72.9244 65.9047 72.83 65.8166C72.6131 65.637 72.3378 65.5436 72.0566 65.554H70.8464Z" fill="#F8F7F2"/>
<path d="M75.9492 66.1729V68.3294H74.9449V62.5163H77.1469C77.7075 62.4859 78.2592 62.6665 78.6938 63.0226C78.8817 63.1906 79.0301 63.3983 79.1282 63.6307C79.2264 63.863 79.2719 64.1144 79.2614 64.3665C79.2756 64.616 79.2329 64.8656 79.1368 65.0962C79.0406 65.3268 78.8934 65.5326 78.7063 65.6979C78.2596 66.0374 77.7066 66.2059 77.1469 66.1729H75.9492ZM75.9492 65.3603H77.1469C77.447 65.3859 77.7456 65.2965 77.9827 65.1103C78.0797 65.0162 78.1551 64.902 78.2035 64.7757C78.252 64.6494 78.2724 64.514 78.2634 64.379C78.2703 64.2408 78.2483 64.1028 78.1989 63.9736C78.1495 63.8444 78.0738 63.727 77.9765 63.6289C77.8714 63.5307 77.7476 63.4546 77.6126 63.4052C77.4776 63.3558 77.3341 63.3341 77.1905 63.3414H75.943L75.9492 65.3603Z" fill="#F8F7F2"/>
<path d="M83.004 66.9855H80.7585L80.2657 68.3294H79.2365L81.4321 62.5163H82.3366L84.5261 68.3294H83.4781L83.004 66.9855ZM81.0392 66.1604H82.7171L81.8812 63.7477L81.0392 66.1604Z" fill="#F8F7F2"/>
<path d="M88.1251 64.1038C88.1288 63.9839 88.1042 63.8648 88.0532 63.7561C88.0023 63.6475 87.9265 63.5525 87.832 63.4788C87.5983 63.3111 87.3141 63.2294 87.0273 63.2475C86.7666 63.2375 86.5106 63.3193 86.3037 63.4788C86.2109 63.5469 86.1358 63.6365 86.0848 63.7398C86.0338 63.8432 86.0083 63.9573 86.0106 64.0726H85.0125C85.0055 63.7749 85.0905 63.4824 85.2558 63.235C85.4426 62.9806 85.6949 62.7819 85.9856 62.6599C86.3083 62.5197 86.6569 62.4494 87.0086 62.4537C87.559 62.4182 88.1049 62.5726 88.5555 62.8912C88.7378 63.0344 88.8833 63.2192 88.9798 63.4301C89.0764 63.641 89.1213 63.872 89.1107 64.1038C89.1121 64.3659 89.0265 64.6209 88.8674 64.8289C88.6986 65.0633 88.4673 65.2453 88.2 65.354C88.4945 65.4436 88.7538 65.6227 88.9423 65.8665C89.1207 66.1105 89.2109 66.4081 89.198 66.7103C89.2067 66.9511 89.1573 67.1904 89.0542 67.408C88.9511 67.6256 88.7971 67.8151 88.6054 67.9605C88.1394 68.2885 87.5774 68.4513 87.0086 68.423C86.6294 68.4273 86.2535 68.3528 85.9045 68.2042C85.5996 68.0734 85.3394 67.8561 85.156 67.5792C84.9878 67.3212 84.9009 67.0185 84.9065 66.7103H85.9108C85.9122 66.8314 85.941 66.9505 85.995 67.0588C86.049 67.1671 86.1269 67.2617 86.2227 67.3354C86.4462 67.5111 86.7246 67.6019 87.0086 67.5917C87.3154 67.6072 87.6185 67.5192 87.8694 67.3417C87.9725 67.2668 88.0558 67.1679 88.1123 67.0536C88.1688 66.9393 88.1968 66.8129 88.1938 66.6853C88.2056 66.5523 88.1858 66.4183 88.1359 66.2944C88.086 66.1706 88.0075 66.0603 87.9068 65.9728C87.6592 65.8112 87.3659 65.7344 87.071 65.754H86.3911V64.9664H87.0148C87.7259 64.9664 88.0815 64.6789 88.0815 64.1038" fill="#F8F7F2"/>
<path d="M94.8057 65.5727C94.8185 66.0882 94.7184 66.6003 94.5126 67.0729C94.3342 67.4775 94.0415 67.8208 93.6705 68.0605C93.2912 68.2799 92.8609 68.3954 92.4229 68.3954C91.985 68.3954 91.5547 68.2799 91.1754 68.0605C90.801 67.8241 90.5039 67.4829 90.3208 67.0791C90.1114 66.6161 90.007 66.1123 90.0152 65.604V65.2789C90.0044 64.763 90.1066 64.2509 90.3146 63.7788C90.4913 63.3696 90.7869 63.0233 91.1629 62.7849C91.5372 62.5519 91.9699 62.4305 92.4105 62.4349C92.8503 62.43 93.2826 62.5491 93.658 62.7787C94.0304 63.0157 94.3253 63.3569 94.5063 63.76C94.715 64.2297 94.8172 64.7399 94.8057 65.2539V65.5727ZM93.8015 65.2539C93.8334 64.734 93.7049 64.2168 93.4334 63.7725C93.3137 63.6133 93.1587 63.4842 92.9806 63.3952C92.8025 63.3063 92.6063 63.26 92.4073 63.26C92.2084 63.26 92.0121 63.3063 91.8341 63.3952C91.656 63.4842 91.501 63.6133 91.3812 63.7725C91.1093 64.2055 90.9765 64.7117 91.0007 65.2227V65.554C90.9682 66.0748 91.099 66.5928 91.375 67.0354C91.489 67.2036 91.6439 67.3401 91.825 67.4319C92.0062 67.5238 92.2076 67.568 92.4105 67.5604C92.6113 67.5695 92.8112 67.5272 92.9912 67.4375C93.1713 67.3478 93.3256 67.2138 93.4397 67.0479C93.7081 66.598 93.8343 66.0771 93.8015 65.554V65.2539Z" fill="#F8F7F2"/>
<path d="M95.8038 68.3294V62.5164H97.7874C98.3175 62.4839 98.8442 62.6219 99.2907 62.9102C99.4629 63.0527 99.599 63.234 99.6879 63.4393C99.7768 63.6447 99.8159 63.8681 99.8022 64.0915C99.8034 64.3458 99.7272 64.5943 99.5839 64.8041C99.4295 65.0286 99.2125 65.2025 98.9601 65.3041C99.2533 65.3712 99.5125 65.5421 99.6899 65.7854C99.8657 66.0307 99.9556 66.3274 99.9456 66.6293C99.9599 66.864 99.9201 67.0988 99.8292 67.3156C99.7384 67.5324 99.5989 67.7253 99.4217 67.8794C98.9907 68.2 98.4603 68.3572 97.9246 68.3232L95.8038 68.3294ZM96.8143 64.9541H97.7999C98.0614 64.9706 98.3209 64.8979 98.5359 64.7478C98.6278 64.6732 98.7003 64.5774 98.747 64.4685C98.7937 64.3596 98.8133 64.2409 98.8041 64.1228C98.8153 64.0068 98.7991 63.8898 98.7568 63.7812C98.7146 63.6726 98.6475 63.5755 98.5609 63.4977C98.3321 63.3536 98.0629 63.2878 97.7936 63.3102H96.8143V64.9541ZM96.8143 65.6979V67.5169H97.9371C98.2034 67.5321 98.4658 67.4474 98.6732 67.2793C98.7641 67.1971 98.8354 67.0954 98.8818 66.9818C98.9283 66.8682 98.9486 66.7456 98.9414 66.623C98.9506 66.5003 98.9326 66.377 98.8885 66.2621C98.8444 66.1472 98.7754 66.0436 98.6865 65.9586C98.5975 65.8737 98.4909 65.8096 98.3743 65.771C98.2576 65.7324 98.1339 65.7203 98.012 65.7354L96.8143 65.6979Z" fill="#F8F7F2"/>
<path d="M104.169 66.9855H101.923L101.474 68.3294H100.426L102.622 62.5163H103.526L105.722 68.3294H104.668L104.169 66.9855ZM102.229 66.1604H103.913L103.071 63.7477L102.229 66.1604Z" fill="#F8F7F2"/>
<path d="M111.03 68.3294H110.026V65.7479H107.431V68.3294H106.427V62.5163H107.431V64.9353H110.026V62.5163H111.03" fill="#F8F7F2"/>
<path d="M115.746 62.5163H116.756V68.3294H115.746V64.1915L113.201 68.3294H112.196V62.5163H113.201V66.6605" fill="#F8F7F2"/>
<path d="M121.322 65.7354H118.945V67.5231H121.727V68.3294H117.935V62.5163H121.703V63.3352H118.945V64.9353H121.322" fill="#F8F7F2"/>
</g>
<defs>
<clipPath id="clip0">
<rect width="112.784" height="93.328" fill="white" transform="translate(19.7599 51.9839)"/>
</clipPath>
</defs>
</svg>
