<svg width="8" height="14" viewBox="0 0 8 14" fill="none" xmlns="http://www.w3.org/2000/svg">
<path d="M0.645106 0.645917C0.598543 0.692363 0.561601 0.747539 0.536394 0.808284C0.511188 0.869029 0.498213 0.93415 0.498213 0.999917C0.498213 1.06568 0.511188 1.13081 0.536394 1.19155C0.561601 1.2523 0.598543 1.30747 0.645106 1.35392L6.29211 6.99992L0.645106 12.6459C0.55122 12.7398 0.498475 12.8671 0.498475 12.9999C0.498475 13.1327 0.55122 13.26 0.645106 13.3539C0.738993 13.4478 0.866331 13.5005 0.999106 13.5005C1.13188 13.5005 1.25922 13.4478 1.35311 13.3539L7.35311 7.35392C7.39967 7.30747 7.43661 7.2523 7.46182 7.19155C7.48703 7.13081 7.5 7.06568 7.5 6.99992C7.5 6.93415 7.48703 6.86903 7.46182 6.80828C7.43661 6.74754 7.39967 6.69236 7.35311 6.64592L1.35311 0.645917C1.30666 0.599354 1.25148 0.562411 1.19074 0.537205C1.12999 0.511998 1.06487 0.499023 0.999106 0.499023C0.933339 0.499023 0.868218 0.511998 0.807473 0.537205C0.746728 0.562411 0.691552 0.599354 0.645106 0.645917V0.645917Z" fill="#1C3782"/>
</svg>
