<svg width="220" height="220" viewBox="0 0 220 220" fill="none" xmlns="http://www.w3.org/2000/svg">
<circle cx="75" cy="5" r="5" transform="rotate(90 75 5)" fill="#1C3782" fill-opacity="0.75"/>
<circle cx="110" cy="5" r="5" transform="rotate(90 110 5)" fill="#1C3782" fill-opacity="0.75"/>
<circle cx="145" cy="5" r="5" transform="rotate(90 145 5)" fill="#1C3782" fill-opacity="0.75"/>
<circle cx="180" cy="5" r="5" transform="rotate(90 180 5)" fill="#1C3782" fill-opacity="0.75"/>
<circle cx="215" cy="5" r="5" transform="rotate(90 215 5)" fill="#1C3782" fill-opacity="0.75"/>
<circle cx="75" cy="40" r="5" transform="rotate(90 75 40)" fill="#1C3782" fill-opacity="0.75"/>
<circle cx="110" cy="40" r="5" transform="rotate(90 110 40)" fill="#1C3782" fill-opacity="0.75"/>
<circle cx="145" cy="40" r="5" transform="rotate(90 145 40)" fill="#1C3782" fill-opacity="0.75"/>
<circle cx="180" cy="40" r="5" transform="rotate(90 180 40)" fill="#1C3782" fill-opacity="0.75"/>
<circle cx="215" cy="40" r="5" transform="rotate(90 215 40)" fill="#1C3782" fill-opacity="0.75"/>
<circle cx="75" cy="75" r="5" transform="rotate(90 75 75)" fill="#1C3782" fill-opacity="0.75"/>
<circle cx="110" cy="75" r="5" transform="rotate(90 110 75)" fill="#1C3782" fill-opacity="0.75"/>
<circle cx="145" cy="75" r="5" transform="rotate(90 145 75)" fill="#1C3782" fill-opacity="0.75"/>
<circle cx="180" cy="75" r="5" transform="rotate(90 180 75)" fill="#1C3782" fill-opacity="0.75"/>
<circle cx="215" cy="75" r="5" transform="rotate(90 215 75)" fill="#1C3782" fill-opacity="0.75"/>
<circle cx="75" cy="110" r="5" transform="rotate(90 75 110)" fill="#1C3782" fill-opacity="0.75"/>
<circle cx="110" cy="110" r="5" transform="rotate(90 110 110)" fill="#1C3782" fill-opacity="0.75"/>
<circle cx="145" cy="110" r="5" transform="rotate(90 145 110)" fill="#1C3782" fill-opacity="0.75"/>
<circle cx="180" cy="110" r="5" transform="rotate(90 180 110)" fill="#1C3782" fill-opacity="0.75"/>
<circle cx="215" cy="110" r="5" transform="rotate(90 215 110)" fill="#1C3782" fill-opacity="0.75"/>
<circle cx="75" cy="145" r="5" transform="rotate(90 75 145)" fill="#1C3782" fill-opacity="0.75"/>
<circle cx="110" cy="145" r="5" transform="rotate(90 110 145)" fill="#1C3782" fill-opacity="0.75"/>
<circle cx="145" cy="145" r="5" transform="rotate(90 145 145)" fill="#1C3782" fill-opacity="0.75"/>
<circle cx="180" cy="145" r="5" transform="rotate(90 180 145)" fill="#1C3782" fill-opacity="0.75"/>
<circle cx="215" cy="145" r="5" transform="rotate(90 215 145)" fill="#1C3782" fill-opacity="0.75"/>
<circle cx="75" cy="180" r="5" transform="rotate(90 75 180)" fill="#1C3782" fill-opacity="0.75"/>
<circle cx="110" cy="180" r="5" transform="rotate(90 110 180)" fill="#1C3782" fill-opacity="0.75"/>
<circle cx="145" cy="180" r="5" transform="rotate(90 145 180)" fill="#1C3782" fill-opacity="0.75"/>
<circle cx="180" cy="180" r="5" transform="rotate(90 180 180)" fill="#1C3782" fill-opacity="0.75"/>
<circle cx="215" cy="180" r="5" transform="rotate(90 215 180)" fill="#1C3782" fill-opacity="0.75"/>
<circle cx="75" cy="215" r="5" transform="rotate(90 75 215)" fill="#1C3782" fill-opacity="0.75"/>
<circle cx="110" cy="215" r="5" transform="rotate(90 110 215)" fill="#1C3782" fill-opacity="0.75"/>
<circle cx="145" cy="215" r="5" transform="rotate(90 145 215)" fill="#1C3782" fill-opacity="0.75"/>
<circle cx="180" cy="215" r="5" transform="rotate(90 180 215)" fill="#1C3782" fill-opacity="0.75"/>
<circle cx="215" cy="215" r="5" transform="rotate(90 215 215)" fill="#1C3782" fill-opacity="0.75"/>
<circle cx="5" cy="5" r="5" transform="rotate(90 5 5)" fill="#1C3782" fill-opacity="0.75"/>
<circle cx="40" cy="5" r="5" transform="rotate(90 40 5)" fill="#1C3782" fill-opacity="0.75"/>
<circle cx="5" cy="40" r="5" transform="rotate(90 5 40)" fill="#1C3782" fill-opacity="0.75"/>
<circle cx="40" cy="40" r="5" transform="rotate(90 40 40)" fill="#1C3782" fill-opacity="0.75"/>
<circle cx="5" cy="75" r="5" transform="rotate(90 5 75)" fill="#1C3782" fill-opacity="0.75"/>
<circle cx="40" cy="75" r="5" transform="rotate(90 40 75)" fill="#1C3782" fill-opacity="0.75"/>
<circle cx="5" cy="110" r="5" transform="rotate(90 5 110)" fill="#1C3782" fill-opacity="0.75"/>
<circle cx="40" cy="110" r="5" transform="rotate(90 40 110)" fill="#1C3782" fill-opacity="0.75"/>
<circle cx="5" cy="145" r="5" transform="rotate(90 5 145)" fill="#1C3782" fill-opacity="0.75"/>
<circle cx="40" cy="145" r="5" transform="rotate(90 40 145)" fill="#1C3782" fill-opacity="0.75"/>
<circle cx="5" cy="180" r="5" transform="rotate(90 5 180)" fill="#1C3782" fill-opacity="0.75"/>
<circle cx="40" cy="180" r="5" transform="rotate(90 40 180)" fill="#1C3782" fill-opacity="0.75"/>
<circle cx="5" cy="215" r="5" transform="rotate(90 5 215)" fill="#1C3782" fill-opacity="0.75"/>
<circle cx="40" cy="215" r="5" transform="rotate(90 40 215)" fill="#1C3782" fill-opacity="0.75"/>
</svg>
