<svg width="8" height="14" viewBox="0 0 8 14" fill="none" xmlns="http://www.w3.org/2000/svg">
<path d="M7.35489 0.645917C7.40146 0.692363 7.4384 0.747539 7.46361 0.808284C7.48881 0.869029 7.50179 0.93415 7.50179 0.999917C7.50179 1.06568 7.48881 1.13081 7.46361 1.19155C7.4384 1.2523 7.40146 1.30747 7.35489 1.35392L1.70789 6.99992L7.35489 12.6459C7.44878 12.7398 7.50152 12.8671 7.50152 12.9999C7.50152 13.1327 7.44878 13.26 7.35489 13.3539C7.26101 13.4478 7.13367 13.5005 7.00089 13.5005C6.86812 13.5005 6.74078 13.4478 6.64689 13.3539L0.646894 7.35392C0.60033 7.30747 0.563387 7.2523 0.538181 7.19155C0.512974 7.13081 0.5 7.06568 0.5 6.99992C0.5 6.93415 0.512974 6.86903 0.538181 6.80828C0.563387 6.74754 0.60033 6.69236 0.646894 6.64592L6.64689 0.645917C6.69334 0.599354 6.74852 0.562411 6.80926 0.537205C6.87001 0.511998 6.93513 0.499023 7.00089 0.499023C7.06666 0.499023 7.13178 0.511998 7.19253 0.537205C7.25327 0.562411 7.30845 0.599354 7.35489 0.645917V0.645917Z" fill="#1C3782"/>
</svg>
